  0
SECTION
  2
HEADER
  9
$ACADVER
  1
AC1014
  9
$HANDSEED
  5
FFFF
  9
$MEASUREMENT
 70
     1
  0
ENDSEC
  0
SECTION
  2
TABLES
  0
TABLE
  2
VPORT
  5
8
330
0
100
AcDbSymbolTable
 70
     4
  0
VPORT
  5
2E
330
8
100
AcDbSymbolTableRecord
100
AcDbViewportTableRecord
  2
*ACTIVE
 70
     0
 10
0.0
 20
0.0
 11
1.0
 21
1.0
 12
210.0
 22
148.5
 13
0.0
 23
0.0
 14
10.0
 24
10.0
 15
10.0
 25
10.0
 16
0.0
 26
0.0
 36
1.0
 17
0.0
 27
0.0
 37
0.0
 40
341.0
 41
1.24
 42
50.0
 43
0.0
 44
0.0
 50
0.0
 51
0.0
 71
     0
 72
   100
 73
     1
 74
     3
 75
     0
 76
     0
 77
     0
 78
     0
  0
ENDTAB
  0
TABLE
  2
LTYPE
  5
5
330
0
100
AcDbSymbolTable
 70
     1
  0
LTYPE
  5
14
330
5
100
AcDbSymbolTableRecord
100
AcDbLinetypeTableRecord
  2
BYBLOCK
 70
     0
  3

 72
    65
 73
     0
 40
0.0
  0
LTYPE
  5
15
330
5
100
AcDbSymbolTableRecord
100
AcDbLinetypeTableRecord
  2
BYLAYER
 70
     0
  3

 72
    65
 73
     0
 40
0.0
  0
LTYPE
  5
16
330
5
100
AcDbSymbolTableRecord
100
AcDbLinetypeTableRecord
  2
CONTINUOUS
 70
     0
  3
Solid line
 72
    65
 73
     0
 40
0.0
  0
ENDTAB
  0
TABLE
  2
LAYER
  5
2
100
AcDbSymbolTable
 70
3
  0
LAYER
  5
50
100
AcDbSymbolTableRecord
100
AcDbLayerTableRecord
  2
0
 70
0
  6
CONTINUOUS
  0
LAYER
  5
51
100
AcDbSymbolTableRecord
100
AcDbLayerTableRecord
  2
ProfileEdges
 70
0
  6
CONTINUOUS
  0
LAYER
  5
52
100
AcDbSymbolTableRecord
100
AcDbLayerTableRecord
  2
SectionCutEdges
 70
0
  6
CONTINUOUS
  0
ENDTAB
  0
TABLE
  2
STYLE
  5
3
330
0
100
AcDbSymbolTable
 70
     1
  0
STYLE
  5
11
330
3
100
AcDbSymbolTableRecord
100
AcDbTextStyleTableRecord
  2
STANDARD
 70
     0
 40
0.0
 41
1.0
 50
0.0
 71
     0
 42
2.5
  3
txt
  4

  0
ENDTAB
  0
TABLE
  2
VIEW
  5
6
330
0
100
AcDbSymbolTable
 70
     0
  0
ENDTAB
  0
TABLE
  2
UCS
  5
7
330
0
100
AcDbSymbolTable
 70
     0
  0
ENDTAB
  0
TABLE
  2
APPID
  5
9
330
0
100
AcDbSymbolTable
 70
     2
  0
APPID
  5
12
330
9
100
AcDbSymbolTableRecord
100
AcDbRegAppTableRecord
  2
ACAD
 70
     0
  0
ENDTAB
  0
TABLE
  2
DIMSTYLE
  5
A
330
0
100
AcDbSymbolTable
 70
     1
  0
DIMSTYLE
105
27
330
A
100
AcDbSymbolTableRecord
100
AcDbDimStyleTableRecord
  2
ISO-25
 70
     0
  3

  4

  5

  6

  7

 40
1.0
 41
2.5
 42
0.625
 43
3.75
 44
1.25
 45
0.0
 46
0.0
 47
0.0
 48
0.0
140
2.5
141
2.5
142
0.0
143
0.03937007874016
144
1.0
145
0.0
146
1.0
147
0.625
 71
     0
 72
     0
 73
     0
 74
     0
 75
     0
 76
     0
 77
     1
 78
     8
170
     0
171
     3
172
     1
173
     0
174
     0
175
     0
176
     0
177
     0
178
     0
270
     2
271
     2
272
     2
273
     2
274
     3
340
11
275
     0
280
     0
281
     0
282
     0
283
     0
284
     8
285
     0
286
     0
287
     3
288
     0
  0
ENDTAB
  0
TABLE
  2
BLOCK_RECORD
  5
1
330
0
100
AcDbSymbolTable
 70
     1
  0
BLOCK_RECORD
  5
1F
330
1
100
AcDbSymbolTableRecord
100
AcDbBlockTableRecord
  2
*MODEL_SPACE
  0
BLOCK_RECORD
  5
1B
330
1
100
AcDbSymbolTableRecord
100
AcDbBlockTableRecord
  2
*PAPER_SPACE
  0
ENDTAB
  0
ENDSEC
  0
SECTION
  2
BLOCKS
  0
BLOCK
  5
20
330
1F
100
AcDbEntity
  8
0
100
AcDbBlockBegin
  2
*MODEL_SPACE
 70
     0
 10
0.0
 20
0.0
 30
0.0
  3
*MODEL_SPACE
  1

  0
ENDBLK
  5
21
330
1F
100
AcDbEntity
  8
0
100
AcDbBlockEnd
  0
BLOCK
  5
1C
330
1B
100
AcDbEntity
 67
     1
  8
0
100
AcDbBlockBegin
  2
*PAPER_SPACE
  1

  0
ENDBLK
  5
1D
330
1B
100
AcDbEntity
 67
     1
  8
0
100
AcDbBlockEnd
  0
ENDSEC
  0
SECTION
  2
ENTITIES
  0
LWPOLYLINE
  5
100
100
AcDbEntity
  8
0
 62
7
100
AcDbPolyline
 90
2
 70
0
 10
204.096493
 20
199.806171
 30
0.0
 10
204.026141
 20
199.806171
 30
0.0
  0
LWPOLYLINE
  5
101
100
AcDbEntity
  8
0
 62
7
100
AcDbPolyline
 90
2
 70
0
 10
244.096489
 20
159.806194
 30
0.0
 10
244.026137
 20
159.806194
 30
0.0
  0
LWPOLYLINE
  5
102
100
AcDbEntity
  8
0
 62
7
100
AcDbPolyline
 90
2
 70
0
 10
148.096498
 20
199.806171
 30
0.0
 10
108.096502
 20
159.806194
 30
0.0
  0
LWPOLYLINE
  5
103
100
AcDbEntity
  8
0
 62
7
100
AcDbPolyline
 90
2
 70
0
 10
204.096493
 20
199.806171
 30
0.0
 10
244.096489
 20
159.806194
 30
0.0
  0
LWPOLYLINE
  5
104
100
AcDbEntity
  8
0
 62
7
100
AcDbPolyline
 90
2
 70
0
 10
204.026141
 20
199.806171
 30
0.0
 10
244.026137
 20
159.806194
 30
0.0
  0
LWPOLYLINE
  5
105
100
AcDbEntity
  8
0
 62
7
100
AcDbPolyline
 90
2
 70
0
 10
148.026145
 20
199.806171
 30
0.0
 10
108.026146
 20
159.806194
 30
0.0
  0
LWPOLYLINE
  5
106
100
AcDbEntity
  8
0
 62
7
100
AcDbPolyline
 90
2
 70
0
 10
108.096502
 20
159.806194
 30
0.0
 10
108.026146
 20
159.806194
 30
0.0
  0
LWPOLYLINE
  5
107
100
AcDbEntity
  8
0
 62
7
100
AcDbPolyline
 90
2
 70
0
 10
148.096498
 20
199.806171
 30
0.0
 10
148.026145
 20
199.806171
 30
0.0
  0
LWPOLYLINE
  5
108
100
AcDbEntity
  8
0
 62
7
100
AcDbPolyline
 90
2
 70
0
 10
11.096517
 20
19.806192
 30
0.0
 10
6.096499
 20
24.614440
 30
0.0
  0
LWPOLYLINE
  5
109
100
AcDbEntity
  8
0
 62
7
100
AcDbPolyline
 90
4
 70
0
 10
6.096499
 20
384.806167
 30
0.0
 10
11.096517
 20
389.806169
 30
0.0
 10
371.096484
 20
389.806169
 30
0.0
 10
376.096474
 20
384.806167
 30
0.0
  0
LWPOLYLINE
  5
10a
100
AcDbEntity
  8
0
 62
7
100
AcDbPolyline
 90
2
 70
0
 10
376.096474
 20
24.806210
 30
0.0
 10
371.096484
 20
19.806192
 30
0.0
  0
LWPOLYLINE
  5
10b
100
AcDbEntity
  8
0
 62
7
100
AcDbPolyline
 90
4
 70
0
 10
351.096467
 20
19.806192
 30
0.0
 10
349.096471
 20
21.806188
 30
0.0
 10
33.096502
 20
21.806188
 30
0.0
 10
31.096506
 20
19.806192
 30
0.0
  0
LWPOLYLINE
  5
10c
100
AcDbEntity
  8
0
 62
7
100
AcDbPolyline
 90
10
 70
0
 10
86.096503
 20
59.806197
 30
0.0
 10
66.096504
 20
59.806197
 30
0.0
 10
61.096505
 20
64.806187
 30
0.0
 10
61.096505
 20
344.806171
 30
0.0
 10
66.096504
 20
349.806173
 30
0.0
 10
316.096481
 20
349.806173
 30
0.0
 10
321.096471
 20
344.806171
 30
0.0
 10
321.096471
 20
64.806187
 30
0.0
 10
316.096481
 20
59.806197
 30
0.0
 10
296.096492
 20
59.806197
 30
0.0
  0
LWPOLYLINE
  5
10d
100
AcDbEntity
  8
0
 62
7
100
AcDbPolyline
 90
3
 70
0
 10
186.096495
 20
34.806190
 30
0.0
 10
196.096495
 20
34.806190
 30
0.0
 10
221.096493
 20
59.806197
 30
0.0
  0
LWPOLYLINE
  5
10e
100
AcDbEntity
  8
0
 62
7
100
AcDbPolyline
 90
2
 70
0
 10
186.096495
 20
34.806190
 30
0.0
 10
161.096497
 20
59.806197
 30
0.0
  0
LWPOLYLINE
  5
10f
100
AcDbEntity
  8
0
 62
7
100
AcDbPolyline
 90
2
 70
0
 10
116.096500
 20
59.806197
 30
0.0
 10
161.096497
 20
59.806197
 30
0.0
  0
LWPOLYLINE
  5
110
100
AcDbEntity
  8
0
 62
7
100
AcDbPolyline
 90
2
 70
0
 10
221.096493
 20
59.806197
 30
0.0
 10
266.096488
 20
59.806197
 30
0.0
  0
LWPOLYLINE
  5
111
100
AcDbEntity
  8
0
 62
7
100
AcDbPolyline
 90
2
 70
0
 10
236.096491
 20
249.806178
 30
0.0
 10
236.096491
 20
249.735825
 30
0.0
  0
LWPOLYLINE
  5
112
100
AcDbEntity
  8
0
 62
7
100
AcDbPolyline
 90
2
 70
0
 10
356.096485
 20
25.806208
 30
0.0
 10
356.376168
 20
25.843010
 30
0.0
  0
LWPOLYLINE
  5
113
100
AcDbEntity
  8
0
 62
7
100
AcDbPolyline
 90
2
 70
0
 10
6.096499
 20
24.614440
 30
0.0
 10
6.096499
 20
384.806167
 30
0.0
  0
LWPOLYLINE
  5
114
100
AcDbEntity
  8
0
 62
7
100
AcDbPolyline
 90
2
 70
0
 10
376.096474
 20
384.806167
 30
0.0
 10
376.096474
 20
24.806210
 30
0.0
  0
LWPOLYLINE
  5
115
100
AcDbEntity
  8
0
 62
7
100
AcDbPolyline
 90
2
 70
0
 10
371.096484
 20
19.806192
 30
0.0
 10
351.096467
 20
19.806192
 30
0.0
  0
LWPOLYLINE
  5
116
100
AcDbEntity
  8
0
 62
7
100
AcDbPolyline
 90
2
 70
0
 10
31.096506
 20
19.806192
 30
0.0
 10
11.096517
 20
19.806192
 30
0.0
  0
LWPOLYLINE
  5
117
100
AcDbEntity
  8
0
 62
7
100
AcDbPolyline
 90
2
 70
0
 10
348.196380
 20
31.843026
 30
0.0
 10
347.796781
 20
30.878306
 30
0.0
  0
LWPOLYLINE
  5
118
100
AcDbEntity
  8
0
 62
7
100
AcDbPolyline
 90
2
 70
0
 10
347.660468
 20
29.843030
 30
0.0
 10
347.796781
 20
28.807754
 30
0.0
  0
LWPOLYLINE
  5
119
100
AcDbEntity
  8
0
 62
7
100
AcDbPolyline
 90
2
 70
0
 10
350.625184
 20
33.706709
 30
0.0
 10
349.660464
 20
33.307110
 30
0.0
  0
LWPOLYLINE
  5
11a
100
AcDbEntity
  8
0
 62
7
100
AcDbPolyline
 90
2
 70
0
 10
360.691712
 20
33.706709
 30
0.0
 10
359.656436
 20
33.843022
 30
0.0
  0
LWPOLYLINE
  5
11b
100
AcDbEntity
  8
0
 62
7
100
AcDbPolyline
 90
2
 70
0
 10
362.484868
 20
27.014599
 30
0.0
 10
363.120545
 20
27.843006
 30
0.0
  0
LWPOLYLINE
  5
11c
100
AcDbEntity
  8
0
 62
7
100
AcDbPolyline
 90
2
 70
0
 10
361.656432
 20
26.378922
 30
0.0
 10
362.484868
 20
27.014599
 30
0.0
  0
LWPOLYLINE
  5
11d
100
AcDbEntity
  8
0
 62
7
100
AcDbPolyline
 90
2
 70
0
 10
360.691712
 20
25.979323
 30
0.0
 10
361.656432
 20
26.378922
 30
0.0
  0
LWPOLYLINE
  5
11e
100
AcDbEntity
  8
0
 62
7
100
AcDbPolyline
 90
3
 70
0
 10
349.660464
 20
26.378922
 30
0.0
 10
350.625184
 20
25.979323
 30
0.0
 10
351.660460
 20
25.843010
 30
0.0
  0
LWPOLYLINE
  5
11f
100
AcDbEntity
  8
0
 62
7
100
AcDbPolyline
 90
2
 70
0
 10
347.796781
 20
28.807754
 30
0.0
 10
348.196380
 20
27.843006
 30
0.0
  0
LWPOLYLINE
  5
120
100
AcDbEntity
  8
0
 62
7
100
AcDbPolyline
 90
2
 70
0
 10
362.484868
 20
32.671433
 30
0.0
 10
361.656432
 20
33.307110
 30
0.0
  0
LWPOLYLINE
  5
121
100
AcDbEntity
  8
0
 62
7
100
AcDbPolyline
 90
2
 70
0
 10
363.120545
 20
31.843026
 30
0.0
 10
362.484868
 20
32.671433
 30
0.0
  0
LWPOLYLINE
  5
122
100
AcDbEntity
  8
0
 62
7
100
AcDbPolyline
 90
2
 70
0
 10
351.660460
 20
33.843022
 30
0.0
 10
359.656436
 20
33.843022
 30
0.0
  0
LWPOLYLINE
  5
123
100
AcDbEntity
  8
0
 62
7
100
AcDbPolyline
 90
3
 70
0
 10
349.660464
 20
33.307110
 30
0.0
 10
348.832057
 20
32.671433
 30
0.0
 10
348.196380
 20
31.843026
 30
0.0
  0
LWPOLYLINE
  5
124
100
AcDbEntity
  8
0
 62
7
100
AcDbPolyline
 90
2
 70
0
 10
348.832057
 20
27.014599
 30
0.0
 10
349.660464
 20
26.378922
 30
0.0
  0
LWPOLYLINE
  5
125
100
AcDbEntity
  8
0
 62
7
100
AcDbPolyline
 90
2
 70
0
 10
363.520143
 20
30.878306
 30
0.0
 10
363.120545
 20
31.843026
 30
0.0
  0
LWPOLYLINE
  5
126
100
AcDbEntity
  8
0
 62
7
100
AcDbPolyline
 90
2
 70
0
 10
347.796781
 20
30.878306
 30
0.0
 10
347.660468
 20
29.843030
 30
0.0
  0
LWPOLYLINE
  5
127
100
AcDbEntity
  8
0
 62
7
100
AcDbPolyline
 90
2
 70
0
 10
348.196380
 20
27.843006
 30
0.0
 10
348.832057
 20
27.014599
 30
0.0
  0
LWPOLYLINE
  5
128
100
AcDbEntity
  8
0
 62
7
100
AcDbPolyline
 90
2
 70
0
 10
363.520143
 20
28.807754
 30
0.0
 10
363.656428
 20
29.843030
 30
0.0
  0
LWPOLYLINE
  5
129
100
AcDbEntity
  8
0
 62
7
100
AcDbPolyline
 90
2
 70
0
 10
363.120545
 20
27.843006
 30
0.0
 10
363.520143
 20
28.807754
 30
0.0
  0
LWPOLYLINE
  5
12a
100
AcDbEntity
  8
0
 62
7
100
AcDbPolyline
 90
2
 70
0
 10
351.660460
 20
33.843022
 30
0.0
 10
350.625184
 20
33.706709
 30
0.0
  0
LWPOLYLINE
  5
12b
100
AcDbEntity
  8
0
 62
7
100
AcDbPolyline
 90
2
 70
0
 10
359.723295
 20
25.843010
 30
0.0
 10
360.691712
 20
25.979323
 30
0.0
  0
LWPOLYLINE
  5
12c
100
AcDbEntity
  8
0
 62
7
100
AcDbPolyline
 90
2
 70
0
 10
351.660460
 20
25.843010
 30
0.0
 10
355.816803
 20
25.843010
 30
0.0
  0
LWPOLYLINE
  5
12d
100
AcDbEntity
  8
0
 62
7
100
AcDbPolyline
 90
2
 70
0
 10
363.656428
 20
29.843030
 30
0.0
 10
363.520143
 20
30.878306
 30
0.0
  0
LWPOLYLINE
  5
12e
100
AcDbEntity
  8
0
 62
7
100
AcDbPolyline
 90
2
 70
0
 10
361.656432
 20
33.307110
 30
0.0
 10
360.691712
 20
33.706709
 30
0.0
  0
LWPOLYLINE
  5
12f
100
AcDbEntity
  8
0
 62
7
100
AcDbPolyline
 90
2
 70
0
 10
355.816803
 20
25.843010
 30
0.0
 10
356.096485
 20
25.806208
 30
0.0
  0
LWPOLYLINE
  5
130
100
AcDbEntity
  8
0
 62
7
100
AcDbPolyline
 90
3
 70
0
 10
355.816803
 20
25.843010
 30
0.0
 10
356.376168
 20
25.843010
 30
0.0
 10
359.723295
 20
25.843010
 30
0.0
  0
LWPOLYLINE
  5
131
100
AcDbEntity
  8
0
 62
7
100
AcDbPolyline
 90
2
 70
0
 10
18.122976
 20
29.843030
 30
0.0
 10
18.259261
 20
28.807754
 30
0.0
  0
LWPOLYLINE
  5
132
100
AcDbEntity
  8
0
 62
7
100
AcDbPolyline
 90
2
 70
0
 10
18.658887
 20
31.843026
 30
0.0
 10
18.259261
 20
30.878306
 30
0.0
  0
LWPOLYLINE
  5
133
100
AcDbEntity
  8
0
 62
7
100
AcDbPolyline
 90
2
 70
0
 10
21.087692
 20
33.706709
 30
0.0
 10
20.122972
 20
33.307110
 30
0.0
  0
LWPOLYLINE
  5
134
100
AcDbEntity
  8
0
 62
7
100
AcDbPolyline
 90
2
 70
0
 10
31.154220
 20
33.706709
 30
0.0
 10
30.118945
 20
33.843022
 30
0.0
  0
LWPOLYLINE
  5
135
100
AcDbEntity
  8
0
 62
7
100
AcDbPolyline
 90
2
 70
0
 10
32.947376
 20
27.014599
 30
0.0
 10
33.583053
 20
27.843006
 30
0.0
  0
LWPOLYLINE
  5
136
100
AcDbEntity
  8
0
 62
7
100
AcDbPolyline
 90
2
 70
0
 10
32.118941
 20
26.378922
 30
0.0
 10
32.947376
 20
27.014599
 30
0.0
  0
LWPOLYLINE
  5
137
100
AcDbEntity
  8
0
 62
7
100
AcDbPolyline
 90
2
 70
0
 10
31.154220
 20
25.979323
 30
0.0
 10
32.118941
 20
26.378922
 30
0.0
  0
LWPOLYLINE
  5
138
100
AcDbEntity
  8
0
 62
7
100
AcDbPolyline
 90
3
 70
0
 10
20.122972
 20
26.378922
 30
0.0
 10
21.087692
 20
25.979323
 30
0.0
 10
22.122968
 20
25.843010
 30
0.0
  0
LWPOLYLINE
  5
139
100
AcDbEntity
  8
0
 62
7
100
AcDbPolyline
 90
2
 70
0
 10
18.259261
 20
28.807754
 30
0.0
 10
18.658887
 20
27.843006
 30
0.0
  0
LWPOLYLINE
  5
13a
100
AcDbEntity
  8
0
 62
7
100
AcDbPolyline
 90
2
 70
0
 10
32.947376
 20
32.671433
 30
0.0
 10
32.118941
 20
33.307110
 30
0.0
  0
LWPOLYLINE
  5
13b
100
AcDbEntity
  8
0
 62
7
100
AcDbPolyline
 90
2
 70
0
 10
33.583053
 20
31.843026
 30
0.0
 10
32.947376
 20
32.671433
 30
0.0
  0
LWPOLYLINE
  5
13c
100
AcDbEntity
  8
0
 62
7
100
AcDbPolyline
 90
2
 70
0
 10
22.122968
 20
33.843022
 30
0.0
 10
30.118945
 20
33.843022
 30
0.0
  0
LWPOLYLINE
  5
13d
100
AcDbEntity
  8
0
 62
7
100
AcDbPolyline
 90
3
 70
0
 10
20.122972
 20
33.307110
 30
0.0
 10
19.294537
 20
32.671433
 30
0.0
 10
18.658887
 20
31.843026
 30
0.0
  0
LWPOLYLINE
  5
13e
100
AcDbEntity
  8
0
 62
7
100
AcDbPolyline
 90
2
 70
0
 10
19.294537
 20
27.014599
 30
0.0
 10
20.122972
 20
26.378922
 30
0.0
  0
LWPOLYLINE
  5
13f
100
AcDbEntity
  8
0
 62
7
100
AcDbPolyline
 90
2
 70
0
 10
33.982652
 20
30.878306
 30
0.0
 10
33.583053
 20
31.843026
 30
0.0
  0
LWPOLYLINE
  5
140
100
AcDbEntity
  8
0
 62
7
100
AcDbPolyline
 90
2
 70
0
 10
18.259261
 20
30.878306
 30
0.0
 10
18.122976
 20
29.843030
 30
0.0
  0
LWPOLYLINE
  5
141
100
AcDbEntity
  8
0
 62
7
100
AcDbPolyline
 90
2
 70
0
 10
18.658887
 20
27.843006
 30
0.0
 10
19.294537
 20
27.014599
 30
0.0
  0
LWPOLYLINE
  5
142
100
AcDbEntity
  8
0
 62
7
100
AcDbPolyline
 90
2
 70
0
 10
33.982652
 20
28.807754
 30
0.0
 10
34.118937
 20
29.843030
 30
0.0
  0
LWPOLYLINE
  5
143
100
AcDbEntity
  8
0
 62
7
100
AcDbPolyline
 90
2
 70
0
 10
33.583053
 20
27.843006
 30
0.0
 10
33.982652
 20
28.807754
 30
0.0
  0
LWPOLYLINE
  5
144
100
AcDbEntity
  8
0
 62
7
100
AcDbPolyline
 90
2
 70
0
 10
22.122968
 20
33.843022
 30
0.0
 10
21.087692
 20
33.706709
 30
0.0
  0
LWPOLYLINE
  5
145
100
AcDbEntity
  8
0
 62
7
100
AcDbPolyline
 90
2
 70
0
 10
30.185803
 20
25.843010
 30
0.0
 10
31.154220
 20
25.979323
 30
0.0
  0
LWPOLYLINE
  5
146
100
AcDbEntity
  8
0
 62
7
100
AcDbPolyline
 90
2
 70
0
 10
22.122968
 20
25.843010
 30
0.0
 10
30.185803
 20
25.843010
 30
0.0
  0
LWPOLYLINE
  5
147
100
AcDbEntity
  8
0
 62
7
100
AcDbPolyline
 90
2
 70
0
 10
34.118937
 20
29.843030
 30
0.0
 10
33.982652
 20
30.878306
 30
0.0
  0
LWPOLYLINE
  5
148
100
AcDbEntity
  8
0
 62
7
100
AcDbPolyline
 90
2
 70
0
 10
32.118941
 20
33.307110
 30
0.0
 10
31.154220
 20
33.706709
 30
0.0
  0
LWPOLYLINE
  5
149
100
AcDbEntity
  8
0
 62
7
100
AcDbPolyline
 90
5
 70
0
 10
329.846488
 20
371.548939
 30
0.0
 10
329.846488
 20
380.548941
 30
0.0
 10
336.346490
 20
380.548941
 30
0.0
 10
336.346490
 20
371.548939
 30
0.0
 10
329.846488
 20
371.548939
 30
0.0
  0
LWPOLYLINE
  5
14a
100
AcDbEntity
  8
0
 62
7
100
AcDbPolyline
 90
5
 70
0
 10
329.846488
 20
339.248945
 30
0.0
 10
329.846488
 20
348.248944
 30
0.0
 10
336.346490
 20
348.248944
 30
0.0
 10
336.346490
 20
339.248945
 30
0.0
 10
329.846488
 20
339.248945
 30
0.0
  0
LWPOLYLINE
  5
14b
100
AcDbEntity
  8
0
 62
7
100
AcDbPolyline
 90
5
 70
0
 10
329.846488
 20
216.456181
 30
0.0
 10
329.846488
 20
225.456180
 30
0.0
 10
336.346490
 20
225.456180
 30
0.0
 10
336.346490
 20
216.456181
 30
0.0
 10
329.846488
 20
216.456181
 30
0.0
  0
LWPOLYLINE
  5
14c
100
AcDbEntity
  8
0
 62
7
100
AcDbPolyline
 90
5
 70
0
 10
329.846488
 20
184.156186
 30
0.0
 10
329.846488
 20
193.156197
 30
0.0
 10
336.346490
 20
193.156197
 30
0.0
 10
336.346490
 20
184.156186
 30
0.0
 10
329.846488
 20
184.156186
 30
0.0
  0
LWPOLYLINE
  5
14d
100
AcDbEntity
  8
0
 62
7
100
AcDbPolyline
 90
5
 70
0
 10
329.846488
 20
56.456134
 30
0.0
 10
329.846488
 20
65.456144
 30
0.0
 10
336.346490
 20
65.456144
 30
0.0
 10
336.346490
 20
56.456134
 30
0.0
 10
329.846488
 20
56.456134
 30
0.0
  0
LWPOLYLINE
  5
14e
100
AcDbEntity
  8
0
 62
7
100
AcDbPolyline
 90
5
 70
0
 10
45.846506
 20
371.548939
 30
0.0
 10
45.846506
 20
380.548941
 30
0.0
 10
52.346504
 20
380.548941
 30
0.0
 10
52.346504
 20
371.548939
 30
0.0
 10
45.846506
 20
371.548939
 30
0.0
  0
LWPOLYLINE
  5
14f
100
AcDbEntity
  8
0
 62
7
100
AcDbPolyline
 90
5
 70
0
 10
45.846506
 20
339.248945
 30
0.0
 10
45.846506
 20
348.248944
 30
0.0
 10
52.346504
 20
348.248944
 30
0.0
 10
52.346504
 20
339.248945
 30
0.0
 10
45.846506
 20
339.248945
 30
0.0
  0
LWPOLYLINE
  5
150
100
AcDbEntity
  8
0
 62
7
100
AcDbPolyline
 90
5
 70
0
 10
45.846506
 20
216.456181
 30
0.0
 10
45.846506
 20
225.456180
 30
0.0
 10
52.346504
 20
225.456180
 30
0.0
 10
52.346504
 20
216.456181
 30
0.0
 10
45.846506
 20
216.456181
 30
0.0
  0
LWPOLYLINE
  5
151
100
AcDbEntity
  8
0
 62
7
100
AcDbPolyline
 90
5
 70
0
 10
45.846506
 20
184.156186
 30
0.0
 10
45.846506
 20
193.156197
 30
0.0
 10
52.346504
 20
193.156197
 30
0.0
 10
52.346504
 20
184.156186
 30
0.0
 10
45.846506
 20
184.156186
 30
0.0
  0
LWPOLYLINE
  5
152
100
AcDbEntity
  8
0
 62
7
100
AcDbPolyline
 90
5
 70
0
 10
45.846506
 20
56.456134
 30
0.0
 10
45.846506
 20
65.456144
 30
0.0
 10
52.346504
 20
65.456144
 30
0.0
 10
52.346504
 20
56.456134
 30
0.0
 10
45.846506
 20
56.456134
 30
0.0
  0
LWPOLYLINE
  5
153
100
AcDbEntity
  8
0
 62
7
100
AcDbPolyline
 90
25
 70
0
 10
334.895754
 20
204.806161
 30
0.0
 10
334.834371
 20
205.272053
 30
0.0
 10
334.654483
 20
205.706139
 30
0.0
 10
334.368366
 20
206.078898
 30
0.0
 10
333.995550
 20
206.364902
 30
0.0
 10
333.561380
 20
206.544649
 30
0.0
 10
333.095515
 20
206.605920
 30
0.0
 10
332.629623
 20
206.544508
 30
0.0
 10
332.195537
 20
206.364620
 30
0.0
 10
331.822778
 20
206.078531
 30
0.0
 10
331.536774
 20
205.705687
 30
0.0
 10
331.357026
 20
205.271545
 30
0.0
 10
331.295756
 20
204.805653
 30
0.0
 10
331.357168
 20
204.339788
 30
0.0
 10
331.537056
 20
203.905702
 30
0.0
 10
331.823145
 20
203.532943
 30
0.0
 10
332.195988
 20
203.246939
 30
0.0
 10
332.630131
 20
203.067192
 30
0.0
 10
333.096023
 20
203.005921
 30
0.0
 10
333.561888
 20
203.067305
 30
0.0
 10
333.995974
 20
203.247193
 30
0.0
 10
334.368733
 20
203.533310
 30
0.0
 10
334.654737
 20
203.906126
 30
0.0
 10
334.834484
 20
204.340296
 30
0.0
 10
334.895754
 20
204.806161
 30
0.0
  0
LWPOLYLINE
  5
154
100
AcDbEntity
  8
0
 62
7
100
AcDbPolyline
 90
25
 70
0
 10
334.908483
 20
359.806251
 30
0.0
 10
334.844136
 20
360.271720
 30
0.0
 10
334.661510
 20
360.704672
 30
0.0
 10
334.373051
 20
361.075602
 30
0.0
 10
333.998401
 20
361.359233
 30
0.0
 10
333.563129
 20
361.536237
 30
0.0
 10
333.096870
 20
361.594550
 30
0.0
 10
332.631401
 20
361.530197
 30
0.0
 10
332.198444
 20
361.347566
 30
0.0
 10
331.827519
 20
361.059103
 30
0.0
 10
331.543886
 20
360.684465
 30
0.0
 10
331.366876
 20
360.249182
 30
0.0
 10
331.308569
 20
359.782920
 30
0.0
 10
331.372916
 20
359.317454
 30
0.0
 10
331.555542
 20
358.884502
 30
0.0
 10
331.844001
 20
358.513572
 30
0.0
 10
332.218651
 20
358.229941
 30
0.0
 10
332.653922
 20
358.052937
 30
0.0
 10
333.120182
 20
357.994625
 30
0.0
 10
333.585651
 20
358.058977
 30
0.0
 10
334.018608
 20
358.241606
 30
0.0
 10
334.389532
 20
358.530071
 30
0.0
 10
334.673166
 20
358.904709
 30
0.0
 10
334.850176
 20
359.339992
 30
0.0
 10
334.908483
 20
359.806251
 30
0.0
  0
LWPOLYLINE
  5
155
100
AcDbEntity
  8
0
 62
7
100
AcDbPolyline
 90
2
 70
0
 10
346.099497
 20
381.596527
 30
0.0
 10
345.633633
 20
381.535127
 30
0.0
  0
LWPOLYLINE
  5
156
100
AcDbEntity
  8
0
 62
7
100
AcDbPolyline
 90
5
 70
0
 10
347.899736
 20
379.796785
 30
0.0
 10
347.838353
 20
380.262652
 30
0.0
 10
347.658464
 20
380.696752
 30
0.0
 10
347.372347
 20
381.069503
 30
0.0
 10
346.999532
 20
381.355501
 30
0.0
  0
LWPOLYLINE
  5
157
100
AcDbEntity
  8
0
 62
7
100
AcDbPolyline
 90
4
 70
0
 10
345.633633
 20
381.535127
 30
0.0
 10
345.199518
 20
381.355244
 30
0.0
 10
344.826788
 20
381.069139
 30
0.0
 10
344.540784
 20
380.696306
 30
0.0
  0
LWPOLYLINE
  5
158
100
AcDbEntity
  8
0
 62
7
100
AcDbPolyline
 90
3
 70
0
 10
346.100005
 20
377.996529
 30
0.0
 10
346.565869
 20
378.057929
 30
0.0
 10
346.999983
 20
378.237812
 30
0.0
  0
LWPOLYLINE
  5
159
100
AcDbEntity
  8
0
 62
7
100
AcDbPolyline
 90
3
 70
0
 10
346.999532
 20
381.355501
 30
0.0
 10
346.565361
 20
381.535260
 30
0.0
 10
346.099497
 20
381.596527
 30
0.0
  0
LWPOLYLINE
  5
15a
100
AcDbEntity
  8
0
 62
7
100
AcDbPolyline
 90
5
 70
0
 10
344.540784
 20
380.696306
 30
0.0
 10
344.361008
 20
380.262153
 30
0.0
 10
344.299738
 20
379.796271
 30
0.0
 10
344.361149
 20
379.330404
 30
0.0
 10
344.541038
 20
378.896304
 30
0.0
  0
LWPOLYLINE
  5
15b
100
AcDbEntity
  8
0
 62
7
100
AcDbPolyline
 90
5
 70
0
 10
346.999983
 20
378.237812
 30
0.0
 10
347.372714
 20
378.523918
 30
0.0
 10
347.658718
 20
378.896750
 30
0.0
 10
347.838494
 20
379.330901
 30
0.0
 10
347.899736
 20
379.796785
 30
0.0
  0
LWPOLYLINE
  5
15c
100
AcDbEntity
  8
0
 62
7
100
AcDbPolyline
 90
5
 70
0
 10
344.541038
 20
378.896304
 30
0.0
 10
344.827126
 20
378.523554
 30
0.0
 10
345.199970
 20
378.237552
 30
0.0
 10
345.634112
 20
378.057794
 30
0.0
 10
346.100005
 20
377.996529
 30
0.0
  0
LWPOLYLINE
  5
15d
100
AcDbEntity
  8
0
 62
7
100
AcDbPolyline
 90
2
 70
0
 10
367.812687
 20
380.295666
 30
0.0
 10
367.632798
 20
380.729767
 30
0.0
  0
LWPOLYLINE
  5
15e
100
AcDbEntity
  8
0
 62
7
100
AcDbPolyline
 90
3
 70
0
 10
365.173853
 20
381.388259
 30
0.0
 10
364.801094
 20
381.102153
 30
0.0
 10
364.515090
 20
380.729321
 30
0.0
  0
LWPOLYLINE
  5
15f
100
AcDbEntity
  8
0
 62
7
100
AcDbPolyline
 90
4
 70
0
 10
364.801460
 20
378.556568
 30
0.0
 10
365.174304
 20
378.270570
 30
0.0
 10
365.608447
 20
378.090811
 30
0.0
 10
366.074339
 20
378.029543
 30
0.0
  0
LWPOLYLINE
  5
160
100
AcDbEntity
  8
0
 62
7
100
AcDbPolyline
 90
3
 70
0
 10
364.335483
 20
379.363422
 30
0.0
 10
364.515372
 20
378.929321
 30
0.0
 10
364.801460
 20
378.556568
 30
0.0
  0
LWPOLYLINE
  5
161
100
AcDbEntity
  8
0
 62
7
100
AcDbPolyline
 90
4
 70
0
 10
364.515090
 20
380.729321
 30
0.0
 10
364.335342
 20
380.295170
 30
0.0
 10
364.274072
 20
379.829286
 30
0.0
 10
364.335483
 20
379.363422
 30
0.0
  0
LWPOLYLINE
  5
162
100
AcDbEntity
  8
0
 62
7
100
AcDbPolyline
 90
2
 70
0
 10
366.973866
 20
381.388518
 30
0.0
 10
366.539695
 20
381.568277
 30
0.0
  0
LWPOLYLINE
  5
163
100
AcDbEntity
  8
0
 62
7
100
AcDbPolyline
 90
2
 70
0
 10
367.346682
 20
381.102517
 30
0.0
 10
366.973866
 20
381.388518
 30
0.0
  0
LWPOLYLINE
  5
164
100
AcDbEntity
  8
0
 62
7
100
AcDbPolyline
 90
2
 70
0
 10
367.632798
 20
380.729767
 30
0.0
 10
367.346682
 20
381.102517
 30
0.0
  0
LWPOLYLINE
  5
165
100
AcDbEntity
  8
0
 62
7
100
AcDbPolyline
 90
4
 70
0
 10
366.539695
 20
381.568277
 30
0.0
 10
366.073831
 20
381.629542
 30
0.0
 10
365.607967
 20
381.568144
 30
0.0
 10
365.173853
 20
381.388259
 30
0.0
  0
LWPOLYLINE
  5
166
100
AcDbEntity
  8
0
 62
7
100
AcDbPolyline
 90
2
 70
0
 10
367.874070
 20
379.829802
 30
0.0
 10
367.812687
 20
380.295666
 30
0.0
  0
LWPOLYLINE
  5
167
100
AcDbEntity
  8
0
 62
7
100
AcDbPolyline
 90
2
 70
0
 10
367.812800
 20
379.363918
 30
0.0
 10
367.874070
 20
379.829802
 30
0.0
  0
LWPOLYLINE
  5
168
100
AcDbEntity
  8
0
 62
7
100
AcDbPolyline
 90
6
 70
0
 10
366.074339
 20
378.029543
 30
0.0
 10
366.540203
 20
378.090944
 30
0.0
 10
366.974289
 20
378.270826
 30
0.0
 10
367.347048
 20
378.556935
 30
0.0
 10
367.633052
 20
378.929767
 30
0.0
 10
367.812800
 20
379.363918
 30
0.0
  0
LWPOLYLINE
  5
169
100
AcDbEntity
  8
0
 62
7
100
AcDbPolyline
 90
2
 70
0
 10
345.644555
 20
61.535824
 30
0.0
 10
345.210469
 20
61.355935
 30
0.0
  0
LWPOLYLINE
  5
16a
100
AcDbEntity
  8
0
 62
7
100
AcDbPolyline
 90
2
 70
0
 10
347.669386
 20
60.697454
 30
0.0
 10
347.383298
 20
61.070213
 30
0.0
  0
LWPOLYLINE
  5
16b
100
AcDbEntity
  8
0
 62
7
100
AcDbPolyline
 90
2
 70
0
 10
344.371958
 20
60.262860
 30
0.0
 10
344.310688
 20
59.796968
 30
0.0
  0
LWPOLYLINE
  5
16c
100
AcDbEntity
  8
0
 62
7
100
AcDbPolyline
 90
2
 70
0
 10
347.849275
 20
60.263340
 30
0.0
 10
347.669386
 20
60.697454
 30
0.0
  0
LWPOLYLINE
  5
16d
100
AcDbEntity
  8
0
 62
7
100
AcDbPolyline
 90
2
 70
0
 10
344.837710
 20
61.069847
 30
0.0
 10
344.551706
 20
60.697003
 30
0.0
  0
LWPOLYLINE
  5
16e
100
AcDbEntity
  8
0
 62
7
100
AcDbPolyline
 90
2
 70
0
 10
347.910686
 20
59.797476
 30
0.0
 10
347.849275
 20
60.263340
 30
0.0
  0
LWPOLYLINE
  5
16f
100
AcDbEntity
  8
0
 62
7
100
AcDbPolyline
 90
2
 70
0
 10
345.210469
 20
61.355935
 30
0.0
 10
344.837710
 20
61.069847
 30
0.0
  0
LWPOLYLINE
  5
170
100
AcDbEntity
  8
0
 62
7
100
AcDbPolyline
 90
2
 70
0
 10
346.576311
 20
61.535965
 30
0.0
 10
346.110419
 20
61.597235
 30
0.0
  0
LWPOLYLINE
  5
171
100
AcDbEntity
  8
0
 62
7
100
AcDbPolyline
 90
2
 70
0
 10
345.210892
 20
58.238255
 30
0.0
 10
345.645063
 20
58.058507
 30
0.0
  0
LWPOLYLINE
  5
172
100
AcDbEntity
  8
0
 62
7
100
AcDbPolyline
 90
3
 70
0
 10
346.576819
 20
58.058620
 30
0.0
 10
347.010905
 20
58.238509
 30
0.0
 10
347.383664
 20
58.524625
 30
0.0
  0
LWPOLYLINE
  5
173
100
AcDbEntity
  8
0
 62
7
100
AcDbPolyline
 90
3
 70
0
 10
344.551960
 20
58.897018
 30
0.0
 10
344.838076
 20
58.524259
 30
0.0
 10
345.210892
 20
58.238255
 30
0.0
  0
LWPOLYLINE
  5
174
100
AcDbEntity
  8
0
 62
7
100
AcDbPolyline
 90
2
 70
0
 10
346.110419
 20
61.597235
 30
0.0
 10
345.644555
 20
61.535824
 30
0.0
  0
LWPOLYLINE
  5
175
100
AcDbEntity
  8
0
 62
7
100
AcDbPolyline
 90
3
 70
0
 10
345.645063
 20
58.058507
 30
0.0
 10
346.110927
 20
57.997237
 30
0.0
 10
346.576819
 20
58.058620
 30
0.0
  0
LWPOLYLINE
  5
176
100
AcDbEntity
  8
0
 62
7
100
AcDbPolyline
 90
3
 70
0
 10
347.383298
 20
61.070213
 30
0.0
 10
347.010454
 20
61.356189
 30
0.0
 10
346.576311
 20
61.535965
 30
0.0
  0
LWPOLYLINE
  5
177
100
AcDbEntity
  8
0
 62
7
100
AcDbPolyline
 90
3
 70
0
 10
347.669668
 20
58.897441
 30
0.0
 10
347.849416
 20
59.331612
 30
0.0
 10
347.910686
 20
59.797476
 30
0.0
  0
LWPOLYLINE
  5
178
100
AcDbEntity
  8
0
 62
7
100
AcDbPolyline
 90
3
 70
0
 10
344.310688
 20
59.796968
 30
0.0
 10
344.372071
 20
59.331104
 30
0.0
 10
344.551960
 20
58.897018
 30
0.0
  0
LWPOLYLINE
  5
179
100
AcDbEntity
  8
0
 62
7
100
AcDbPolyline
 90
2
 70
0
 10
347.383664
 20
58.524625
 30
0.0
 10
347.669668
 20
58.897441
 30
0.0
  0
LWPOLYLINE
  5
17a
100
AcDbEntity
  8
0
 62
7
100
AcDbPolyline
 90
2
 70
0
 10
344.551706
 20
60.697003
 30
0.0
 10
344.371958
 20
60.262860
 30
0.0
  0
LWPOLYLINE
  5
17b
100
AcDbEntity
  8
0
 62
7
100
AcDbPolyline
 90
4
 70
0
 10
366.555641
 20
58.013831
 30
0.0
 10
366.989755
 20
58.193720
 30
0.0
 10
367.362514
 20
58.479837
 30
0.0
 10
367.648490
 20
58.852652
 30
0.0
  0
LWPOLYLINE
  5
17c
100
AcDbEntity
  8
0
 62
7
100
AcDbPolyline
 90
3
 70
0
 10
365.623404
 20
61.491035
 30
0.0
 10
365.189290
 20
61.311147
 30
0.0
 10
364.816559
 20
61.025030
 30
0.0
  0
LWPOLYLINE
  5
17d
100
AcDbEntity
  8
0
 62
7
100
AcDbPolyline
 90
3
 70
0
 10
364.530809
 20
58.852201
 30
0.0
 10
364.816926
 20
58.479470
 30
0.0
 10
365.189742
 20
58.193466
 30
0.0
  0
LWPOLYLINE
  5
17e
100
AcDbEntity
  8
0
 62
7
100
AcDbPolyline
 90
3
 70
0
 10
364.289538
 20
59.752179
 30
0.0
 10
364.350921
 20
59.286315
 30
0.0
 10
364.530809
 20
58.852201
 30
0.0
  0
LWPOLYLINE
  5
17f
100
AcDbEntity
  8
0
 62
7
100
AcDbPolyline
 90
4
 70
0
 10
364.816559
 20
61.025030
 30
0.0
 10
364.530555
 20
60.652214
 30
0.0
 10
364.350780
 20
60.218072
 30
0.0
 10
364.289538
 20
59.752179
 30
0.0
  0
LWPOLYLINE
  5
180
100
AcDbEntity
  8
0
 62
7
100
AcDbPolyline
 90
4
 70
0
 10
365.189742
 20
58.193466
 30
0.0
 10
365.623912
 20
58.013690
 30
0.0
 10
366.089777
 20
57.952420
 30
0.0
 10
366.555641
 20
58.013831
 30
0.0
  0
LWPOLYLINE
  5
181
100
AcDbEntity
  8
0
 62
7
100
AcDbPolyline
 90
2
 70
0
 10
366.555161
 20
61.491176
 30
0.0
 10
366.089269
 20
61.552447
 30
0.0
  0
LWPOLYLINE
  5
182
100
AcDbEntity
  8
0
 62
7
100
AcDbPolyline
 90
2
 70
0
 10
367.648236
 20
60.652666
 30
0.0
 10
367.362147
 20
61.025397
 30
0.0
  0
LWPOLYLINE
  5
183
100
AcDbEntity
  8
0
 62
7
100
AcDbPolyline
 90
2
 70
0
 10
367.828124
 20
60.218551
 30
0.0
 10
367.648236
 20
60.652666
 30
0.0
  0
LWPOLYLINE
  5
184
100
AcDbEntity
  8
0
 62
7
100
AcDbPolyline
 90
3
 70
0
 10
367.362147
 20
61.025397
 30
0.0
 10
366.989304
 20
61.311401
 30
0.0
 10
366.555161
 20
61.491176
 30
0.0
  0
LWPOLYLINE
  5
185
100
AcDbEntity
  8
0
 62
7
100
AcDbPolyline
 90
2
 70
0
 10
367.889536
 20
59.752687
 30
0.0
 10
367.828124
 20
60.218551
 30
0.0
  0
LWPOLYLINE
  5
186
100
AcDbEntity
  8
0
 62
7
100
AcDbPolyline
 90
2
 70
0
 10
366.089269
 20
61.552447
 30
0.0
 10
365.623404
 20
61.491035
 30
0.0
  0
LWPOLYLINE
  5
187
100
AcDbEntity
  8
0
 62
7
100
AcDbPolyline
 90
3
 70
0
 10
367.648490
 20
58.852652
 30
0.0
 10
367.828266
 20
59.286795
 30
0.0
 10
367.889536
 20
59.752687
 30
0.0
  0
LWPOLYLINE
  5
188
100
AcDbEntity
  8
0
 62
7
100
AcDbPolyline
 90
2
 70
0
 10
357.658811
 20
40.673816
 30
0.0
 10
357.372722
 20
41.046575
 30
0.0
  0
LWPOLYLINE
  5
189
100
AcDbEntity
  8
0
 62
7
100
AcDbPolyline
 90
2
 70
0
 10
357.838841
 20
39.307973
 30
0.0
 10
357.900111
 20
39.773837
 30
0.0
  0
LWPOLYLINE
  5
18a
100
AcDbEntity
  8
0
 62
7
100
AcDbPolyline
 90
4
 70
0
 10
354.827134
 20
41.046208
 30
0.0
 10
354.541130
 20
40.673364
 30
0.0
 10
354.361383
 20
40.239222
 30
0.0
 10
354.300113
 20
39.773329
 30
0.0
  0
LWPOLYLINE
  5
18b
100
AcDbEntity
  8
0
 62
7
100
AcDbPolyline
 90
9
 70
0
 10
354.827501
 20
38.500620
 30
0.0
 10
355.200317
 20
38.214616
 30
0.0
 10
355.634488
 20
38.034869
 30
0.0
 10
356.100352
 20
37.973598
 30
0.0
 10
356.566216
 20
38.034982
 30
0.0
 10
357.000330
 20
38.214870
 30
0.0
 10
357.373089
 20
38.500987
 30
0.0
 10
357.659065
 20
38.873803
 30
0.0
 10
357.838841
 20
39.307973
 30
0.0
  0
LWPOLYLINE
  5
18c
100
AcDbEntity
  8
0
 62
7
100
AcDbPolyline
 90
4
 70
0
 10
356.099844
 20
41.573597
 30
0.0
 10
355.633980
 20
41.512185
 30
0.0
 10
355.199894
 20
41.332297
 30
0.0
 10
354.827134
 20
41.046208
 30
0.0
  0
LWPOLYLINE
  5
18d
100
AcDbEntity
  8
0
 62
7
100
AcDbPolyline
 90
4
 70
0
 10
354.300113
 20
39.773329
 30
0.0
 10
354.361496
 20
39.307465
 30
0.0
 10
354.541384
 20
38.873379
 30
0.0
 10
354.827501
 20
38.500620
 30
0.0
  0
LWPOLYLINE
  5
18e
100
AcDbEntity
  8
0
 62
7
100
AcDbPolyline
 90
3
 70
0
 10
357.900111
 20
39.773837
 30
0.0
 10
357.838700
 20
40.239702
 30
0.0
 10
357.658811
 20
40.673816
 30
0.0
  0
LWPOLYLINE
  5
18f
100
AcDbEntity
  8
0
 62
7
100
AcDbPolyline
 90
4
 70
0
 10
357.372722
 20
41.046575
 30
0.0
 10
356.999879
 20
41.332551
 30
0.0
 10
356.565736
 20
41.512326
 30
0.0
 10
356.099844
 20
41.573597
 30
0.0
  0
LWPOLYLINE
  5
190
100
AcDbEntity
  8
0
 62
7
100
AcDbPolyline
 90
25
 70
0
 10
334.895754
 20
44.806198
 30
0.0
 10
334.834456
 20
45.271893
 30
0.0
 10
334.654708
 20
45.705838
 30
0.0
 10
334.368761
 20
46.078484
 30
0.0
 10
333.996115
 20
46.364404
 30
0.0
 10
333.562170
 20
46.544151
 30
0.0
 10
333.096475
 20
46.605478
 30
0.0
 10
332.630808
 20
46.544151
 30
0.0
 10
332.196835
 20
46.364404
 30
0.0
 10
331.824189
 20
46.078484
 30
0.0
 10
331.538270
 20
45.705838
 30
0.0
 10
331.358522
 20
45.271893
 30
0.0
 10
331.297195
 20
44.806198
 30
0.0
 10
331.358522
 20
44.340503
 30
0.0
 10
331.538270
 20
43.906559
 30
0.0
 10
331.824189
 20
43.533912
 30
0.0
 10
332.196835
 20
43.247965
 30
0.0
 10
332.630808
 20
43.068217
 30
0.0
 10
333.096475
 20
43.006919
 30
0.0
 10
333.562170
 20
43.068217
 30
0.0
 10
333.996115
 20
43.247965
 30
0.0
 10
334.368761
 20
43.533912
 30
0.0
 10
334.654708
 20
43.906559
 30
0.0
 10
334.834456
 20
44.340503
 30
0.0
 10
334.895754
 20
44.806198
 30
0.0
  0
LWPOLYLINE
  5
191
100
AcDbEntity
  8
0
 62
7
100
AcDbPolyline
 90
7
 70
0
 10
16.531017
 20
61.565626
 30
0.0
 10
16.065152
 20
61.626869
 30
0.0
 10
15.599288
 20
61.565485
 30
0.0
 10
15.165174
 20
61.385597
 30
0.0
 10
14.792415
 20
61.099480
 30
0.0
 10
14.506439
 20
60.726664
 30
0.0
 10
14.326663
 20
60.292494
 30
0.0
  0
LWPOLYLINE
  5
192
100
AcDbEntity
  8
0
 62
7
100
AcDbPolyline
 90
4
 70
0
 10
17.338370
 20
58.554259
 30
0.0
 10
17.624374
 20
58.927103
 30
0.0
 10
17.804121
 20
59.361245
 30
0.0
 10
17.865391
 20
59.827137
 30
0.0
  0
LWPOLYLINE
  5
193
100
AcDbEntity
  8
0
 62
7
100
AcDbPolyline
 90
4
 70
0
 10
14.326663
 20
60.292494
 30
0.0
 10
14.265393
 20
59.826629
 30
0.0
 10
14.326805
 20
59.360765
 30
0.0
 10
14.506693
 20
58.926651
 30
0.0
  0
LWPOLYLINE
  5
194
100
AcDbEntity
  8
0
 62
7
100
AcDbPolyline
 90
2
 70
0
 10
17.804008
 20
60.293002
 30
0.0
 10
17.624120
 20
60.727116
 30
0.0
  0
LWPOLYLINE
  5
195
100
AcDbEntity
  8
0
 62
7
100
AcDbPolyline
 90
2
 70
0
 10
17.865391
 20
59.827137
 30
0.0
 10
17.804008
 20
60.293002
 30
0.0
  0
LWPOLYLINE
  5
196
100
AcDbEntity
  8
0
 62
7
100
AcDbPolyline
 90
8
 70
0
 10
14.506693
 20
58.926651
 30
0.0
 10
14.792782
 20
58.553920
 30
0.0
 10
15.165625
 20
58.267916
 30
0.0
 10
15.599768
 20
58.088141
 30
0.0
 10
16.065660
 20
58.026870
 30
0.0
 10
16.531525
 20
58.088282
 30
0.0
 10
16.965611
 20
58.268170
 30
0.0
 10
17.338370
 20
58.554259
 30
0.0
  0
LWPOLYLINE
  5
197
100
AcDbEntity
  8
0
 62
7
100
AcDbPolyline
 90
2
 70
0
 10
16.965187
 20
61.385851
 30
0.0
 10
16.531017
 20
61.565626
 30
0.0
  0
LWPOLYLINE
  5
198
100
AcDbEntity
  8
0
 62
7
100
AcDbPolyline
 90
2
 70
0
 10
17.338003
 20
61.099847
 30
0.0
 10
16.965187
 20
61.385851
 30
0.0
  0
LWPOLYLINE
  5
199
100
AcDbEntity
  8
0
 62
7
100
AcDbPolyline
 90
2
 70
0
 10
17.624120
 20
60.727116
 30
0.0
 10
17.338003
 20
61.099847
 30
0.0
  0
LWPOLYLINE
  5
19a
100
AcDbEntity
  8
0
 62
7
100
AcDbPolyline
 90
4
 70
0
 10
35.613123
 20
61.565485
 30
0.0
 10
35.179023
 20
61.385597
 30
0.0
 10
34.806272
 20
61.099480
 30
0.0
 10
34.520271
 20
60.726664
 30
0.0
  0
LWPOLYLINE
  5
19b
100
AcDbEntity
  8
0
 62
7
100
AcDbPolyline
 90
4
 70
0
 10
37.879246
 20
59.827137
 30
0.0
 10
37.817846
 20
60.293002
 30
0.0
 10
37.637963
 20
60.727116
 30
0.0
 10
37.351857
 20
61.099847
 30
0.0
  0
LWPOLYLINE
  5
19c
100
AcDbEntity
  8
0
 62
7
100
AcDbPolyline
 90
3
 70
0
 10
36.544871
 20
61.565626
 30
0.0
 10
36.078990
 20
61.626869
 30
0.0
 10
35.613123
 20
61.565485
 30
0.0
  0
LWPOLYLINE
  5
19d
100
AcDbEntity
  8
0
 62
7
100
AcDbPolyline
 90
7
 70
0
 10
34.806636
 20
58.553920
 30
0.0
 10
35.179468
 20
58.267916
 30
0.0
 10
35.613622
 20
58.088141
 30
0.0
 10
36.079503
 20
58.026870
 30
0.0
 10
36.545370
 20
58.088282
 30
0.0
 10
36.979471
 20
58.268170
 30
0.0
 10
37.352221
 20
58.554259
 30
0.0
  0
LWPOLYLINE
  5
19e
100
AcDbEntity
  8
0
 62
7
100
AcDbPolyline
 90
3
 70
0
 10
37.351857
 20
61.099847
 30
0.0
 10
36.979025
 20
61.385851
 30
0.0
 10
36.544871
 20
61.565626
 30
0.0
  0
LWPOLYLINE
  5
19f
100
AcDbEntity
  8
0
 62
7
100
AcDbPolyline
 90
6
 70
0
 10
34.520271
 20
60.726664
 30
0.0
 10
34.340509
 20
60.292494
 30
0.0
 10
34.279239
 20
59.826629
 30
0.0
 10
34.340650
 20
59.360765
 30
0.0
 10
34.520530
 20
58.926651
 30
0.0
 10
34.806636
 20
58.553920
 30
0.0
  0
LWPOLYLINE
  5
1a0
100
AcDbEntity
  8
0
 62
7
100
AcDbPolyline
 90
4
 70
0
 10
37.352221
 20
58.554259
 30
0.0
 10
37.638222
 20
58.927103
 30
0.0
 10
37.817978
 20
59.361245
 30
0.0
 10
37.879246
 20
59.827137
 30
0.0
  0
LWPOLYLINE
  5
1a1
100
AcDbEntity
  8
0
 62
7
100
AcDbPolyline
 90
2
 70
0
 10
27.631042
 20
40.713271
 30
0.0
 10
27.344925
 20
41.086001
 30
0.0
  0
LWPOLYLINE
  5
1a2
100
AcDbEntity
  8
0
 62
7
100
AcDbPolyline
 90
2
 70
0
 10
27.810931
 20
40.279156
 30
0.0
 10
27.631042
 20
40.713271
 30
0.0
  0
LWPOLYLINE
  5
1a3
100
AcDbEntity
  8
0
 62
7
100
AcDbPolyline
 90
2
 70
0
 10
27.872314
 20
39.813292
 30
0.0
 10
27.810931
 20
40.279156
 30
0.0
  0
LWPOLYLINE
  5
1a4
100
AcDbEntity
  8
0
 62
7
100
AcDbPolyline
 90
2
 70
0
 10
27.344925
 20
41.086001
 30
0.0
 10
26.972110
 20
41.372005
 30
0.0
  0
LWPOLYLINE
  5
1a5
100
AcDbEntity
  8
0
 62
7
100
AcDbPolyline
 90
15
 70
0
 10
24.513362
 20
40.712819
 30
0.0
 10
24.333586
 20
40.278677
 30
0.0
 10
24.272316
 20
39.812784
 30
0.0
 10
24.333727
 20
39.346920
 30
0.0
 10
24.513616
 20
38.912806
 30
0.0
 10
24.799704
 20
38.540075
 30
0.0
 10
25.172548
 20
38.254071
 30
0.0
 10
25.606691
 20
38.074295
 30
0.0
 10
26.072583
 20
38.013025
 30
0.0
 10
26.538447
 20
38.074436
 30
0.0
 10
26.972533
 20
38.254325
 30
0.0
 10
27.345292
 20
38.540413
 30
0.0
 10
27.631296
 20
38.913257
 30
0.0
 10
27.811044
 20
39.347400
 30
0.0
 10
27.872314
 20
39.813292
 30
0.0
  0
LWPOLYLINE
  5
1a6
100
AcDbEntity
  8
0
 62
7
100
AcDbPolyline
 90
7
 70
0
 10
26.972110
 20
41.372005
 30
0.0
 10
26.537939
 20
41.551781
 30
0.0
 10
26.072075
 20
41.613023
 30
0.0
 10
25.606211
 20
41.551640
 30
0.0
 10
25.172097
 20
41.371751
 30
0.0
 10
24.799337
 20
41.085635
 30
0.0
 10
24.513362
 20
40.712819
 30
0.0
  0
LWPOLYLINE
  5
1a7
100
AcDbEntity
  8
0
 62
7
100
AcDbPolyline
 90
6
 70
0
 10
47.807081
 20
43.543536
 30
0.0
 10
48.179917
 20
43.257532
 30
0.0
 10
48.614068
 20
43.077757
 30
0.0
 10
49.079949
 20
43.016486
 30
0.0
 10
49.545816
 20
43.077898
 30
0.0
 10
49.979916
 20
43.257786
 30
0.0
  0
LWPOLYLINE
  5
1a8
100
AcDbEntity
  8
0
 62
7
100
AcDbPolyline
 90
2
 70
0
 10
50.818291
 20
45.282618
 30
0.0
 10
50.638408
 20
45.716732
 30
0.0
  0
LWPOLYLINE
  5
1a9
100
AcDbEntity
  8
0
 62
7
100
AcDbPolyline
 90
6
 70
0
 10
49.979470
 20
46.375467
 30
0.0
 10
49.545319
 20
46.555242
 30
0.0
 10
49.079435
 20
46.616485
 30
0.0
 10
48.613568
 20
46.555101
 30
0.0
 10
48.179468
 20
46.375213
 30
0.0
 10
47.806717
 20
46.089096
 30
0.0
  0
LWPOLYLINE
  5
1aa
100
AcDbEntity
  8
0
 62
7
100
AcDbPolyline
 90
2
 70
0
 10
50.879691
 20
44.816753
 30
0.0
 10
50.818291
 20
45.282618
 30
0.0
  0
LWPOLYLINE
  5
1ab
100
AcDbEntity
  8
0
 62
7
100
AcDbPolyline
 90
5
 70
0
 10
49.979916
 20
43.257786
 30
0.0
 10
50.352666
 20
43.543875
 30
0.0
 10
50.638668
 20
43.916719
 30
0.0
 10
50.818426
 20
44.350861
 30
0.0
 10
50.879691
 20
44.816753
 30
0.0
  0
LWPOLYLINE
  5
1ac
100
AcDbEntity
  8
0
 62
7
100
AcDbPolyline
 90
7
 70
0
 10
47.806717
 20
46.089096
 30
0.0
 10
47.520719
 20
45.716280
 30
0.0
 10
47.340960
 20
45.282110
 30
0.0
 10
47.279693
 20
44.816245
 30
0.0
 10
47.341093
 20
44.350381
 30
0.0
 10
47.520976
 20
43.916267
 30
0.0
 10
47.807081
 20
43.543536
 30
0.0
  0
LWPOLYLINE
  5
1ad
100
AcDbEntity
  8
0
 62
7
100
AcDbPolyline
 90
3
 70
0
 10
50.638408
 20
45.716732
 30
0.0
 10
50.352302
 20
46.089463
 30
0.0
 10
49.979470
 20
46.375467
 30
0.0
  0
LWPOLYLINE
  5
1ae
100
AcDbEntity
  8
0
 62
7
100
AcDbPolyline
 90
4
 70
0
 10
48.656116
 20
203.064313
 30
0.0
 10
49.122000
 20
203.003043
 30
0.0
 10
49.587864
 20
203.064454
 30
0.0
 10
50.021964
 20
203.244343
 30
0.0
  0
LWPOLYLINE
  5
1af
100
AcDbEntity
  8
0
 62
7
100
AcDbPolyline
 90
4
 70
0
 10
49.121483
 20
206.603041
 30
0.0
 10
48.655616
 20
206.541658
 30
0.0
 10
48.221519
 20
206.361769
 30
0.0
 10
47.848766
 20
206.075653
 30
0.0
  0
LWPOLYLINE
  5
1b0
100
AcDbEntity
  8
0
 62
7
100
AcDbPolyline
 90
2
 70
0
 10
50.860339
 20
205.269174
 30
0.0
 10
50.680456
 20
205.703289
 30
0.0
  0
LWPOLYLINE
  5
1b1
100
AcDbEntity
  8
0
 62
7
100
AcDbPolyline
 90
3
 70
0
 10
47.562767
 20
205.702837
 30
0.0
 10
47.383009
 20
205.268666
 30
0.0
 10
47.321741
 20
204.802802
 30
0.0
  0
LWPOLYLINE
  5
1b2
100
AcDbEntity
  8
0
 62
7
100
AcDbPolyline
 90
3
 70
0
 10
50.021964
 20
203.244343
 30
0.0
 10
50.394715
 20
203.530431
 30
0.0
 10
50.680716
 20
203.903275
 30
0.0
  0
LWPOLYLINE
  5
1b3
100
AcDbEntity
  8
0
 62
7
100
AcDbPolyline
 90
3
 70
0
 10
47.383141
 20
204.336938
 30
0.0
 10
47.563024
 20
203.902824
 30
0.0
 10
47.849132
 20
203.530093
 30
0.0
  0
LWPOLYLINE
  5
1b4
100
AcDbEntity
  8
0
 62
7
100
AcDbPolyline
 90
2
 70
0
 10
47.321741
 20
204.802802
 30
0.0
 10
47.383141
 20
204.336938
 30
0.0
  0
LWPOLYLINE
  5
1b5
100
AcDbEntity
  8
0
 62
7
100
AcDbPolyline
 90
2
 70
0
 10
50.021518
 20
206.362023
 30
0.0
 10
49.587367
 20
206.541799
 30
0.0
  0
LWPOLYLINE
  5
1b6
100
AcDbEntity
  8
0
 62
7
100
AcDbPolyline
 90
2
 70
0
 10
47.848766
 20
206.075653
 30
0.0
 10
47.562767
 20
205.702837
 30
0.0
  0
LWPOLYLINE
  5
1b7
100
AcDbEntity
  8
0
 62
7
100
AcDbPolyline
 90
2
 70
0
 10
50.394351
 20
206.076019
 30
0.0
 10
50.021518
 20
206.362023
 30
0.0
  0
LWPOLYLINE
  5
1b8
100
AcDbEntity
  8
0
 62
7
100
AcDbPolyline
 90
2
 70
0
 10
50.680456
 20
205.703289
 30
0.0
 10
50.394351
 20
206.076019
 30
0.0
  0
LWPOLYLINE
  5
1b9
100
AcDbEntity
  8
0
 62
7
100
AcDbPolyline
 90
2
 70
0
 10
49.587367
 20
206.541799
 30
0.0
 10
49.121483
 20
206.603041
 30
0.0
  0
LWPOLYLINE
  5
1ba
100
AcDbEntity
  8
0
 62
7
100
AcDbPolyline
 90
2
 70
0
 10
50.921742
 20
204.803310
 30
0.0
 10
50.860339
 20
205.269174
 30
0.0
  0
LWPOLYLINE
  5
1bb
100
AcDbEntity
  8
0
 62
7
100
AcDbPolyline
 90
3
 70
0
 10
47.849132
 20
203.530093
 30
0.0
 10
48.221965
 20
203.244089
 30
0.0
 10
48.656116
 20
203.064313
 30
0.0
  0
LWPOLYLINE
  5
1bc
100
AcDbEntity
  8
0
 62
7
100
AcDbPolyline
 90
3
 70
0
 10
50.680716
 20
203.903275
 30
0.0
 10
50.860475
 20
204.337418
 30
0.0
 10
50.921742
 20
204.803310
 30
0.0
  0
LWPOLYLINE
  5
1bd
100
AcDbEntity
  8
0
 62
7
100
AcDbPolyline
 90
5
 70
0
 10
16.101220
 20
378.019649
 30
0.0
 10
16.567085
 20
378.081049
 30
0.0
 10
17.001171
 20
378.260932
 30
0.0
 10
17.373930
 20
378.547037
 30
0.0
 10
17.659934
 20
378.919870
 30
0.0
  0
LWPOLYLINE
  5
1be
100
AcDbEntity
  8
0
 62
7
100
AcDbPolyline
 90
3
 70
0
 10
14.362223
 20
380.285272
 30
0.0
 10
14.300953
 20
379.819391
 30
0.0
 10
14.362365
 20
379.353524
 30
0.0
  0
LWPOLYLINE
  5
1bf
100
AcDbEntity
  8
0
 62
7
100
AcDbPolyline
 90
2
 70
0
 10
15.200734
 20
381.378364
 30
0.0
 10
14.827975
 20
381.092258
 30
0.0
  0
LWPOLYLINE
  5
1c0
100
AcDbEntity
  8
0
 62
7
100
AcDbPolyline
 90
2
 70
0
 10
16.566577
 20
381.558382
 30
0.0
 10
16.100712
 20
381.619647
 30
0.0
  0
LWPOLYLINE
  5
1c1
100
AcDbEntity
  8
0
 62
7
100
AcDbPolyline
 90
2
 70
0
 10
17.000719
 20
381.378624
 30
0.0
 10
16.566577
 20
381.558382
 30
0.0
  0
LWPOLYLINE
  5
1c2
100
AcDbEntity
  8
0
 62
7
100
AcDbPolyline
 90
3
 70
0
 10
17.659934
 20
378.919870
 30
0.0
 10
17.839681
 20
379.354024
 30
0.0
 10
17.900951
 20
379.819905
 30
0.0
  0
LWPOLYLINE
  5
1c3
100
AcDbEntity
  8
0
 62
7
100
AcDbPolyline
 90
3
 70
0
 10
14.362365
 20
379.353524
 30
0.0
 10
14.542253
 20
378.919424
 30
0.0
 10
14.828342
 20
378.546673
 30
0.0
  0
LWPOLYLINE
  5
1c4
100
AcDbEntity
  8
0
 62
7
100
AcDbPolyline
 90
3
 70
0
 10
16.100712
 20
381.619647
 30
0.0
 10
15.634820
 20
381.558247
 30
0.0
 10
15.200734
 20
381.378364
 30
0.0
  0
LWPOLYLINE
  5
1c5
100
AcDbEntity
  8
0
 62
7
100
AcDbPolyline
 90
3
 70
0
 10
14.827975
 20
381.092258
 30
0.0
 10
14.541971
 20
380.719423
 30
0.0
 10
14.362223
 20
380.285272
 30
0.0
  0
LWPOLYLINE
  5
1c6
100
AcDbEntity
  8
0
 62
7
100
AcDbPolyline
 90
2
 70
0
 10
17.373563
 20
381.092623
 30
0.0
 10
17.000719
 20
381.378624
 30
0.0
  0
LWPOLYLINE
  5
1c7
100
AcDbEntity
  8
0
 62
7
100
AcDbPolyline
 90
2
 70
0
 10
17.659680
 20
380.719872
 30
0.0
 10
17.373563
 20
381.092623
 30
0.0
  0
LWPOLYLINE
  5
1c8
100
AcDbEntity
  8
0
 62
7
100
AcDbPolyline
 90
2
 70
0
 10
17.839568
 20
380.285772
 30
0.0
 10
17.659680
 20
380.719872
 30
0.0
  0
LWPOLYLINE
  5
1c9
100
AcDbEntity
  8
0
 62
7
100
AcDbPolyline
 90
2
 70
0
 10
17.900951
 20
379.819905
 30
0.0
 10
17.839568
 20
380.285772
 30
0.0
  0
LWPOLYLINE
  5
1ca
100
AcDbEntity
  8
0
 62
7
100
AcDbPolyline
 90
4
 70
0
 10
14.828342
 20
378.546673
 30
0.0
 10
15.201185
 20
378.260672
 30
0.0
 10
15.635328
 20
378.080916
 30
0.0
 10
16.101220
 20
378.019649
 30
0.0
  0
LWPOLYLINE
  5
1cb
100
AcDbEntity
  8
0
 62
7
100
AcDbPolyline
 90
6
 70
0
 10
34.846429
 20
381.092258
 30
0.0
 10
34.560431
 20
380.719423
 30
0.0
 10
34.380672
 20
380.285272
 30
0.0
 10
34.319399
 20
379.819391
 30
0.0
 10
34.380805
 20
379.353524
 30
0.0
 10
34.560688
 20
378.919424
 30
0.0
  0
LWPOLYLINE
  5
1cc
100
AcDbEntity
  8
0
 62
7
100
AcDbPolyline
 90
2
 70
0
 10
36.585031
 20
381.558382
 30
0.0
 10
36.119147
 20
381.619647
 30
0.0
  0
LWPOLYLINE
  5
1cd
100
AcDbEntity
  8
0
 62
7
100
AcDbPolyline
 90
5
 70
0
 10
37.019628
 20
378.260932
 30
0.0
 10
37.392379
 20
378.547037
 30
0.0
 10
37.678380
 20
378.919870
 30
0.0
 10
37.858138
 20
379.354024
 30
0.0
 10
37.919403
 20
379.819905
 30
0.0
  0
LWPOLYLINE
  5
1ce
100
AcDbEntity
  8
0
 62
7
100
AcDbPolyline
 90
2
 70
0
 10
37.019182
 20
381.378624
 30
0.0
 10
36.585031
 20
381.558382
 30
0.0
  0
LWPOLYLINE
  5
1cf
100
AcDbEntity
  8
0
 62
7
100
AcDbPolyline
 90
2
 70
0
 10
36.119147
 20
381.619647
 30
0.0
 10
35.653283
 20
381.558247
 30
0.0
  0
LWPOLYLINE
  5
1d0
100
AcDbEntity
  8
0
 62
7
100
AcDbPolyline
 90
5
 70
0
 10
37.919403
 20
379.819905
 30
0.0
 10
37.858006
 20
380.285772
 30
0.0
 10
37.678123
 20
380.719872
 30
0.0
 10
37.392015
 20
381.092623
 30
0.0
 10
37.019182
 20
381.378624
 30
0.0
  0
LWPOLYLINE
  5
1d1
100
AcDbEntity
  8
0
 62
7
100
AcDbPolyline
 90
7
 70
0
 10
34.560688
 20
378.919424
 30
0.0
 10
34.846793
 20
378.546673
 30
0.0
 10
35.219629
 20
378.260672
 30
0.0
 10
35.653780
 20
378.080916
 30
0.0
 10
36.119664
 20
378.019649
 30
0.0
 10
36.585528
 20
378.081049
 30
0.0
 10
37.019628
 20
378.260932
 30
0.0
  0
LWPOLYLINE
  5
1d2
100
AcDbEntity
  8
0
 62
7
100
AcDbPolyline
 90
3
 70
0
 10
35.653283
 20
381.558247
 30
0.0
 10
35.219183
 20
381.378364
 30
0.0
 10
34.846429
 20
381.092258
 30
0.0
  0
LWPOLYLINE
  5
1d3
100
AcDbEntity
  8
0
 62
7
100
AcDbPolyline
 90
2
 70
0
 10
50.394351
 20
361.074174
 30
0.0
 10
50.021518
 20
361.360175
 30
0.0
  0
LWPOLYLINE
  5
1d4
100
AcDbEntity
  8
0
 62
7
100
AcDbPolyline
 90
6
 70
0
 10
47.563024
 20
358.900976
 30
0.0
 10
47.849132
 20
358.528225
 30
0.0
 10
48.221965
 20
358.242224
 30
0.0
 10
48.656116
 20
358.062468
 30
0.0
 10
49.122000
 20
358.001200
 30
0.0
 10
49.587864
 20
358.062601
 30
0.0
  0
LWPOLYLINE
  5
1d5
100
AcDbEntity
  8
0
 62
7
100
AcDbPolyline
 90
10
 70
0
 10
49.587367
 20
361.539934
 30
0.0
 10
49.121483
 20
361.601199
 30
0.0
 10
48.655616
 20
361.539798
 30
0.0
 10
48.221519
 20
361.359916
 30
0.0
 10
47.848766
 20
361.073810
 30
0.0
 10
47.562767
 20
360.700978
 30
0.0
 10
47.383009
 20
360.266824
 30
0.0
 10
47.321741
 20
359.800943
 30
0.0
 10
47.383141
 20
359.335076
 30
0.0
 10
47.563024
 20
358.900976
 30
0.0
  0
LWPOLYLINE
  5
1d6
100
AcDbEntity
  8
0
 62
7
100
AcDbPolyline
 90
2
 70
0
 10
50.680456
 20
360.701423
 30
0.0
 10
50.394351
 20
361.074174
 30
0.0
  0
LWPOLYLINE
  5
1d7
100
AcDbEntity
  8
0
 62
7
100
AcDbPolyline
 90
2
 70
0
 10
50.860339
 20
360.267323
 30
0.0
 10
50.680456
 20
360.701423
 30
0.0
  0
LWPOLYLINE
  5
1d8
100
AcDbEntity
  8
0
 62
7
100
AcDbPolyline
 90
2
 70
0
 10
50.921742
 20
359.801456
 30
0.0
 10
50.860339
 20
360.267323
 30
0.0
  0
LWPOLYLINE
  5
1d9
100
AcDbEntity
  8
0
 62
7
100
AcDbPolyline
 90
6
 70
0
 10
49.587864
 20
358.062601
 30
0.0
 10
50.021964
 20
358.242483
 30
0.0
 10
50.394715
 20
358.528589
 30
0.0
 10
50.680716
 20
358.901424
 30
0.0
 10
50.860475
 20
359.335575
 30
0.0
 10
50.921742
 20
359.801456
 30
0.0
  0
LWPOLYLINE
  5
1da
100
AcDbEntity
  8
0
 62
7
100
AcDbPolyline
 90
2
 70
0
 10
50.021518
 20
361.360175
 30
0.0
 10
49.587367
 20
361.539934
 30
0.0
  0
LWPOLYLINE
  5
1db
100
AcDbEntity
  8
0
 62
7
100
AcDbPolyline
 90
3
 70
0
 10
176.962935
 20
215.371573
 30
0.0
 10
176.528784
 20
215.551320
 30
0.0
 10
176.062900
 20
215.612591
 30
0.0
  0
LWPOLYLINE
  5
1dc
100
AcDbEntity
  8
0
 62
7
100
AcDbPolyline
 90
2
 70
0
 10
174.324558
 20
213.346459
 30
0.0
 10
174.504440
 20
212.912373
 30
0.0
  0
LWPOLYLINE
  5
1dd
100
AcDbEntity
  8
0
 62
7
100
AcDbPolyline
 90
2
 70
0
 10
174.790549
 20
212.539614
 30
0.0
 10
175.163381
 20
212.253610
 30
0.0
  0
LWPOLYLINE
  5
1de
100
AcDbEntity
  8
0
 62
7
100
AcDbPolyline
 90
2
 70
0
 10
177.863159
 20
213.812831
 30
0.0
 10
177.801758
 20
214.278724
 30
0.0
  0
LWPOLYLINE
  5
1df
100
AcDbEntity
  8
0
 62
7
100
AcDbPolyline
 90
2
 70
0
 10
176.062900
 20
215.612591
 30
0.0
 10
176.026143
 20
215.607793
 30
0.0
  0
LWPOLYLINE
  5
1e0
100
AcDbEntity
  8
0
 62
7
100
AcDbPolyline
 90
2
 70
0
 10
175.597035
 20
215.551179
 30
0.0
 10
175.162935
 20
215.371291
 30
0.0
  0
LWPOLYLINE
  5
1e1
100
AcDbEntity
  8
0
 62
7
100
AcDbPolyline
 90
3
 70
0
 10
174.790185
 20
215.085202
 30
0.0
 10
174.504183
 20
214.712358
 30
0.0
 10
174.324425
 20
214.278216
 30
0.0
  0
LWPOLYLINE
  5
1e2
100
AcDbEntity
  8
0
 62
7
100
AcDbPolyline
 90
2
 70
0
 10
177.335767
 20
215.085569
 30
0.0
 10
176.962935
 20
215.371573
 30
0.0
  0
LWPOLYLINE
  5
1e3
100
AcDbEntity
  8
0
 62
7
100
AcDbPolyline
 90
2
 70
0
 10
177.801758
 20
214.278724
 30
0.0
 10
177.621875
 20
214.712810
 30
0.0
  0
LWPOLYLINE
  5
1e4
100
AcDbEntity
  8
0
 62
7
100
AcDbPolyline
 90
2
 70
0
 10
175.163381
 20
212.253610
 30
0.0
 10
175.597532
 20
212.073863
 30
0.0
  0
LWPOLYLINE
  5
1e5
100
AcDbEntity
  8
0
 62
7
100
AcDbPolyline
 90
4
 70
0
 10
176.063416
 20
212.012592
 30
0.0
 10
176.529280
 20
212.073975
 30
0.0
 10
176.963380
 20
212.253864
 30
0.0
 10
177.336131
 20
212.539981
 30
0.0
  0
LWPOLYLINE
  5
1e6
100
AcDbEntity
  8
0
 62
7
100
AcDbPolyline
 90
2
 70
0
 10
177.801891
 20
213.346967
 30
0.0
 10
177.863159
 20
213.812831
 30
0.0
  0
LWPOLYLINE
  5
1e7
100
AcDbEntity
  8
0
 62
7
100
AcDbPolyline
 90
2
 70
0
 10
602.217744
 20
339.354281
 30
0.0
 10
602.217744
 20
348.154631
 30
0.0
  0
LWPOLYLINE
  5
1e8
100
AcDbEntity
  8
0
 62
7
100
AcDbPolyline
 90
5
 70
0
 10
596.736085
 20
56.550244
 30
0.0
 10
602.217744
 20
56.550244
 30
0.0
 10
602.217744
 20
65.350590
 30
0.0
 10
596.736085
 20
65.350590
 30
0.0
 10
596.736085
 20
184.255362
 30
0.0
  0
LWPOLYLINE
  5
1e9
100
AcDbEntity
  8
0
 62
7
100
AcDbPolyline
 90
2
 70
0
 10
402.529238
 20
381.876873
 30
0.0
 10
403.100455
 20
382.705331
 30
0.0
  0
LWPOLYLINE
  5
1ea
100
AcDbEntity
  8
0
 62
7
100
AcDbPolyline
 90
2
 70
0
 10
416.299650
 20
380.912108
 30
0.0
 10
416.422106
 20
379.876789
 30
0.0
  0
LWPOLYLINE
  5
1eb
100
AcDbEntity
  8
0
 62
7
100
AcDbPolyline
 90
2
 70
0
 10
415.940522
 20
381.876873
 30
0.0
 10
416.299650
 20
380.912108
 30
0.0
  0
LWPOLYLINE
  5
1ec
100
AcDbEntity
  8
0
 62
7
100
AcDbPolyline
 90
2
 70
0
 10
398.509829
 20
207.069952
 30
0.0
 10
387.726287
 20
207.069952
 30
0.0
  0
LWPOLYLINE
  5
1ed
100
AcDbEntity
  8
0
 62
7
100
AcDbPolyline
 90
2
 70
0
 10
476.286181
 20
361.014848
 30
0.0
 10
476.681179
 20
362.076086
 30
0.0
  0
LWPOLYLINE
  5
1ee
100
AcDbEntity
  8
0
 62
7
100
AcDbPolyline
 90
2
 70
0
 10
405.642177
 20
375.876634
 30
0.0
 10
404.711860
 20
376.012936
 30
0.0
  0
LWPOLYLINE
  5
1ef
100
AcDbEntity
  8
0
 62
7
100
AcDbPolyline
 90
2
 70
0
 10
412.887668
 20
383.876951
 30
0.0
 10
413.757928
 20
383.740649
 30
0.0
  0
LWPOLYLINE
  5
1f0
100
AcDbEntity
  8
0
 62
7
100
AcDbPolyline
 90
2
 70
0
 10
405.642177
 20
383.876951
 30
0.0
 10
412.887668
 20
383.876951
 30
0.0
  0
LWPOLYLINE
  5
1f1
100
AcDbEntity
  8
0
 62
7
100
AcDbPolyline
 90
2
 70
0
 10
477.309519
 20
356.764607
 30
0.0
 10
476.681179
 20
357.675911
 30
0.0
  0
LWPOLYLINE
  5
1f2
100
AcDbEntity
  8
0
 62
7
100
AcDbPolyline
 90
2
 70
0
 10
476.151420
 20
359.876000
 30
0.0
 10
476.286181
 20
361.014848
 30
0.0
  0
LWPOLYLINE
  5
1f3
100
AcDbEntity
  8
0
 62
7
100
AcDbPolyline
 90
2
 70
0
 10
398.509829
 20
200.869708
 30
0.0
 10
403.092864
 20
200.869708
 30
0.0
  0
LWPOLYLINE
  5
1f4
100
AcDbEntity
  8
0
 62
7
100
AcDbPolyline
 90
2
 70
0
 10
525.036881
 20
389.877187
 30
0.0
 10
543.009497
 20
389.877187
 30
0.0
  0
LWPOLYLINE
  5
1f5
100
AcDbEntity
  8
0
 62
7
100
AcDbPolyline
 90
2
 70
0
 10
476.681179
 20
362.076086
 30
0.0
 10
477.309519
 20
362.987392
 30
0.0
  0
LWPOLYLINE
  5
1f6
100
AcDbEntity
  8
0
 62
7
100
AcDbPolyline
 90
2
 70
0
 10
403.092864
 20
367.081844
 30
0.0
 10
403.092864
 20
368.881914
 30
0.0
  0
LWPOLYLINE
  5
1f7
100
AcDbEntity
  8
0
 62
7
100
AcDbPolyline
 90
2
 70
0
 10
398.509829
 20
367.081844
 30
0.0
 10
387.726287
 20
367.081844
 30
0.0
  0
LWPOLYLINE
  5
1f8
100
AcDbEntity
  8
0
 62
7
100
AcDbPolyline
 90
2
 70
0
 10
398.509829
 20
368.881914
 30
0.0
 10
398.509829
 20
367.081844
 30
0.0
  0
LWPOLYLINE
  5
1f9
100
AcDbEntity
  8
0
 62
7
100
AcDbPolyline
 90
2
 70
0
 10
387.726287
 20
362.681670
 30
0.0
 10
387.726287
 20
353.125789
 30
0.0
  0
LWPOLYLINE
  5
1fa
100
AcDbEntity
  8
0
 62
7
100
AcDbPolyline
 90
2
 70
0
 10
398.509829
 20
53.778909
 30
0.0
 10
398.509829
 20
51.978851
 30
0.0
  0
LWPOLYLINE
  5
1fb
100
AcDbEntity
  8
0
 62
7
100
AcDbPolyline
 90
2
 70
0
 10
398.509829
 20
47.578662
 30
0.0
 10
398.509829
 20
45.778606
 30
0.0
  0
LWPOLYLINE
  5
1fc
100
AcDbEntity
  8
0
 62
7
100
AcDbPolyline
 90
2
 70
0
 10
406.687359
 20
47.578662
 30
0.0
 10
406.687359
 20
51.978851
 30
0.0
  0
LWPOLYLINE
  5
1fd
100
AcDbEntity
  8
0
 62
7
100
AcDbPolyline
 90
2
 70
0
 10
403.092864
 20
47.578662
 30
0.0
 10
406.687359
 20
47.578662
 30
0.0
  0
LWPOLYLINE
  5
1fe
100
AcDbEntity
  8
0
 62
7
100
AcDbPolyline
 90
2
 70
0
 10
403.092864
 20
47.578662
 30
0.0
 10
403.092864
 20
45.778606
 30
0.0
  0
LWPOLYLINE
  5
1ff
100
AcDbEntity
  8
0
 62
7
100
AcDbPolyline
 90
2
 70
0
 10
387.726287
 20
47.578662
 30
0.0
 10
398.509829
 20
47.578662
 30
0.0
  0
LWPOLYLINE
  5
200
100
AcDbEntity
  8
0
 62
7
100
AcDbPolyline
 90
2
 70
0
 10
406.687359
 20
51.978851
 30
0.0
 10
403.092864
 20
51.978851
 30
0.0
  0
LWPOLYLINE
  5
201
100
AcDbEntity
  8
0
 62
7
100
AcDbPolyline
 90
2
 70
0
 10
398.509829
 20
51.978851
 30
0.0
 10
387.726287
 20
51.978851
 30
0.0
  0
LWPOLYLINE
  5
202
100
AcDbEntity
  8
0
 62
7
100
AcDbPolyline
 90
2
 70
0
 10
403.092864
 20
53.778909
 30
0.0
 10
398.509829
 20
53.778909
 30
0.0
  0
LWPOLYLINE
  5
203
100
AcDbEntity
  8
0
 62
7
100
AcDbPolyline
 90
2
 70
0
 10
596.736085
 20
21.798926
 30
0.0
 10
461.222739
 20
21.798926
 30
0.0
  0
LWPOLYLINE
  5
204
100
AcDbEntity
  8
0
 62
7
100
AcDbPolyline
 90
2
 70
0
 10
569.093068
 20
32.627799
 30
0.0
 10
569.837514
 20
33.263501
 30
0.0
  0
LWPOLYLINE
  5
205
100
AcDbEntity
  8
0
 62
7
100
AcDbPolyline
 90
2
 70
0
 10
568.521850
 20
31.799332
 30
0.0
 10
569.093068
 20
32.627799
 30
0.0
  0
LWPOLYLINE
  5
206
100
AcDbEntity
  8
0
 62
7
100
AcDbPolyline
 90
2
 70
0
 10
578.820195
 20
33.799407
 30
0.0
 10
571.634761
 20
33.799407
 30
0.0
  0
LWPOLYLINE
  5
207
100
AcDbEntity
  8
0
 62
7
100
AcDbPolyline
 90
2
 70
0
 10
506.333929
 20
53.610696
 30
0.0
 10
507.152825
 20
52.911434
 30
0.0
  0
LWPOLYLINE
  5
208
100
AcDbEntity
  8
0
 62
7
100
AcDbPolyline
 90
2
 70
0
 10
577.774985
 20
202.606094
 30
0.0
 10
581.369509
 20
202.606094
 30
0.0
  0
LWPOLYLINE
  5
209
100
AcDbEntity
  8
0
 62
7
100
AcDbPolyline
 90
2
 70
0
 10
505.380329
 20
54.050274
 30
0.0
 10
506.333929
 20
53.610696
 30
0.0
  0
LWPOLYLINE
  5
20a
100
AcDbEntity
  8
0
 62
7
100
AcDbPolyline
 90
2
 70
0
 10
581.369509
 20
200.806036
 30
0.0
 10
585.952515
 20
200.806036
 30
0.0
  0
LWPOLYLINE
  5
20b
100
AcDbEntity
  8
0
 62
7
100
AcDbPolyline
 90
2
 70
0
 10
580.617471
 20
33.263501
 30
0.0
 10
581.361889
 20
32.627799
 30
0.0
  0
LWPOLYLINE
  5
20c
100
AcDbEntity
  8
0
 62
7
100
AcDbPolyline
 90
3
 70
0
 10
596.736085
 20
46.994383
 30
0.0
 10
585.952515
 20
46.994383
 30
0.0
 10
585.952515
 20
48.794441
 30
0.0
  0
LWPOLYLINE
  5
20d
100
AcDbEntity
  8
0
 62
7
100
AcDbPolyline
 90
2
 70
0
 10
577.774985
 20
42.594194
 30
0.0
 10
581.369509
 20
42.594194
 30
0.0
  0
LWPOLYLINE
  5
20e
100
AcDbEntity
  8
0
 62
7
100
AcDbPolyline
 90
2
 70
0
 10
581.369509
 20
40.794138
 30
0.0
 10
585.952515
 20
40.794138
 30
0.0
  0
LWPOLYLINE
  5
20f
100
AcDbEntity
  8
0
 62
7
100
AcDbPolyline
 90
2
 70
0
 10
585.952515
 20
48.794441
 30
0.0
 10
581.369509
 20
48.794441
 30
0.0
  0
LWPOLYLINE
  5
210
100
AcDbEntity
  8
0
 62
7
100
AcDbPolyline
 90
2
 70
0
 10
581.369509
 20
42.594194
 30
0.0
 10
581.369509
 20
40.794138
 30
0.0
  0
LWPOLYLINE
  5
211
100
AcDbEntity
  8
0
 62
7
100
AcDbPolyline
 90
2
 70
0
 10
585.952515
 20
42.594194
 30
0.0
 10
596.736085
 20
42.594194
 30
0.0
  0
LWPOLYLINE
  5
212
100
AcDbEntity
  8
0
 62
7
100
AcDbPolyline
 90
2
 70
0
 10
585.952515
 20
40.794138
 30
0.0
 10
585.952515
 20
42.594194
 30
0.0
  0
LWPOLYLINE
  5
213
100
AcDbEntity
  8
0
 62
7
100
AcDbPolyline
 90
2
 70
0
 10
596.736085
 20
46.994383
 30
0.0
 10
596.736085
 20
56.550244
 30
0.0
  0
LWPOLYLINE
  5
214
100
AcDbEntity
  8
0
 62
7
100
AcDbPolyline
 90
2
 70
0
 10
416.299650
 20
378.841474
 30
0.0
 10
415.940522
 20
377.876712
 30
0.0
  0
LWPOLYLINE
  5
215
100
AcDbEntity
  8
0
 62
7
100
AcDbPolyline
 90
2
 70
0
 10
569.093068
 20
26.970713
 30
0.0
 10
568.521850
 20
27.799180
 30
0.0
  0
LWPOLYLINE
  5
216
100
AcDbEntity
  8
0
 62
7
100
AcDbPolyline
 90
2
 70
0
 10
569.837514
 20
26.335011
 30
0.0
 10
569.093068
 20
26.970713
 30
0.0
  0
LWPOLYLINE
  5
217
100
AcDbEntity
  8
0
 62
7
100
AcDbPolyline
 90
2
 70
0
 10
570.704444
 20
25.935395
 30
0.0
 10
569.837514
 20
26.335011
 30
0.0
  0
LWPOLYLINE
  5
218
100
AcDbEntity
  8
0
 62
7
100
AcDbPolyline
 90
2
 70
0
 10
596.736085
 20
207.006280
 30
0.0
 10
585.952515
 20
207.006280
 30
0.0
  0
LWPOLYLINE
  5
219
100
AcDbEntity
  8
0
 62
7
100
AcDbPolyline
 90
3
 70
0
 10
580.617471
 20
26.335011
 30
0.0
 10
579.750513
 20
25.935395
 30
0.0
 10
578.820195
 20
25.799105
 30
0.0
  0
LWPOLYLINE
  5
21a
100
AcDbEntity
  8
0
 62
7
100
AcDbPolyline
 90
2
 70
0
 10
582.292234
 20
28.763939
 30
0.0
 10
581.933135
 20
27.799180
 30
0.0
  0
LWPOLYLINE
  5
21b
100
AcDbEntity
  8
0
 62
7
100
AcDbPolyline
 90
2
 70
0
 10
506.333929
 20
45.989378
 30
0.0
 10
505.380329
 20
45.549800
 30
0.0
  0
LWPOLYLINE
  5
21c
100
AcDbEntity
  8
0
 62
7
100
AcDbPolyline
 90
2
 70
0
 10
387.726287
 20
29.220140
 30
0.0
 10
387.726287
 20
19.862552
 30
0.0
  0
LWPOLYLINE
  5
21d
100
AcDbEntity
  8
0
 62
7
100
AcDbPolyline
 90
2
 70
0
 10
382.244656
 20
61.521416
 30
0.0
 10
387.726287
 20
61.521416
 30
0.0
  0
LWPOLYLINE
  5
21e
100
AcDbEntity
  8
0
 62
7
100
AcDbPolyline
 90
3
 70
0
 10
387.726287
 20
70.321765
 30
0.0
 10
382.244656
 20
70.321765
 30
0.0
 10
382.244656
 20
61.521416
 30
0.0
  0
LWPOLYLINE
  5
21f
100
AcDbEntity
  8
0
 62
7
100
AcDbPolyline
 90
5
 70
0
 10
387.726287
 20
353.125789
 30
0.0
 10
382.244656
 20
353.125789
 30
0.0
 10
382.244656
 20
344.325442
 30
0.0
 10
387.726287
 20
344.325442
 30
0.0
 10
387.726287
 20
225.420676
 30
0.0
  0
LWPOLYLINE
  5
220
100
AcDbEntity
  8
0
 62
7
100
AcDbPolyline
 90
2
 70
0
 10
398.509829
 20
202.669767
 30
0.0
 10
398.509829
 20
200.869708
 30
0.0
  0
LWPOLYLINE
  5
221
100
AcDbEntity
  8
0
 62
7
100
AcDbPolyline
 90
2
 70
0
 10
543.009497
 20
389.877187
 30
0.0
 10
547.502616
 20
384.876991
 30
0.0
  0
LWPOLYLINE
  5
222
100
AcDbEntity
  8
0
 62
7
100
AcDbPolyline
 90
2
 70
0
 10
523.239633
 20
387.877109
 30
0.0
 10
525.036881
 20
389.877187
 30
0.0
  0
LWPOLYLINE
  5
223
100
AcDbEntity
  8
0
 62
7
100
AcDbPolyline
 90
2
 70
0
 10
402.170138
 20
378.841474
 30
0.0
 10
402.047654
 20
379.876789
 30
0.0
  0
LWPOLYLINE
  5
224
100
AcDbEntity
  8
0
 62
7
100
AcDbPolyline
 90
3
 70
0
 10
602.217744
 20
225.356993
 30
0.0
 10
596.736085
 20
225.356993
 30
0.0
 10
596.736085
 20
339.354281
 30
0.0
  0
LWPOLYLINE
  5
225
100
AcDbEntity
  8
0
 62
7
100
AcDbPolyline
 90
2
 70
0
 10
602.217744
 20
193.055708
 30
0.0
 10
596.736085
 20
193.055708
 30
0.0
  0
LWPOLYLINE
  5
226
100
AcDbEntity
  8
0
 62
7
100
AcDbPolyline
 90
3
 70
0
 10
596.736085
 20
184.255362
 30
0.0
 10
602.217744
 20
184.255362
 30
0.0
 10
602.217744
 20
193.055708
 30
0.0
  0
LWPOLYLINE
  5
227
100
AcDbEntity
  8
0
 62
7
100
AcDbPolyline
 90
2
 70
0
 10
596.736085
 20
216.556638
 30
0.0
 10
596.736085
 20
207.006280
 30
0.0
  0
LWPOLYLINE
  5
228
100
AcDbEntity
  8
0
 62
7
100
AcDbPolyline
 90
2
 70
0
 10
596.736085
 20
202.606094
 30
0.0
 10
596.736085
 20
193.055708
 30
0.0
  0
LWPOLYLINE
  5
229
100
AcDbEntity
  8
0
 62
7
100
AcDbPolyline
 90
5
 70
0
 10
596.736085
 20
371.655560
 30
0.0
 10
602.217744
 20
371.655560
 30
0.0
 10
602.217744
 20
380.455909
 30
0.0
 10
596.736085
 20
380.455909
 30
0.0
 10
596.736085
 20
389.813506
 30
0.0
  0
LWPOLYLINE
  5
22a
100
AcDbEntity
  8
0
 62
7
100
AcDbPolyline
 90
2
 70
0
 10
602.217744
 20
348.154631
 30
0.0
 10
596.736085
 20
348.154631
 30
0.0
  0
LWPOLYLINE
  5
22b
100
AcDbEntity
  8
0
 62
7
100
AcDbPolyline
 90
2
 70
0
 10
596.736085
 20
339.354281
 30
0.0
 10
602.217744
 20
339.354281
 30
0.0
  0
LWPOLYLINE
  5
22c
100
AcDbEntity
  8
0
 62
7
100
AcDbPolyline
 90
2
 70
0
 10
406.687359
 20
202.669767
 30
0.0
 10
406.687359
 20
207.069952
 30
0.0
  0
LWPOLYLINE
  5
22d
100
AcDbEntity
  8
0
 62
7
100
AcDbPolyline
 90
2
 70
0
 10
547.502616
 20
342.875325
 30
0.0
 10
410.551461
 20
19.862552
 30
0.0
  0
LWPOLYLINE
  5
22e
100
AcDbEntity
  8
0
 62
7
100
AcDbPolyline
 90
2
 70
0
 10
403.092864
 20
202.669767
 30
0.0
 10
406.687359
 20
202.669767
 30
0.0
  0
LWPOLYLINE
  5
22f
100
AcDbEntity
  8
0
 62
7
100
AcDbPolyline
 90
2
 70
0
 10
403.092864
 20
202.669767
 30
0.0
 10
403.092864
 20
200.869708
 30
0.0
  0
LWPOLYLINE
  5
230
100
AcDbEntity
  8
0
 62
7
100
AcDbPolyline
 90
2
 70
0
 10
413.757928
 20
376.012936
 30
0.0
 10
412.827583
 20
375.876634
 30
0.0
  0
LWPOLYLINE
  5
231
100
AcDbEntity
  8
0
 62
7
100
AcDbPolyline
 90
2
 70
0
 10
387.726287
 20
19.862552
 30
0.0
 10
410.551461
 20
19.862552
 30
0.0
  0
LWPOLYLINE
  5
232
100
AcDbEntity
  8
0
 62
7
100
AcDbPolyline
 90
2
 70
0
 10
387.726287
 20
207.069952
 30
0.0
 10
387.726287
 20
216.620338
 30
0.0
  0
LWPOLYLINE
  5
233
100
AcDbEntity
  8
0
 62
7
100
AcDbPolyline
 90
4
 70
0
 10
387.726287
 20
38.020490
 30
0.0
 10
382.244656
 20
38.020490
 30
0.0
 10
382.244656
 20
29.220140
 30
0.0
 10
387.726287
 20
29.220140
 30
0.0
  0
LWPOLYLINE
  5
234
100
AcDbEntity
  8
0
 62
7
100
AcDbPolyline
 90
2
 70
0
 10
436.959728
 20
24.799067
 30
0.0
 10
436.959728
 20
40.399662
 30
0.0
  0
LWPOLYLINE
  5
235
100
AcDbEntity
  8
0
 62
7
100
AcDbPolyline
 90
2
 70
0
 10
581.933135
 20
31.799332
 30
0.0
 10
582.292234
 20
30.834573
 30
0.0
  0
LWPOLYLINE
  5
236
100
AcDbEntity
  8
0
 62
7
100
AcDbPolyline
 90
2
 70
0
 10
582.414719
 20
29.799257
 30
0.0
 10
582.292234
 20
28.763939
 30
0.0
  0
LWPOLYLINE
  5
237
100
AcDbEntity
  8
0
 62
7
100
AcDbPolyline
 90
2
 70
0
 10
579.750513
 20
33.663117
 30
0.0
 10
580.617471
 20
33.263501
 30
0.0
  0
LWPOLYLINE
  5
238
100
AcDbEntity
  8
0
 62
7
100
AcDbPolyline
 90
2
 70
0
 10
585.952515
 20
200.806036
 30
0.0
 10
585.952515
 20
202.606094
 30
0.0
  0
LWPOLYLINE
  5
239
100
AcDbEntity
  8
0
 62
7
100
AcDbPolyline
 90
2
 70
0
 10
398.509829
 20
45.778606
 30
0.0
 10
403.092864
 20
45.778606
 30
0.0
  0
LWPOLYLINE
  5
23a
100
AcDbEntity
  8
0
 62
7
100
AcDbPolyline
 90
2
 70
0
 10
403.092864
 20
51.978851
 30
0.0
 10
403.092864
 20
53.778909
 30
0.0
  0
LWPOLYLINE
  5
23b
100
AcDbEntity
  8
0
 62
7
100
AcDbPolyline
 90
2
 70
0
 10
387.726287
 20
47.578662
 30
0.0
 10
387.726287
 20
38.020490
 30
0.0
  0
LWPOLYLINE
  5
23c
100
AcDbEntity
  8
0
 62
7
100
AcDbPolyline
 90
2
 70
0
 10
387.726287
 20
51.978851
 30
0.0
 10
387.726287
 20
61.521416
 30
0.0
  0
LWPOLYLINE
  5
23d
100
AcDbEntity
  8
0
 62
7
100
AcDbPolyline
 90
2
 70
0
 10
406.687359
 20
362.681670
 30
0.0
 10
406.687359
 20
367.081844
 30
0.0
  0
LWPOLYLINE
  5
23e
100
AcDbEntity
  8
0
 62
7
100
AcDbPolyline
 90
2
 70
0
 10
403.092864
 20
362.681670
 30
0.0
 10
406.687359
 20
362.681670
 30
0.0
  0
LWPOLYLINE
  5
23f
100
AcDbEntity
  8
0
 62
7
100
AcDbPolyline
 90
2
 70
0
 10
403.092864
 20
362.681670
 30
0.0
 10
403.092864
 20
360.881597
 30
0.0
  0
LWPOLYLINE
  5
240
100
AcDbEntity
  8
0
 62
7
100
AcDbPolyline
 90
3
 70
0
 10
387.726287
 20
362.681670
 30
0.0
 10
398.509829
 20
362.681670
 30
0.0
 10
398.509829
 20
360.881597
 30
0.0
  0
LWPOLYLINE
  5
241
100
AcDbEntity
  8
0
 62
7
100
AcDbPolyline
 90
2
 70
0
 10
406.687359
 20
367.081844
 30
0.0
 10
403.092864
 20
367.081844
 30
0.0
  0
LWPOLYLINE
  5
242
100
AcDbEntity
  8
0
 62
7
100
AcDbPolyline
 90
2
 70
0
 10
480.105410
 20
355.475825
 30
0.0
 10
479.082044
 20
355.625758
 30
0.0
  0
LWPOLYLINE
  5
243
100
AcDbEntity
  8
0
 62
7
100
AcDbPolyline
 90
2
 70
0
 10
415.369304
 20
382.705331
 30
0.0
 10
415.940522
 20
381.876873
 30
0.0
  0
LWPOLYLINE
  5
244
100
AcDbEntity
  8
0
 62
7
100
AcDbPolyline
 90
2
 70
0
 10
414.624859
 20
383.341031
 30
0.0
 10
415.369304
 20
382.705331
 30
0.0
  0
LWPOLYLINE
  5
245
100
AcDbEntity
  8
0
 62
7
100
AcDbPolyline
 90
2
 70
0
 10
413.757928
 20
383.740649
 30
0.0
 10
414.624859
 20
383.341031
 30
0.0
  0
LWPOLYLINE
  5
246
100
AcDbEntity
  8
0
 62
7
100
AcDbPolyline
 90
2
 70
0
 10
387.726287
 20
202.669767
 30
0.0
 10
398.509829
 20
202.669767
 30
0.0
  0
LWPOLYLINE
  5
247
100
AcDbEntity
  8
0
 62
7
100
AcDbPolyline
 90
3
 70
0
 10
403.844929
 20
383.341031
 30
0.0
 10
404.711860
 20
383.740649
 30
0.0
 10
405.642177
 20
383.876951
 30
0.0
  0
LWPOLYLINE
  5
248
100
AcDbEntity
  8
0
 62
7
100
AcDbPolyline
 90
2
 70
0
 10
402.170138
 20
380.912108
 30
0.0
 10
402.529238
 20
381.876873
 30
0.0
  0
LWPOLYLINE
  5
249
100
AcDbEntity
  8
0
 62
7
100
AcDbPolyline
 90
2
 70
0
 10
478.128415
 20
363.686663
 30
0.0
 10
479.082044
 20
364.126241
 30
0.0
  0
LWPOLYLINE
  5
24a
100
AcDbEntity
  8
0
 62
7
100
AcDbPolyline
 90
2
 70
0
 10
577.774985
 20
207.006280
 30
0.0
 10
577.774985
 20
202.606094
 30
0.0
  0
LWPOLYLINE
  5
24b
100
AcDbEntity
  8
0
 62
7
100
AcDbPolyline
 90
2
 70
0
 10
436.959728
 20
66.800707
 30
0.0
 10
573.910883
 20
389.813506
 30
0.0
  0
LWPOLYLINE
  5
24c
100
AcDbEntity
  8
0
 62
7
100
AcDbPolyline
 90
2
 70
0
 10
581.369509
 20
207.006280
 30
0.0
 10
577.774985
 20
207.006280
 30
0.0
  0
LWPOLYLINE
  5
24d
100
AcDbEntity
  8
0
 62
7
100
AcDbPolyline
 90
2
 70
0
 10
581.369509
 20
207.006280
 30
0.0
 10
581.369509
 20
208.806339
 30
0.0
  0
LWPOLYLINE
  5
24e
100
AcDbEntity
  8
0
 62
7
100
AcDbPolyline
 90
2
 70
0
 10
570.704444
 20
33.663117
 30
0.0
 10
571.634761
 20
33.799407
 30
0.0
  0
LWPOLYLINE
  5
24f
100
AcDbEntity
  8
0
 62
7
100
AcDbPolyline
 90
2
 70
0
 10
596.736085
 20
389.813506
 30
0.0
 10
573.910883
 20
389.813506
 30
0.0
  0
LWPOLYLINE
  5
250
100
AcDbEntity
  8
0
 62
7
100
AcDbPolyline
 90
2
 70
0
 10
504.356963
 20
54.200227
 30
0.0
 10
505.380329
 20
54.050274
 30
0.0
  0
LWPOLYLINE
  5
251
100
AcDbEntity
  8
0
 62
7
100
AcDbPolyline
 90
2
 70
0
 10
568.521850
 20
27.799180
 30
0.0
 10
568.162750
 20
28.763939
 30
0.0
  0
LWPOLYLINE
  5
252
100
AcDbEntity
  8
0
 62
7
100
AcDbPolyline
 90
2
 70
0
 10
585.952515
 20
202.606094
 30
0.0
 10
596.736085
 20
202.606094
 30
0.0
  0
LWPOLYLINE
  5
253
100
AcDbEntity
  8
0
 62
7
100
AcDbPolyline
 90
2
 70
0
 10
508.176191
 20
48.661199
 30
0.0
 10
507.781193
 20
47.599944
 30
0.0
  0
LWPOLYLINE
  5
254
100
AcDbEntity
  8
0
 62
7
100
AcDbPolyline
 90
2
 70
0
 10
578.820195
 20
33.799407
 30
0.0
 10
579.750513
 20
33.663117
 30
0.0
  0
LWPOLYLINE
  5
255
100
AcDbEntity
  8
0
 62
7
100
AcDbPolyline
 90
2
 70
0
 10
571.574676
 20
25.799105
 30
0.0
 10
570.704444
 20
25.935395
 30
0.0
  0
LWPOLYLINE
  5
256
100
AcDbEntity
  8
0
 62
7
100
AcDbPolyline
 90
2
 70
0
 10
578.820195
 20
25.799105
 30
0.0
 10
571.574676
 20
25.799105
 30
0.0
  0
LWPOLYLINE
  5
257
100
AcDbEntity
  8
0
 62
7
100
AcDbPolyline
 90
2
 70
0
 10
507.152825
 20
52.911434
 30
0.0
 10
507.781193
 20
52.000133
 30
0.0
  0
LWPOLYLINE
  5
258
100
AcDbEntity
  8
0
 62
7
100
AcDbPolyline
 90
2
 70
0
 10
508.310924
 20
49.800039
 30
0.0
 10
508.176191
 20
48.661199
 30
0.0
  0
LWPOLYLINE
  5
259
100
AcDbEntity
  8
0
 62
7
100
AcDbPolyline
 90
2
 70
0
 10
585.952515
 20
208.806339
 30
0.0
 10
581.369509
 20
208.806339
 30
0.0
  0
LWPOLYLINE
  5
25a
100
AcDbEntity
  8
0
 62
7
100
AcDbPolyline
 90
2
 70
0
 10
459.425492
 20
19.798851
 30
0.0
 10
441.452875
 20
19.798851
 30
0.0
  0
LWPOLYLINE
  5
25b
100
AcDbEntity
  8
0
 62
7
100
AcDbPolyline
 90
2
 70
0
 10
507.781193
 20
47.599944
 30
0.0
 10
507.152825
 20
46.688640
 30
0.0
  0
LWPOLYLINE
  5
25c
100
AcDbEntity
  8
0
 62
7
100
AcDbPolyline
 90
2
 70
0
 10
581.369509
 20
202.606094
 30
0.0
 10
581.369509
 20
200.806036
 30
0.0
  0
LWPOLYLINE
  5
25d
100
AcDbEntity
  8
0
 62
7
100
AcDbPolyline
 90
2
 70
0
 10
577.774985
 20
362.097379
 30
0.0
 10
577.774985
 20
357.697205
 30
0.0
  0
LWPOLYLINE
  5
25e
100
AcDbEntity
  8
0
 62
7
100
AcDbPolyline
 90
2
 70
0
 10
581.369509
 20
362.097379
 30
0.0
 10
577.774985
 20
362.097379
 30
0.0
  0
LWPOLYLINE
  5
25f
100
AcDbEntity
  8
0
 62
7
100
AcDbPolyline
 90
2
 70
0
 10
581.369509
 20
362.097379
 30
0.0
 10
581.369509
 20
363.897449
 30
0.0
  0
LWPOLYLINE
  5
260
100
AcDbEntity
  8
0
 62
7
100
AcDbPolyline
 90
2
 70
0
 10
596.736085
 20
362.097379
 30
0.0
 10
585.952515
 20
362.097379
 30
0.0
  0
LWPOLYLINE
  5
261
100
AcDbEntity
  8
0
 62
7
100
AcDbPolyline
 90
2
 70
0
 10
577.774985
 20
357.697205
 30
0.0
 10
581.369509
 20
357.697205
 30
0.0
  0
LWPOLYLINE
  5
262
100
AcDbEntity
  8
0
 62
7
100
AcDbPolyline
 90
2
 70
0
 10
585.952515
 20
357.697205
 30
0.0
 10
596.736085
 20
357.697205
 30
0.0
  0
LWPOLYLINE
  5
263
100
AcDbEntity
  8
0
 62
7
100
AcDbPolyline
 90
2
 70
0
 10
581.369509
 20
355.897132
 30
0.0
 10
585.952515
 20
355.897132
 30
0.0
  0
LWPOLYLINE
  5
264
100
AcDbEntity
  8
0
 62
7
100
AcDbPolyline
 90
2
 70
0
 10
585.952515
 20
363.897449
 30
0.0
 10
581.369509
 20
363.897449
 30
0.0
  0
LWPOLYLINE
  5
265
100
AcDbEntity
  8
0
 62
7
100
AcDbPolyline
 90
2
 70
0
 10
581.369509
 20
357.697205
 30
0.0
 10
581.369509
 20
355.897132
 30
0.0
  0
LWPOLYLINE
  5
266
100
AcDbEntity
  8
0
 62
7
100
AcDbPolyline
 90
2
 70
0
 10
596.736085
 20
362.097379
 30
0.0
 10
596.736085
 20
371.655560
 30
0.0
  0
LWPOLYLINE
  5
267
100
AcDbEntity
  8
0
 62
7
100
AcDbPolyline
 90
2
 70
0
 10
596.736085
 20
357.697205
 30
0.0
 10
596.736085
 20
348.154631
 30
0.0
  0
LWPOLYLINE
  5
268
100
AcDbEntity
  8
0
 62
7
100
AcDbPolyline
 90
2
 70
0
 10
577.774985
 20
46.994383
 30
0.0
 10
577.774985
 20
42.594194
 30
0.0
  0
LWPOLYLINE
  5
269
100
AcDbEntity
  8
0
 62
7
100
AcDbPolyline
 90
2
 70
0
 10
581.369509
 20
46.994383
 30
0.0
 10
577.774985
 20
46.994383
 30
0.0
  0
LWPOLYLINE
  5
26a
100
AcDbEntity
  8
0
 62
7
100
AcDbPolyline
 90
2
 70
0
 10
581.369509
 20
46.994383
 30
0.0
 10
581.369509
 20
48.794441
 30
0.0
  0
LWPOLYLINE
  5
26b
100
AcDbEntity
  8
0
 62
7
100
AcDbPolyline
 90
2
 70
0
 10
585.952515
 20
355.897132
 30
0.0
 10
585.952515
 20
357.697205
 30
0.0
  0
LWPOLYLINE
  5
26c
100
AcDbEntity
  8
0
 62
7
100
AcDbPolyline
 90
2
 70
0
 10
585.952515
 20
362.097379
 30
0.0
 10
585.952515
 20
363.897449
 30
0.0
  0
LWPOLYLINE
  5
26d
100
AcDbEntity
  8
0
 62
7
100
AcDbPolyline
 90
2
 70
0
 10
403.092864
 20
207.069952
 30
0.0
 10
403.092864
 20
208.870011
 30
0.0
  0
LWPOLYLINE
  5
26e
100
AcDbEntity
  8
0
 62
7
100
AcDbPolyline
 90
2
 70
0
 10
477.309519
 20
362.987392
 30
0.0
 10
478.128415
 20
363.686663
 30
0.0
  0
LWPOLYLINE
  5
26f
100
AcDbEntity
  8
0
 62
7
100
AcDbPolyline
 90
2
 70
0
 10
416.422106
 20
379.876789
 30
0.0
 10
416.299650
 20
378.841474
 30
0.0
  0
LWPOLYLINE
  5
270
100
AcDbEntity
  8
0
 62
7
100
AcDbPolyline
 90
2
 70
0
 10
414.624859
 20
376.412554
 30
0.0
 10
413.757928
 20
376.012936
 30
0.0
  0
LWPOLYLINE
  5
271
100
AcDbEntity
  8
0
 62
7
100
AcDbPolyline
 90
2
 70
0
 10
543.009497
 20
364.276174
 30
0.0
 10
480.105410
 20
364.276174
 30
0.0
  0
LWPOLYLINE
  5
272
100
AcDbEntity
  8
0
 62
7
100
AcDbPolyline
 90
2
 70
0
 10
543.009497
 20
364.276174
 30
0.0
 10
547.502616
 20
369.276370
 30
0.0
  0
LWPOLYLINE
  5
273
100
AcDbEntity
  8
0
 62
7
100
AcDbPolyline
 90
2
 70
0
 10
543.009497
 20
355.475825
 30
0.0
 10
480.105410
 20
355.475825
 30
0.0
  0
LWPOLYLINE
  5
274
100
AcDbEntity
  8
0
 62
7
100
AcDbPolyline
 90
2
 70
0
 10
547.502616
 20
350.475626
 30
0.0
 10
547.502616
 20
342.875325
 30
0.0
  0
LWPOLYLINE
  5
275
100
AcDbEntity
  8
0
 62
7
100
AcDbPolyline
 90
2
 70
0
 10
543.009497
 20
355.475825
 30
0.0
 10
547.502616
 20
350.475626
 30
0.0
  0
LWPOLYLINE
  5
276
100
AcDbEntity
  8
0
 62
7
100
AcDbPolyline
 90
5
 70
0
 10
387.726287
 20
193.119409
 30
0.0
 10
382.244656
 20
193.119409
 30
0.0
 10
382.244656
 20
184.319062
 30
0.0
 10
387.726287
 20
184.319062
 30
0.0
 10
387.726287
 20
70.321765
 30
0.0
  0
LWPOLYLINE
  5
277
100
AcDbEntity
  8
0
 62
7
100
AcDbPolyline
 90
2
 70
0
 10
382.244656
 20
216.620338
 30
0.0
 10
387.726287
 20
216.620338
 30
0.0
  0
LWPOLYLINE
  5
278
100
AcDbEntity
  8
0
 62
7
100
AcDbPolyline
 90
3
 70
0
 10
387.726287
 20
225.420676
 30
0.0
 10
382.244656
 20
225.420676
 30
0.0
 10
382.244656
 20
216.620338
 30
0.0
  0
LWPOLYLINE
  5
279
100
AcDbEntity
  8
0
 62
7
100
AcDbPolyline
 90
2
 70
0
 10
387.726287
 20
193.119409
 30
0.0
 10
387.726287
 20
202.669767
 30
0.0
  0
LWPOLYLINE
  5
27a
100
AcDbEntity
  8
0
 62
7
100
AcDbPolyline
 90
2
 70
0
 10
403.092864
 20
368.881914
 30
0.0
 10
398.509829
 20
368.881914
 30
0.0
  0
LWPOLYLINE
  5
27b
100
AcDbEntity
  8
0
 62
7
100
AcDbPolyline
 90
2
 70
0
 10
405.642177
 20
375.876634
 30
0.0
 10
412.827583
 20
375.876634
 30
0.0
  0
LWPOLYLINE
  5
27c
100
AcDbEntity
  8
0
 62
7
100
AcDbPolyline
 90
2
 70
0
 10
478.128415
 20
356.065336
 30
0.0
 10
477.309519
 20
356.764607
 30
0.0
  0
LWPOLYLINE
  5
27d
100
AcDbEntity
  8
0
 62
7
100
AcDbPolyline
 90
2
 70
0
 10
406.687359
 20
207.069952
 30
0.0
 10
403.092864
 20
207.069952
 30
0.0
  0
LWPOLYLINE
  5
27e
100
AcDbEntity
  8
0
 62
7
100
AcDbPolyline
 90
2
 70
0
 10
479.082044
 20
355.625758
 30
0.0
 10
478.128415
 20
356.065336
 30
0.0
  0
LWPOLYLINE
  5
27f
100
AcDbEntity
  8
0
 62
7
100
AcDbPolyline
 90
2
 70
0
 10
403.092864
 20
208.870011
 30
0.0
 10
398.509829
 20
208.870011
 30
0.0
  0
LWPOLYLINE
  5
280
100
AcDbEntity
  8
0
 62
7
100
AcDbPolyline
 90
2
 70
0
 10
398.509829
 20
360.881597
 30
0.0
 10
403.092864
 20
360.881597
 30
0.0
  0
LWPOLYLINE
  5
281
100
AcDbEntity
  8
0
 62
7
100
AcDbPolyline
 90
3
 70
0
 10
403.844929
 20
376.412554
 30
0.0
 10
403.100455
 20
377.048254
 30
0.0
 10
402.529238
 20
377.876712
 30
0.0
  0
LWPOLYLINE
  5
282
100
AcDbEntity
  8
0
 62
7
100
AcDbPolyline
 90
2
 70
0
 10
403.100455
 20
382.705331
 30
0.0
 10
403.844929
 20
383.341031
 30
0.0
  0
LWPOLYLINE
  5
283
100
AcDbEntity
  8
0
 62
7
100
AcDbPolyline
 90
3
 70
0
 10
476.681179
 20
357.675911
 30
0.0
 10
476.286181
 20
358.737151
 30
0.0
 10
476.151420
 20
359.876000
 30
0.0
  0
LWPOLYLINE
  5
284
100
AcDbEntity
  8
0
 62
7
100
AcDbPolyline
 90
2
 70
0
 10
387.726287
 20
387.877109
 30
0.0
 10
387.726287
 20
367.081844
 30
0.0
  0
LWPOLYLINE
  5
285
100
AcDbEntity
  8
0
 62
7
100
AcDbPolyline
 90
2
 70
0
 10
479.082044
 20
364.126241
 30
0.0
 10
480.105410
 20
364.276174
 30
0.0
  0
LWPOLYLINE
  5
286
100
AcDbEntity
  8
0
 62
7
100
AcDbPolyline
 90
2
 70
0
 10
547.502616
 20
384.876991
 30
0.0
 10
547.502616
 20
369.276370
 30
0.0
  0
LWPOLYLINE
  5
287
100
AcDbEntity
  8
0
 62
7
100
AcDbPolyline
 90
2
 70
0
 10
402.529238
 20
377.876712
 30
0.0
 10
402.170138
 20
378.841474
 30
0.0
  0
LWPOLYLINE
  5
288
100
AcDbEntity
  8
0
 62
7
100
AcDbPolyline
 90
2
 70
0
 10
402.047654
 20
379.876789
 30
0.0
 10
402.170138
 20
380.912108
 30
0.0
  0
LWPOLYLINE
  5
289
100
AcDbEntity
  8
0
 62
7
100
AcDbPolyline
 90
2
 70
0
 10
404.711860
 20
376.012936
 30
0.0
 10
403.844929
 20
376.412554
 30
0.0
  0
LWPOLYLINE
  5
28a
100
AcDbEntity
  8
0
 62
7
100
AcDbPolyline
 90
2
 70
0
 10
398.509829
 20
208.870011
 30
0.0
 10
398.509829
 20
207.069952
 30
0.0
  0
LWPOLYLINE
  5
28b
100
AcDbEntity
  8
0
 62
7
100
AcDbPolyline
 90
2
 70
0
 10
507.152825
 20
46.688640
 30
0.0
 10
506.333929
 20
45.989378
 30
0.0
  0
LWPOLYLINE
  5
28c
100
AcDbEntity
  8
0
 62
7
100
AcDbPolyline
 90
2
 70
0
 10
568.040266
 20
29.799257
 30
0.0
 10
568.162750
 20
30.834573
 30
0.0
  0
LWPOLYLINE
  5
28d
100
AcDbEntity
  8
0
 62
7
100
AcDbPolyline
 90
2
 70
0
 10
569.837514
 20
33.263501
 30
0.0
 10
570.704444
 20
33.663117
 30
0.0
  0
LWPOLYLINE
  5
28e
100
AcDbEntity
  8
0
 62
7
100
AcDbPolyline
 90
2
 70
0
 10
441.452875
 20
45.399878
 30
0.0
 10
504.356963
 20
45.399878
 30
0.0
  0
LWPOLYLINE
  5
28f
100
AcDbEntity
  8
0
 62
7
100
AcDbPolyline
 90
2
 70
0
 10
441.452875
 20
45.399878
 30
0.0
 10
436.959728
 20
40.399662
 30
0.0
  0
LWPOLYLINE
  5
290
100
AcDbEntity
  8
0
 62
7
100
AcDbPolyline
 90
2
 70
0
 10
441.452875
 20
54.200227
 30
0.0
 10
504.356963
 20
54.200227
 30
0.0
  0
LWPOLYLINE
  5
291
100
AcDbEntity
  8
0
 62
7
100
AcDbPolyline
 90
2
 70
0
 10
436.959728
 20
59.200415
 30
0.0
 10
436.959728
 20
66.800707
 30
0.0
  0
LWPOLYLINE
  5
292
100
AcDbEntity
  8
0
 62
7
100
AcDbPolyline
 90
2
 70
0
 10
441.452875
 20
54.200227
 30
0.0
 10
436.959728
 20
59.200415
 30
0.0
  0
LWPOLYLINE
  5
293
100
AcDbEntity
  8
0
 62
7
100
AcDbPolyline
 90
3
 70
0
 10
596.736085
 20
216.556638
 30
0.0
 10
602.217744
 20
216.556638
 30
0.0
 10
602.217744
 20
225.356993
 30
0.0
  0
LWPOLYLINE
  5
294
100
AcDbEntity
  8
0
 62
7
100
AcDbPolyline
 90
2
 70
0
 10
581.361889
 20
32.627799
 30
0.0
 10
581.933135
 20
31.799332
 30
0.0
  0
LWPOLYLINE
  5
295
100
AcDbEntity
  8
0
 62
7
100
AcDbPolyline
 90
2
 70
0
 10
581.361889
 20
26.970713
 30
0.0
 10
580.617471
 20
26.335011
 30
0.0
  0
LWPOLYLINE
  5
296
100
AcDbEntity
  8
0
 62
7
100
AcDbPolyline
 90
3
 70
0
 10
507.781193
 20
52.000133
 30
0.0
 10
508.176191
 20
50.938907
 30
0.0
 10
508.310924
 20
49.800039
 30
0.0
  0
LWPOLYLINE
  5
297
100
AcDbEntity
  8
0
 62
7
100
AcDbPolyline
 90
2
 70
0
 10
568.162750
 20
30.834573
 30
0.0
 10
568.521850
 20
31.799332
 30
0.0
  0
LWPOLYLINE
  5
298
100
AcDbEntity
  8
0
 62
7
100
AcDbPolyline
 90
2
 70
0
 10
585.952515
 20
207.006280
 30
0.0
 10
585.952515
 20
208.806339
 30
0.0
  0
LWPOLYLINE
  5
299
100
AcDbEntity
  8
0
 62
7
100
AcDbPolyline
 90
2
 70
0
 10
441.452875
 20
19.798851
 30
0.0
 10
436.959728
 20
24.799067
 30
0.0
  0
LWPOLYLINE
  5
29a
100
AcDbEntity
  8
0
 62
7
100
AcDbPolyline
 90
2
 70
0
 10
461.222739
 20
21.798926
 30
0.0
 10
459.425492
 20
19.798851
 30
0.0
  0
LWPOLYLINE
  5
29b
100
AcDbEntity
  8
0
 62
7
100
AcDbPolyline
 90
2
 70
0
 10
582.292234
 20
30.834573
 30
0.0
 10
582.414719
 20
29.799257
 30
0.0
  0
LWPOLYLINE
  5
29c
100
AcDbEntity
  8
0
 62
7
100
AcDbPolyline
 90
2
 70
0
 10
581.933135
 20
27.799180
 30
0.0
 10
581.361889
 20
26.970713
 30
0.0
  0
LWPOLYLINE
  5
29d
100
AcDbEntity
  8
0
 62
7
100
AcDbPolyline
 90
2
 70
0
 10
568.162750
 20
28.763939
 30
0.0
 10
568.040266
 20
29.799257
 30
0.0
  0
LWPOLYLINE
  5
29e
100
AcDbEntity
  8
0
 62
7
100
AcDbPolyline
 90
2
 70
0
 10
596.736085
 20
21.798926
 30
0.0
 10
596.736085
 20
42.594194
 30
0.0
  0
LWPOLYLINE
  5
29f
100
AcDbEntity
  8
0
 62
7
100
AcDbPolyline
 90
2
 70
0
 10
505.380329
 20
45.549800
 30
0.0
 10
504.356963
 20
45.399878
 30
0.0
  0
LWPOLYLINE
  5
2a0
100
AcDbEntity
  8
0
 62
7
100
AcDbPolyline
 90
2
 70
0
 10
387.726287
 20
387.877109
 30
0.0
 10
523.239633
 20
387.877109
 30
0.0
  0
LWPOLYLINE
  5
2a1
100
AcDbEntity
  8
0
 62
7
100
AcDbPolyline
 90
2
 70
0
 10
415.369304
 20
377.048254
 30
0.0
 10
414.624859
 20
376.412554
 30
0.0
  0
LWPOLYLINE
  5
2a2
100
AcDbEntity
  8
0
 62
7
100
AcDbPolyline
 90
2
 70
0
 10
415.940522
 20
377.876712
 30
0.0
 10
415.369304
 20
377.048254
 30
0.0
  0
LWPOLYLINE
  5
2a3
100
AcDbEntity
  8
0
 62
7
100
AcDbPolyline
 90
5
 70
0
 10
173.832695
 20
359.806169
 30
0.0
 10
170.312447
 20
359.806169
 30
0.0
 10
170.312447
 20
371.101140
 30
0.0
 10
173.832695
 20
371.101140
 30
0.0
 10
173.832695
 20
359.806169
 30
0.0
  0
LWPOLYLINE
  5
2a4
100
AcDbEntity
  8
0
 62
7
100
AcDbPolyline
 90
5
 70
0
 10
173.933273
 20
372.710397
 30
0.0
 10
170.211869
 20
372.710397
 30
0.0
 10
170.211869
 20
375.456190
 30
0.0
 10
173.933273
 20
375.456190
 30
0.0
 10
173.933273
 20
372.710397
 30
0.0
  0
LWPOLYLINE
  5
2a5
100
AcDbEntity
  8
0
 62
7
100
AcDbPolyline
 90
71
 70
0
 10
187.330337
 20
364.654056
 30
0.0
 10
187.228500
 20
363.605524
 30
0.0
 10
186.922994
 20
362.652544
 30
0.0
 10
186.421358
 20
361.815228
 30
0.0
 10
185.731139
 20
361.113691
 30
0.0
 10
184.867420
 20
360.554222
 30
0.0
 10
183.865407
 20
360.143109
 30
0.0
 10
182.677322
 20
359.890404
 30
0.0
 10
181.255393
 20
359.806169
 30
0.0
 10
179.629791
 20
359.879090
 30
0.0
 10
178.253122
 20
360.097849
 30
0.0
 10
176.216406
 20
360.751608
 30
0.0
 10
176.216406
 20
364.000296
 30
0.0
 10
176.578491
 20
364.000296
 30
0.0
 10
177.474897
 20
363.512489
 30
0.0
 10
178.514626
 20
363.095088
 30
0.0
 10
179.576990
 20
362.808441
 30
0.0
 10
180.541284
 20
362.712889
 30
0.0
 10
181.723084
 20
362.808441
 30
0.0
 10
182.310210
 20
362.960564
 30
0.0
 10
182.794244
 20
363.225842
 30
0.0
 10
183.342399
 20
363.844400
 30
0.0
 10
183.497037
 20
364.288203
 30
0.0
 10
183.548584
 20
364.885388
 30
0.0
 10
183.475664
 20
365.472514
 30
0.0
 10
183.256905
 20
365.906259
 30
0.0
 10
182.917454
 20
366.214282
 30
0.0
 10
182.482450
 20
366.424238
 30
0.0
 10
181.325797
 20
366.615337
 30
0.0
 10
180.138970
 20
366.635459
 30
0.0
 10
179.495269
 20
366.635453
 30
0.0
 10
179.495269
 20
369.270610
 30
0.0
 10
180.088681
 20
369.270610
 30
0.0
 10
181.345913
 20
369.330958
 30
0.0
 10
182.321525
 20
369.572348
 30
0.0
 10
182.950141
 20
370.105412
 30
0.0
 10
183.119866
 20
370.507728
 30
0.0
 10
183.176443
 20
371.030737
 30
0.0
 10
183.123640
 20
371.441850
 30
0.0
 10
182.965228
 20
371.769987
 30
0.0
 10
182.442220
 20
372.217563
 30
0.0
 10
181.597359
 20
372.458951
 30
0.0
 10
180.772616
 20
372.519298
 30
0.0
 10
179.646137
 20
372.388548
 30
0.0
 10
178.529714
 20
372.056637
 30
0.0
 10
177.644623
 20
371.639236
 30
0.0
 10
176.960688
 20
371.252008
 30
0.0
 10
176.648895
 20
371.252008
 30
0.0
 10
176.648895
 20
374.460465
 30
0.0
 10
178.735900
 20
375.099137
 30
0.0
 10
180.062279
 20
375.329213
 30
0.0
 10
181.416319
 20
375.405904
 30
0.0
 10
182.664749
 20
375.348071
 30
0.0
 10
183.734654
 20
375.174572
 30
0.0
 10
184.643632
 20
374.890436
 30
0.0
 10
185.409287
 20
374.500696
 30
0.0
 10
186.078134
 20
373.963859
 30
0.0
 10
186.555882
 20
373.298782
 30
0.0
 10
186.842530
 20
372.523069
 30
0.0
 10
186.938079
 20
371.654324
 30
0.0
 10
186.753269
 20
370.456181
 30
0.0
 10
186.198829
 20
369.416451
 30
0.0
 10
185.342654
 20
368.625651
 30
0.0
 10
184.252633
 20
368.174304
 30
0.0
 10
184.252633
 20
368.033495
 30
0.0
 10
185.293621
 20
367.761932
 30
0.0
 10
186.284320
 20
367.138345
 30
0.0
 10
186.697950
 20
366.689516
 30
0.0
 10
187.033631
 20
366.127532
 30
0.0
 10
187.256160
 20
365.449883
 30
0.0
 10
187.330337
 20
364.654056
 30
0.0
  0
LWPOLYLINE
  5
2a6
100
AcDbEntity
  8
0
 62
7
100
AcDbPolyline
 90
2
 70
0
 10
81.026150
 20
198.306188
 30
0.0
 10
81.414377
 20
198.357298
 30
0.0
  0
LWPOLYLINE
  5
2a7
100
AcDbEntity
  8
0
 62
7
100
AcDbPolyline
 90
2
 70
0
 10
86.026148
 20
317.806174
 30
0.0
 10
86.026148
 20
297.806175
 30
0.0
  0
LWPOLYLINE
  5
2a8
100
AcDbEntity
  8
0
 62
7
100
AcDbPolyline
 90
2
 70
0
 10
276.026135
 20
221.806180
 30
0.0
 10
266.026135
 20
211.806175
 30
0.0
  0
LWPOLYLINE
  5
2a9
100
AcDbEntity
  8
0
 62
7
100
AcDbPolyline
 90
2
 70
0
 10
96.026148
 20
281.813214
 30
0.0
 10
96.026148
 20
258.813215
 30
0.0
  0
LWPOLYLINE
  5
2aa
100
AcDbEntity
  8
0
 62
7
100
AcDbPolyline
 90
2
 70
0
 10
99.526149
 20
269.806177
 30
0.0
 10
99.577260
 20
269.417950
 30
0.0
  0
LWPOLYLINE
  5
2ab
100
AcDbEntity
  8
0
 62
7
100
AcDbPolyline
 90
3
 70
0
 10
100.276149
 20
268.507139
 30
0.0
 10
100.637919
 20
268.357288
 30
0.0
 10
101.026149
 20
268.306177
 30
0.0
  0
LWPOLYLINE
  5
2ac
100
AcDbEntity
  8
0
 62
7
100
AcDbPolyline
 90
2
 70
0
 10
88.990873
 20
215.669882
 30
0.0
 10
88.495415
 20
215.501705
 30
0.0
  0
LWPOLYLINE
  5
2ad
100
AcDbEntity
  8
0
 62
7
100
AcDbPolyline
 90
2
 70
0
 10
92.026147
 20
254.813215
 30
0.0
 10
90.026149
 20
254.813215
 30
0.0
  0
LWPOLYLINE
  5
2ae
100
AcDbEntity
  8
0
 62
7
100
AcDbPolyline
 90
2
 70
0
 10
88.990873
 20
285.676916
 30
0.0
 10
88.495415
 20
285.508731
 30
0.0
  0
LWPOLYLINE
  5
2af
100
AcDbEntity
  8
0
 62
7
100
AcDbPolyline
 90
2
 70
0
 10
88.495415
 20
215.501705
 30
0.0
 10
88.026150
 20
215.270283
 30
0.0
  0
LWPOLYLINE
  5
2b0
100
AcDbEntity
  8
0
 62
7
100
AcDbPolyline
 90
2
 70
0
 10
87.591104
 20
214.979594
 30
0.0
 10
87.197723
 20
214.634606
 30
0.0
  0
LWPOLYLINE
  5
2b1
100
AcDbEntity
  8
0
 62
7
100
AcDbPolyline
 90
2
 70
0
 10
88.026150
 20
215.270283
 30
0.0
 10
87.591104
 20
214.979594
 30
0.0
  0
LWPOLYLINE
  5
2b2
100
AcDbEntity
  8
0
 62
7
100
AcDbPolyline
 90
2
 70
0
 10
73.026151
 20
124.806179
 30
0.0
 10
98.026149
 20
149.806186
 30
0.0
  0
LWPOLYLINE
  5
2b3
100
AcDbEntity
  8
0
 62
7
100
AcDbPolyline
 90
2
 70
0
 10
90.026149
 20
285.813212
 30
0.0
 10
89.504043
 20
285.778993
 30
0.0
  0
LWPOLYLINE
  5
2b4
100
AcDbEntity
  8
0
 62
7
100
AcDbPolyline
 90
2
 70
0
 10
93.556881
 20
255.117699
 30
0.0
 10
94.026149
 20
255.349115
 30
0.0
  0
LWPOLYLINE
  5
2b5
100
AcDbEntity
  8
0
 62
7
100
AcDbPolyline
 90
2
 70
0
 10
76.026151
 20
181.806178
 30
0.0
 10
86.026148
 20
171.806198
 30
0.0
  0
LWPOLYLINE
  5
2b6
100
AcDbEntity
  8
0
 62
7
100
AcDbPolyline
 90
2
 70
0
 10
86.026148
 20
297.806175
 30
0.0
 10
76.026151
 20
287.806175
 30
0.0
  0
LWPOLYLINE
  5
2b7
100
AcDbEntity
  8
0
 62
7
100
AcDbPolyline
 90
2
 70
0
 10
99.727111
 20
200.556176
 30
0.0
 10
99.577260
 20
200.194424
 30
0.0
  0
LWPOLYLINE
  5
2b8
100
AcDbEntity
  8
0
 62
7
100
AcDbPolyline
 90
2
 70
0
 10
66.026151
 20
131.806194
 30
0.0
 10
66.026151
 20
127.806202
 30
0.0
  0
LWPOLYLINE
  5
2b9
100
AcDbEntity
  8
0
 62
7
100
AcDbPolyline
 90
2
 70
0
 10
108.026146
 20
309.806173
 30
0.0
 10
244.026137
 20
309.806173
 30
0.0
  0
LWPOLYLINE
  5
2ba
100
AcDbEntity
  8
0
 62
7
100
AcDbPolyline
 90
2
 70
0
 10
86.852735
 20
214.241216
 30
0.0
 10
86.562049
 20
213.806171
 30
0.0
  0
LWPOLYLINE
  5
2bb
100
AcDbEntity
  8
0
 62
7
100
AcDbPolyline
 90
2
 70
0
 10
87.197723
 20
214.634606
 30
0.0
 10
86.852735
 20
214.241216
 30
0.0
  0
LWPOLYLINE
  5
2bc
100
AcDbEntity
  8
0
 62
7
100
AcDbPolyline
 90
2
 70
0
 10
249.727099
 20
234.056180
 30
0.0
 10
249.965475
 20
233.745521
 30
0.0
  0
LWPOLYLINE
  5
2bd
100
AcDbEntity
  8
0
 62
7
100
AcDbPolyline
 90
2
 70
0
 10
66.026151
 20
339.806173
 30
0.0
 10
66.026151
 20
337.806171
 30
0.0
  0
LWPOLYLINE
  5
2be
100
AcDbEntity
  8
0
 62
7
100
AcDbPolyline
 90
2
 70
0
 10
256.162432
 20
221.633782
 30
0.0
 10
256.330617
 20
221.138324
 30
0.0
  0
LWPOLYLINE
  5
2bf
100
AcDbEntity
  8
0
 62
7
100
AcDbPolyline
 90
2
 70
0
 10
249.577248
 20
234.417952
 30
0.0
 10
249.727099
 20
234.056180
 30
0.0
  0
LWPOLYLINE
  5
2c0
100
AcDbEntity
  8
0
 62
7
100
AcDbPolyline
 90
2
 70
0
 10
256.060358
 20
222.146952
 30
0.0
 10
256.162432
 20
221.633782
 30
0.0
  0
LWPOLYLINE
  5
2c1
100
AcDbEntity
  8
0
 62
7
100
AcDbPolyline
 90
2
 70
0
 10
251.776137
 20
236.105217
 30
0.0
 10
251.414365
 20
236.255069
 30
0.0
  0
LWPOLYLINE
  5
2c2
100
AcDbEntity
  8
0
 62
7
100
AcDbPolyline
 90
2
 70
0
 10
93.556881
 20
285.508731
 30
0.0
 10
93.061426
 20
285.676916
 30
0.0
  0
LWPOLYLINE
  5
2c3
100
AcDbEntity
  8
0
 62
7
100
AcDbPolyline
 90
3
 70
0
 10
99.526149
 20
199.806171
 30
0.0
 10
99.577260
 20
199.417946
 30
0.0
 10
99.727111
 20
199.056193
 30
0.0
  0
LWPOLYLINE
  5
2c4
100
AcDbEntity
  8
0
 62
7
100
AcDbPolyline
 90
2
 70
0
 10
82.086811
 20
198.745523
 30
0.0
 10
82.325187
 20
199.056193
 30
0.0
  0
LWPOLYLINE
  5
2c5
100
AcDbEntity
  8
0
 62
7
100
AcDbPolyline
 90
2
 70
0
 10
95.199561
 20
214.241216
 30
0.0
 10
94.854576
 20
214.634606
 30
0.0
  0
LWPOLYLINE
  5
2c6
100
AcDbEntity
  8
0
 62
7
100
AcDbPolyline
 90
3
 70
0
 10
102.475036
 20
270.194405
 30
0.0
 10
102.325187
 20
270.556177
 30
0.0
 10
102.086808
 20
270.866839
 30
0.0
  0
LWPOLYLINE
  5
2c7
100
AcDbEntity
  8
0
 62
7
100
AcDbPolyline
 90
2
 70
0
 10
258.495402
 20
218.973547
 30
0.0
 10
258.990860
 20
218.805342
 30
0.0
  0
LWPOLYLINE
  5
2c8
100
AcDbEntity
  8
0
 62
7
100
AcDbPolyline
 90
2
 70
0
 10
82.325187
 20
270.556177
 30
0.0
 10
82.086811
 20
270.866839
 30
0.0
  0
LWPOLYLINE
  5
2c9
100
AcDbEntity
  8
0
 62
7
100
AcDbPolyline
 90
3
 70
0
 10
81.026150
 20
268.306177
 30
0.0
 10
81.414377
 20
268.357288
 30
0.0
 10
81.776149
 20
268.507139
 30
0.0
  0
LWPOLYLINE
  5
2ca
100
AcDbEntity
  8
0
 62
7
100
AcDbPolyline
 90
4
 70
0
 10
99.965487
 20
270.866839
 30
0.0
 10
99.727111
 20
270.556177
 30
0.0
 10
99.577260
 20
270.194405
 30
0.0
 10
99.526149
 20
269.806177
 30
0.0
  0
LWPOLYLINE
  5
2cb
100
AcDbEntity
  8
0
 62
7
100
AcDbPolyline
 90
2
 70
0
 10
102.325187
 20
199.056193
 30
0.0
 10
102.475036
 20
199.417946
 30
0.0
  0
LWPOLYLINE
  5
2cc
100
AcDbEntity
  8
0
 62
7
100
AcDbPolyline
 90
5
 70
0
 10
86.330632
 20
257.282482
 30
0.0
 10
86.562049
 20
256.813217
 30
0.0
 10
86.852735
 20
256.378168
 30
0.0
 10
87.197723
 20
255.984787
 30
0.0
 10
87.591104
 20
255.639801
 30
0.0
  0
LWPOLYLINE
  5
2cd
100
AcDbEntity
  8
0
 62
7
100
AcDbPolyline
 90
2
 70
0
 10
66.026151
 20
131.806194
 30
0.0
 10
86.026148
 20
151.806182
 30
0.0
  0
LWPOLYLINE
  5
2ce
100
AcDbEntity
  8
0
 62
7
100
AcDbPolyline
 90
3
 70
0
 10
252.086796
 20
233.745521
 30
0.0
 10
252.325175
 20
234.056180
 30
0.0
 10
252.475024
 20
234.417952
 30
0.0
  0
LWPOLYLINE
  5
2cf
100
AcDbEntity
  8
0
 62
7
100
AcDbPolyline
 90
3
 70
0
 10
102.086808
 20
268.745518
 30
0.0
 10
102.325187
 20
269.056177
 30
0.0
 10
102.475036
 20
269.417950
 30
0.0
  0
LWPOLYLINE
  5
2d0
100
AcDbEntity
  8
0
 62
7
100
AcDbPolyline
 90
2
 70
0
 10
263.061410
 20
218.805342
 30
0.0
 10
263.556869
 20
218.973547
 30
0.0
  0
LWPOLYLINE
  5
2d1
100
AcDbEntity
  8
0
 62
7
100
AcDbPolyline
 90
2
 70
0
 10
262.548240
 20
218.703291
 30
0.0
 10
263.061410
 20
218.805342
 30
0.0
  0
LWPOLYLINE
  5
2d2
100
AcDbEntity
  8
0
 62
7
100
AcDbPolyline
 90
2
 70
0
 10
262.026135
 20
218.669057
 30
0.0
 10
262.548240
 20
218.703291
 30
0.0
  0
LWPOLYLINE
  5
2d3
100
AcDbEntity
  8
0
 62
7
100
AcDbPolyline
 90
2
 70
0
 10
101.026149
 20
198.306188
 30
0.0
 10
101.414377
 20
198.357298
 30
0.0
  0
LWPOLYLINE
  5
2d4
100
AcDbEntity
  8
0
 62
7
100
AcDbPolyline
 90
2
 70
0
 10
156.026144
 20
239.806181
 30
0.0
 10
156.026144
 20
229.806181
 30
0.0
  0
LWPOLYLINE
  5
2d5
100
AcDbEntity
  8
0
 62
7
100
AcDbPolyline
 90
2
 70
0
 10
251.026137
 20
236.306179
 30
0.0
 10
250.637906
 20
236.255069
 30
0.0
  0
LWPOLYLINE
  5
2d6
100
AcDbEntity
  8
0
 62
7
100
AcDbPolyline
 90
2
 70
0
 10
86.026148
 20
239.806181
 30
0.0
 10
86.026148
 20
229.806181
 30
0.0
  0
LWPOLYLINE
  5
2d7
100
AcDbEntity
  8
0
 62
7
100
AcDbPolyline
 90
2
 70
0
 10
269.727096
 20
234.056180
 30
0.0
 10
269.965475
 20
233.745521
 30
0.0
  0
LWPOLYLINE
  5
2d8
100
AcDbEntity
  8
0
 62
7
100
AcDbPolyline
 90
2
 70
0
 10
80.276150
 20
198.507158
 30
0.0
 10
80.637922
 20
198.357298
 30
0.0
  0
LWPOLYLINE
  5
2d9
100
AcDbEntity
  8
0
 62
7
100
AcDbPolyline
 90
2
 70
0
 10
100.637919
 20
198.357298
 30
0.0
 10
101.026149
 20
198.306188
 30
0.0
  0
LWPOLYLINE
  5
2da
100
AcDbEntity
  8
0
 62
7
100
AcDbPolyline
 90
2
 70
0
 10
86.026148
 20
258.813215
 30
0.0
 10
86.026148
 20
281.813214
 30
0.0
  0
LWPOLYLINE
  5
2db
100
AcDbEntity
  8
0
 62
7
100
AcDbPolyline
 90
2
 70
0
 10
279.026135
 20
124.806179
 30
0.0
 10
281.096486
 20
124.806179
 30
0.0
  0
LWPOLYLINE
  5
2dc
100
AcDbEntity
  8
0
 62
7
100
AcDbPolyline
 90
2
 70
0
 10
80.637922
 20
268.357288
 30
0.0
 10
81.026150
 20
268.306177
 30
0.0
  0
LWPOLYLINE
  5
2dd
100
AcDbEntity
  8
0
 62
7
100
AcDbPolyline
 90
2
 70
0
 10
88.026150
 20
255.349115
 30
0.0
 10
88.495415
 20
255.117699
 30
0.0
  0
LWPOLYLINE
  5
2de
100
AcDbEntity
  8
0
 62
7
100
AcDbPolyline
 90
2
 70
0
 10
87.591104
 20
255.639801
 30
0.0
 10
88.026150
 20
255.349115
 30
0.0
  0
LWPOLYLINE
  5
2df
100
AcDbEntity
  8
0
 62
7
100
AcDbPolyline
 90
2
 70
0
 10
86.162447
 20
257.777940
 30
0.0
 10
86.330632
 20
257.282482
 30
0.0
  0
LWPOLYLINE
  5
2e0
100
AcDbEntity
  8
0
 62
7
100
AcDbPolyline
 90
2
 70
0
 10
86.026148
 20
258.813215
 30
0.0
 10
86.060370
 20
258.291110
 30
0.0
  0
LWPOLYLINE
  5
2e1
100
AcDbEntity
  8
0
 62
7
100
AcDbPolyline
 90
2
 70
0
 10
92.548253
 20
285.778993
 30
0.0
 10
92.026147
 20
285.813212
 30
0.0
  0
LWPOLYLINE
  5
2e2
100
AcDbEntity
  8
0
 62
7
100
AcDbPolyline
 90
2
 70
0
 10
93.061426
 20
285.676916
 30
0.0
 10
92.548253
 20
285.778993
 30
0.0
  0
LWPOLYLINE
  5
2e3
100
AcDbEntity
  8
0
 62
7
100
AcDbPolyline
 90
2
 70
0
 10
94.461195
 20
284.986626
 30
0.0
 10
94.026149
 20
285.277314
 30
0.0
  0
LWPOLYLINE
  5
2e4
100
AcDbEntity
  8
0
 62
7
100
AcDbPolyline
 90
2
 70
0
 10
94.854576
 20
284.641640
 30
0.0
 10
94.461195
 20
284.986626
 30
0.0
  0
LWPOLYLINE
  5
2e5
100
AcDbEntity
  8
0
 62
7
100
AcDbPolyline
 90
2
 70
0
 10
95.490250
 20
283.813213
 30
0.0
 10
95.199561
 20
284.248259
 30
0.0
  0
LWPOLYLINE
  5
2e6
100
AcDbEntity
  8
0
 62
7
100
AcDbPolyline
 90
3
 70
0
 10
82.325187
 20
199.056193
 30
0.0
 10
82.475039
 20
199.417946
 30
0.0
 10
82.526149
 20
199.806171
 30
0.0
  0
LWPOLYLINE
  5
2e7
100
AcDbEntity
  8
0
 62
7
100
AcDbPolyline
 90
2
 70
0
 10
93.061426
 20
184.942486
 30
0.0
 10
93.556881
 20
185.110662
 30
0.0
  0
LWPOLYLINE
  5
2e8
100
AcDbEntity
  8
0
 62
7
100
AcDbPolyline
 90
2
 70
0
 10
283.026132
 20
124.806179
 30
0.0
 10
286.026126
 20
127.806202
 30
0.0
  0
LWPOLYLINE
  5
2e9
100
AcDbEntity
  8
0
 62
7
100
AcDbPolyline
 90
4
 70
0
 10
95.721667
 20
187.275447
 30
0.0
 10
95.889851
 20
187.770917
 30
0.0
 10
95.991928
 20
188.284081
 30
0.0
 10
96.026148
 20
188.806193
 30
0.0
  0
LWPOLYLINE
  5
2ea
100
AcDbEntity
  8
0
 62
7
100
AcDbPolyline
 90
2
 70
0
 10
101.776149
 20
271.105215
 30
0.0
 10
101.414377
 20
271.255067
 30
0.0
  0
LWPOLYLINE
  5
2eb
100
AcDbEntity
  8
0
 62
7
100
AcDbPolyline
 90
2
 70
0
 10
271.026134
 20
233.306180
 30
0.0
 10
271.414364
 20
233.357293
 30
0.0
  0
LWPOLYLINE
  5
2ec
100
AcDbEntity
  8
0
 62
7
100
AcDbPolyline
 90
2
 70
0
 10
98.026149
 20
319.806173
 30
0.0
 10
254.026137
 20
319.806173
 30
0.0
  0
LWPOLYLINE
  5
2ed
100
AcDbEntity
  8
0
 62
7
100
AcDbPolyline
 90
2
 70
0
 10
99.965487
 20
268.745518
 30
0.0
 10
100.276149
 20
268.507139
 30
0.0
  0
LWPOLYLINE
  5
2ee
100
AcDbEntity
  8
0
 62
7
100
AcDbPolyline
 90
3
 70
0
 10
81.026150
 20
201.306182
 30
0.0
 10
80.637922
 20
201.255071
 30
0.0
 10
80.276150
 20
201.105211
 30
0.0
  0
LWPOLYLINE
  5
2ef
100
AcDbEntity
  8
0
 62
7
100
AcDbPolyline
 90
4
 70
0
 10
93.556881
 20
185.110662
 30
0.0
 10
94.026149
 20
185.342084
 30
0.0
 10
94.461195
 20
185.632773
 30
0.0
 10
94.854576
 20
185.977761
 30
0.0
  0
LWPOLYLINE
  5
2f0
100
AcDbEntity
  8
0
 62
7
100
AcDbPolyline
 90
2
 70
0
 10
272.325171
 20
234.056180
 30
0.0
 10
272.377713
 20
234.183024
 30
0.0
  0
LWPOLYLINE
  5
2f1
100
AcDbEntity
  8
0
 62
7
100
AcDbPolyline
 90
2
 70
0
 10
272.475023
 20
234.417952
 30
0.0
 10
272.526133
 20
234.806180
 30
0.0
  0
LWPOLYLINE
  5
2f2
100
AcDbEntity
  8
0
 62
7
100
AcDbPolyline
 90
2
 70
0
 10
252.526137
 20
234.806180
 30
0.0
 10
252.475024
 20
235.194410
 30
0.0
  0
LWPOLYLINE
  5
2f3
100
AcDbEntity
  8
0
 62
7
100
AcDbPolyline
 90
3
 70
0
 10
79.526150
 20
269.806177
 30
0.0
 10
79.577260
 20
269.417950
 30
0.0
 10
79.727112
 20
269.056177
 30
0.0
  0
LWPOLYLINE
  5
2f4
100
AcDbEntity
  8
0
 62
7
100
AcDbPolyline
 90
2
 70
0
 10
96.026148
 20
229.806181
 30
0.0
 10
96.026148
 20
239.806181
 30
0.0
  0
LWPOLYLINE
  5
2f5
100
AcDbEntity
  8
0
 62
7
100
AcDbPolyline
 90
2
 70
0
 10
269.577247
 20
234.417952
 30
0.0
 10
269.727096
 20
234.056180
 30
0.0
  0
LWPOLYLINE
  5
2f6
100
AcDbEntity
  8
0
 62
7
100
AcDbPolyline
 90
2
 70
0
 10
86.026148
 20
229.806181
 30
0.0
 10
76.026151
 20
219.806181
 30
0.0
  0
LWPOLYLINE
  5
2f7
100
AcDbEntity
  8
0
 62
7
100
AcDbPolyline
 90
2
 70
0
 10
80.637922
 20
198.357298
 30
0.0
 10
81.026150
 20
198.306188
 30
0.0
  0
LWPOLYLINE
  5
2f8
100
AcDbEntity
  8
0
 62
7
100
AcDbPolyline
 90
3
 70
0
 10
258.990860
 20
218.805342
 30
0.0
 10
259.504030
 20
218.703291
 30
0.0
 10
260.026136
 20
218.669057
 30
0.0
  0
LWPOLYLINE
  5
2f9
100
AcDbEntity
  8
0
 62
7
100
AcDbPolyline
 90
2
 70
0
 10
262.026135
 20
218.669057
 30
0.0
 10
260.026136
 20
218.669057
 30
0.0
  0
LWPOLYLINE
  5
2fa
100
AcDbEntity
  8
0
 62
7
100
AcDbPolyline
 90
4
 70
0
 10
94.854576
 20
185.977761
 30
0.0
 10
95.199561
 20
186.371151
 30
0.0
 10
95.490250
 20
186.806197
 30
0.0
 10
95.721667
 20
187.275447
 30
0.0
  0
LWPOLYLINE
  5
2fb
100
AcDbEntity
  8
0
 62
7
100
AcDbPolyline
 90
2
 70
0
 10
136.026144
 20
259.806178
 30
0.0
 10
156.026144
 20
239.806181
 30
0.0
  0
LWPOLYLINE
  5
2fc
100
AcDbEntity
  8
0
 62
7
100
AcDbPolyline
 90
2
 70
0
 10
86.162447
 20
187.770917
 30
0.0
 10
86.330632
 20
187.275447
 30
0.0
  0
LWPOLYLINE
  5
2fd
100
AcDbEntity
  8
0
 62
7
100
AcDbPolyline
 90
2
 70
0
 10
256.852722
 20
220.234013
 30
0.0
 10
257.197708
 20
219.840632
 30
0.0
  0
LWPOLYLINE
  5
2fe
100
AcDbEntity
  8
0
 62
7
100
AcDbPolyline
 90
2
 70
0
 10
76.026151
 20
249.806178
 30
0.0
 10
86.026148
 20
239.806181
 30
0.0
  0
LWPOLYLINE
  5
2ff
100
AcDbEntity
  8
0
 62
7
100
AcDbPolyline
 90
4
 70
0
 10
93.556881
 20
215.501705
 30
0.0
 10
93.061426
 20
215.669882
 30
0.0
 10
92.548253
 20
215.771961
 30
0.0
 10
92.026147
 20
215.806195
 30
0.0
  0
LWPOLYLINE
  5
300
100
AcDbEntity
  8
0
 62
7
100
AcDbPolyline
 90
2
 70
0
 10
66.026151
 20
341.806172
 30
0.0
 10
66.026151
 20
339.806173
 30
0.0
  0
LWPOLYLINE
  5
301
100
AcDbEntity
  8
0
 62
7
100
AcDbPolyline
 90
2
 70
0
 10
66.026151
 20
127.806202
 30
0.0
 10
69.026151
 20
124.806179
 30
0.0
  0
LWPOLYLINE
  5
302
100
AcDbEntity
  8
0
 62
7
100
AcDbPolyline
 90
2
 70
0
 10
256.026135
 20
222.669058
 30
0.0
 10
256.060358
 20
222.146952
 30
0.0
  0
LWPOLYLINE
  5
303
100
AcDbEntity
  8
0
 62
7
100
AcDbPolyline
 90
2
 70
0
 10
79.526150
 20
199.806171
 30
0.0
 10
79.577260
 20
199.417946
 30
0.0
  0
LWPOLYLINE
  5
304
100
AcDbEntity
  8
0
 62
7
100
AcDbPolyline
 90
3
 70
0
 10
90.026149
 20
215.806195
 30
0.0
 10
89.504043
 20
215.771961
 30
0.0
 10
88.990873
 20
215.669882
 30
0.0
  0
LWPOLYLINE
  5
305
100
AcDbEntity
  8
0
 62
7
100
AcDbPolyline
 90
2
 70
0
 10
101.776149
 20
268.507139
 30
0.0
 10
102.086808
 20
268.745518
 30
0.0
  0
LWPOLYLINE
  5
306
100
AcDbEntity
  8
0
 62
7
100
AcDbPolyline
 90
2
 70
0
 10
86.026148
 20
188.806193
 30
0.0
 10
86.026148
 20
211.806175
 30
0.0
  0
LWPOLYLINE
  5
307
100
AcDbEntity
  8
0
 62
7
100
AcDbPolyline
 90
3
 70
0
 10
86.026148
 20
188.806193
 30
0.0
 10
86.060370
 20
188.284081
 30
0.0
 10
86.162447
 20
187.770917
 30
0.0
  0
LWPOLYLINE
  5
308
100
AcDbEntity
  8
0
 62
7
100
AcDbPolyline
 90
2
 70
0
 10
266.026135
 20
211.806175
 30
0.0
 10
246.026136
 20
191.806187
 30
0.0
  0
LWPOLYLINE
  5
309
100
AcDbEntity
  8
0
 62
7
100
AcDbPolyline
 90
2
 70
0
 10
272.526133
 20
234.806180
 30
0.0
 10
272.475023
 20
235.194410
 30
0.0
  0
LWPOLYLINE
  5
30a
100
AcDbEntity
  8
0
 62
7
100
AcDbPolyline
 90
2
 70
0
 10
286.026126
 20
341.806172
 30
0.0
 10
283.026132
 20
344.806171
 30
0.0
  0
LWPOLYLINE
  5
30b
100
AcDbEntity
  8
0
 62
7
100
AcDbPolyline
 90
2
 70
0
 10
76.026151
 20
287.806175
 30
0.0
 10
76.026151
 20
249.806178
 30
0.0
  0
LWPOLYLINE
  5
30c
100
AcDbEntity
  8
0
 62
7
100
AcDbPolyline
 90
3
 70
0
 10
81.414377
 20
271.255067
 30
0.0
 10
81.026150
 20
271.306177
 30
0.0
 10
80.637922
 20
271.255067
 30
0.0
  0
LWPOLYLINE
  5
30d
100
AcDbEntity
  8
0
 62
7
100
AcDbPolyline
 90
2
 70
0
 10
92.026147
 20
184.806172
 30
0.0
 10
92.548253
 20
184.840406
 30
0.0
  0
LWPOLYLINE
  5
30e
100
AcDbEntity
  8
0
 62
7
100
AcDbPolyline
 90
3
 70
0
 10
88.990873
 20
184.942486
 30
0.0
 10
89.504043
 20
184.840406
 30
0.0
 10
90.026149
 20
184.806172
 30
0.0
  0
LWPOLYLINE
  5
30f
100
AcDbEntity
  8
0
 62
7
100
AcDbPolyline
 90
2
 70
0
 10
286.026126
 20
131.806194
 30
0.0
 10
266.026135
 20
151.806182
 30
0.0
  0
LWPOLYLINE
  5
310
100
AcDbEntity
  8
0
 62
7
100
AcDbPolyline
 90
2
 70
0
 10
100.276149
 20
198.507158
 30
0.0
 10
100.637919
 20
198.357298
 30
0.0
  0
LWPOLYLINE
  5
311
100
AcDbEntity
  8
0
 62
7
100
AcDbPolyline
 90
3
 70
0
 10
266.026135
 20
151.806182
 30
0.0
 10
246.026136
 20
171.806198
 30
0.0
 10
246.026136
 20
191.806187
 30
0.0
  0
LWPOLYLINE
  5
312
100
AcDbEntity
  8
0
 62
7
100
AcDbPolyline
 90
2
 70
0
 10
265.991916
 20
246.191159
 30
0.0
 10
265.889839
 20
246.704333
 30
0.0
  0
LWPOLYLINE
  5
313
100
AcDbEntity
  8
0
 62
7
100
AcDbPolyline
 90
2
 70
0
 10
266.026135
 20
245.669057
 30
0.0
 10
265.991916
 20
246.191159
 30
0.0
  0
LWPOLYLINE
  5
314
100
AcDbEntity
  8
0
 62
7
100
AcDbPolyline
 90
2
 70
0
 10
94.026149
 20
215.270283
 30
0.0
 10
93.556881
 20
215.501705
 30
0.0
  0
LWPOLYLINE
  5
315
100
AcDbEntity
  8
0
 62
7
100
AcDbPolyline
 90
2
 70
0
 10
94.461195
 20
214.979594
 30
0.0
 10
94.026149
 20
215.270283
 30
0.0
  0
LWPOLYLINE
  5
316
100
AcDbEntity
  8
0
 62
7
100
AcDbPolyline
 90
2
 70
0
 10
94.854576
 20
214.634606
 30
0.0
 10
94.461195
 20
214.979594
 30
0.0
  0
LWPOLYLINE
  5
317
100
AcDbEntity
  8
0
 62
7
100
AcDbPolyline
 90
2
 70
0
 10
102.475036
 20
200.194424
 30
0.0
 10
102.325187
 20
200.556176
 30
0.0
  0
LWPOLYLINE
  5
318
100
AcDbEntity
  8
0
 62
7
100
AcDbPolyline
 90
2
 70
0
 10
279.026135
 20
344.806171
 30
0.0
 10
256.026135
 20
321.806172
 30
0.0
  0
LWPOLYLINE
  5
319
100
AcDbEntity
  8
0
 62
7
100
AcDbPolyline
 90
4
 70
0
 10
82.086811
 20
200.866846
 30
0.0
 10
81.776149
 20
201.105211
 30
0.0
 10
81.414377
 20
201.255071
 30
0.0
 10
81.026150
 20
201.306182
 30
0.0
  0
LWPOLYLINE
  5
31a
100
AcDbEntity
  8
0
 62
7
100
AcDbPolyline
 90
2
 70
0
 10
102.475036
 20
269.417950
 30
0.0
 10
102.526149
 20
269.806177
 30
0.0
  0
LWPOLYLINE
  5
31b
100
AcDbEntity
  8
0
 62
7
100
AcDbPolyline
 90
2
 70
0
 10
82.526149
 20
199.806171
 30
0.0
 10
82.475039
 20
200.194424
 30
0.0
  0
LWPOLYLINE
  5
31c
100
AcDbEntity
  8
0
 62
7
100
AcDbPolyline
 90
2
 70
0
 10
136.026144
 20
209.806179
 30
0.0
 10
116.026147
 20
209.806179
 30
0.0
  0
LWPOLYLINE
  5
31d
100
AcDbEntity
  8
0
 62
7
100
AcDbPolyline
 90
2
 70
0
 10
99.577260
 20
200.194424
 30
0.0
 10
99.526149
 20
199.806171
 30
0.0
  0
LWPOLYLINE
  5
31e
100
AcDbEntity
  8
0
 62
7
100
AcDbPolyline
 90
2
 70
0
 10
81.776149
 20
198.507158
 30
0.0
 10
82.086811
 20
198.745523
 30
0.0
  0
LWPOLYLINE
  5
31f
100
AcDbEntity
  8
0
 62
7
100
AcDbPolyline
 90
2
 70
0
 10
69.026151
 20
344.806171
 30
0.0
 10
66.026151
 20
341.806172
 30
0.0
  0
LWPOLYLINE
  5
320
100
AcDbEntity
  8
0
 62
7
100
AcDbPolyline
 90
2
 70
0
 10
283.026132
 20
344.806171
 30
0.0
 10
279.026135
 20
344.806171
 30
0.0
  0
LWPOLYLINE
  5
321
100
AcDbEntity
  8
0
 62
7
100
AcDbPolyline
 90
2
 70
0
 10
71.026150
 20
344.806171
 30
0.0
 10
71.096505
 20
344.806171
 30
0.0
  0
LWPOLYLINE
  5
322
100
AcDbEntity
  8
0
 62
7
100
AcDbPolyline
 90
2
 70
0
 10
79.965491
 20
198.745523
 30
0.0
 10
80.276150
 20
198.507158
 30
0.0
  0
LWPOLYLINE
  5
323
100
AcDbEntity
  8
0
 62
7
100
AcDbPolyline
 90
4
 70
0
 10
101.414377
 20
198.357298
 30
0.0
 10
101.776149
 20
198.507158
 30
0.0
 10
102.086808
 20
198.745523
 30
0.0
 10
102.325187
 20
199.056193
 30
0.0
  0
LWPOLYLINE
  5
324
100
AcDbEntity
  8
0
 62
7
100
AcDbPolyline
 90
2
 70
0
 10
73.026151
 20
124.806179
 30
0.0
 10
71.096505
 20
124.806179
 30
0.0
  0
LWPOLYLINE
  5
325
100
AcDbEntity
  8
0
 62
7
100
AcDbPolyline
 90
2
 70
0
 10
252.475024
 20
235.194410
 30
0.0
 10
252.325175
 20
235.556179
 30
0.0
  0
LWPOLYLINE
  5
326
100
AcDbEntity
  8
0
 62
7
100
AcDbPolyline
 90
2
 70
0
 10
286.026126
 20
337.806171
 30
0.0
 10
246.026136
 20
297.806175
 30
0.0
  0
LWPOLYLINE
  5
327
100
AcDbEntity
  8
0
 62
7
100
AcDbPolyline
 90
2
 70
0
 10
257.197708
 20
248.497482
 30
0.0
 10
256.852722
 20
248.104101
 30
0.0
  0
LWPOLYLINE
  5
328
100
AcDbEntity
  8
0
 62
7
100
AcDbPolyline
 90
2
 70
0
 10
257.591089
 20
248.842468
 30
0.0
 10
257.197708
 20
248.497482
 30
0.0
  0
LWPOLYLINE
  5
329
100
AcDbEntity
  8
0
 62
7
100
AcDbPolyline
 90
2
 70
0
 10
258.495402
 20
249.364573
 30
0.0
 10
258.026134
 20
249.133157
 30
0.0
  0
LWPOLYLINE
  5
32a
100
AcDbEntity
  8
0
 62
7
100
AcDbPolyline
 90
2
 70
0
 10
258.990860
 20
249.532758
 30
0.0
 10
258.495402
 20
249.364573
 30
0.0
  0
LWPOLYLINE
  5
32b
100
AcDbEntity
  8
0
 62
7
100
AcDbPolyline
 90
2
 70
0
 10
264.461182
 20
219.495658
 30
0.0
 10
264.854563
 20
219.840632
 30
0.0
  0
LWPOLYLINE
  5
32c
100
AcDbEntity
  8
0
 62
7
100
AcDbPolyline
 90
3
 70
0
 10
95.721667
 20
213.336920
 30
0.0
 10
95.490250
 20
213.806171
 30
0.0
 10
95.199561
 20
214.241216
 30
0.0
  0
LWPOLYLINE
  5
32d
100
AcDbEntity
  8
0
 62
7
100
AcDbPolyline
 90
2
 70
0
 10
286.026126
 20
131.806194
 30
0.0
 10
286.026126
 20
127.806202
 30
0.0
  0
LWPOLYLINE
  5
32e
100
AcDbEntity
  8
0
 62
7
100
AcDbPolyline
 90
2
 70
0
 10
86.026148
 20
151.806182
 30
0.0
 10
86.026148
 20
171.806198
 30
0.0
  0
LWPOLYLINE
  5
32f
100
AcDbEntity
  8
0
 62
7
100
AcDbPolyline
 90
2
 70
0
 10
99.965487
 20
198.745523
 30
0.0
 10
100.276149
 20
198.507158
 30
0.0
  0
LWPOLYLINE
  5
330
100
AcDbEntity
  8
0
 62
7
100
AcDbPolyline
 90
2
 70
0
 10
71.026150
 20
344.806171
 30
0.0
 10
69.026151
 20
344.806171
 30
0.0
  0
LWPOLYLINE
  5
331
100
AcDbEntity
  8
0
 62
7
100
AcDbPolyline
 90
2
 70
0
 10
246.026136
 20
277.806178
 30
0.0
 10
246.026136
 20
297.806175
 30
0.0
  0
LWPOLYLINE
  5
332
100
AcDbEntity
  8
0
 62
7
100
AcDbPolyline
 90
2
 70
0
 10
266.026135
 20
257.806179
 30
0.0
 10
246.026136
 20
277.806178
 30
0.0
  0
LWPOLYLINE
  5
333
100
AcDbEntity
  8
0
 62
7
100
AcDbPolyline
 90
2
 70
0
 10
102.526149
 20
199.806171
 30
0.0
 10
102.475036
 20
200.194424
 30
0.0
  0
LWPOLYLINE
  5
334
100
AcDbEntity
  8
0
 62
7
100
AcDbPolyline
 90
2
 70
0
 10
102.086808
 20
200.866846
 30
0.0
 10
101.776149
 20
201.105211
 30
0.0
  0
LWPOLYLINE
  5
335
100
AcDbEntity
  8
0
 62
7
100
AcDbPolyline
 90
2
 70
0
 10
265.991916
 20
222.146952
 30
0.0
 10
266.026135
 20
222.669058
 30
0.0
  0
LWPOLYLINE
  5
336
100
AcDbEntity
  8
0
 62
7
100
AcDbPolyline
 90
2
 70
0
 10
101.414377
 20
201.255071
 30
0.0
 10
101.026149
 20
201.306182
 30
0.0
  0
LWPOLYLINE
  5
337
100
AcDbEntity
  8
0
 62
7
100
AcDbPolyline
 90
2
 70
0
 10
81.776149
 20
268.507139
 30
0.0
 10
82.086811
 20
268.745518
 30
0.0
  0
LWPOLYLINE
  5
338
100
AcDbEntity
  8
0
 62
7
100
AcDbPolyline
 90
2
 70
0
 10
266.026135
 20
245.669057
 30
0.0
 10
266.026135
 20
222.669058
 30
0.0
  0
LWPOLYLINE
  5
339
100
AcDbEntity
  8
0
 62
7
100
AcDbPolyline
 90
2
 70
0
 10
262.548240
 20
249.634835
 30
0.0
 10
262.026135
 20
249.669054
 30
0.0
  0
LWPOLYLINE
  5
33a
100
AcDbEntity
  8
0
 62
7
100
AcDbPolyline
 90
2
 70
0
 10
263.061410
 20
249.532758
 30
0.0
 10
262.548240
 20
249.634835
 30
0.0
  0
LWPOLYLINE
  5
33b
100
AcDbEntity
  8
0
 62
7
100
AcDbPolyline
 90
2
 70
0
 10
269.727096
 20
235.556179
 30
0.0
 10
269.577247
 20
235.194410
 30
0.0
  0
LWPOLYLINE
  5
33c
100
AcDbEntity
  8
0
 62
7
100
AcDbPolyline
 90
2
 70
0
 10
269.965475
 20
235.866841
 30
0.0
 10
269.727096
 20
235.556179
 30
0.0
  0
LWPOLYLINE
  5
33d
100
AcDbEntity
  8
0
 62
7
100
AcDbPolyline
 90
2
 70
0
 10
98.026149
 20
149.806186
 30
0.0
 10
254.026137
 20
149.806186
 30
0.0
  0
LWPOLYLINE
  5
33e
100
AcDbEntity
  8
0
 62
7
100
AcDbPolyline
 90
4
 70
0
 10
86.330632
 20
213.336920
 30
0.0
 10
86.162447
 20
212.841451
 30
0.0
 10
86.060370
 20
212.328286
 30
0.0
 10
86.026148
 20
211.806175
 30
0.0
  0
LWPOLYLINE
  5
33f
100
AcDbEntity
  8
0
 62
7
100
AcDbPolyline
 90
2
 70
0
 10
90.026149
 20
215.806195
 30
0.0
 10
92.026147
 20
215.806195
 30
0.0
  0
LWPOLYLINE
  5
340
100
AcDbEntity
  8
0
 62
7
100
AcDbPolyline
 90
2
 70
0
 10
279.026135
 20
124.806179
 30
0.0
 10
254.026137
 20
149.806186
 30
0.0
  0
LWPOLYLINE
  5
341
100
AcDbEntity
  8
0
 62
7
100
AcDbPolyline
 90
2
 70
0
 10
271.414364
 20
236.255069
 30
0.0
 10
271.026134
 20
236.306179
 30
0.0
  0
LWPOLYLINE
  5
342
100
AcDbEntity
  8
0
 62
7
100
AcDbPolyline
 90
3
 70
0
 10
100.637919
 20
201.255071
 30
0.0
 10
100.276149
 20
201.105211
 30
0.0
 10
99.965487
 20
200.866846
 30
0.0
  0
LWPOLYLINE
  5
343
100
AcDbEntity
  8
0
 62
7
100
AcDbPolyline
 90
2
 70
0
 10
276.026135
 20
247.806179
 30
0.0
 10
266.026135
 20
257.806179
 30
0.0
  0
LWPOLYLINE
  5
344
100
AcDbEntity
  8
0
 62
7
100
AcDbPolyline
 90
2
 70
0
 10
286.026126
 20
340.806171
 30
0.0
 10
286.026126
 20
341.806172
 30
0.0
  0
LWPOLYLINE
  5
345
100
AcDbEntity
  8
0
 62
7
100
AcDbPolyline
 90
2
 70
0
 10
73.026151
 20
344.806171
 30
0.0
 10
98.026149
 20
319.806173
 30
0.0
  0
LWPOLYLINE
  5
346
100
AcDbEntity
  8
0
 62
7
100
AcDbPolyline
 90
2
 70
0
 10
176.026143
 20
212.017475
 30
0.0
 10
176.063416
 20
212.012677
 30
0.0
  0
LWPOLYLINE
  5
347
100
AcDbEntity
  8
0
 62
7
100
AcDbPolyline
 90
2
 70
0
 10
276.026135
 20
247.806179
 30
0.0
 10
276.026135
 20
221.806180
 30
0.0
  0
LWPOLYLINE
  5
348
100
AcDbEntity
  8
0
 62
7
100
AcDbPolyline
 90
2
 70
0
 10
281.096486
 20
124.806179
 30
0.0
 10
283.026132
 20
124.806179
 30
0.0
  0
LWPOLYLINE
  5
349
100
AcDbEntity
  8
0
 62
7
100
AcDbPolyline
 90
2
 70
0
 10
76.026151
 20
219.806181
 30
0.0
 10
76.026151
 20
181.806178
 30
0.0
  0
LWPOLYLINE
  5
34a
100
AcDbEntity
  8
0
 62
7
100
AcDbPolyline
 90
2
 70
0
 10
71.096505
 20
344.806171
 30
0.0
 10
73.026151
 20
344.806171
 30
0.0
  0
LWPOLYLINE
  5
34b
100
AcDbEntity
  8
0
 62
7
100
AcDbPolyline
 90
2
 70
0
 10
71.096505
 20
124.806179
 30
0.0
 10
69.026151
 20
124.806179
 30
0.0
  0
LWPOLYLINE
  5
34c
100
AcDbEntity
  8
0
 62
7
100
AcDbPolyline
 90
2
 70
0
 10
175.597532
 20
253.053647
 30
0.0
 10
176.026143
 20
252.997281
 30
0.0
  0
LWPOLYLINE
  5
34d
100
AcDbEntity
  8
0
 62
7
100
AcDbPolyline
 90
2
 70
0
 10
177.801891
 20
254.326754
 30
0.0
 10
177.863159
 20
254.792638
 30
0.0
  0
LWPOLYLINE
  5
34e
100
AcDbEntity
  8
0
 62
7
100
AcDbPolyline
 90
3
 70
0
 10
174.790185
 20
256.064989
 30
0.0
 10
174.504183
 20
255.692156
 30
0.0
 10
174.324425
 20
255.258006
 30
0.0
  0
LWPOLYLINE
  5
34f
100
AcDbEntity
  8
0
 62
7
100
AcDbPolyline
 90
2
 70
0
 10
174.504440
 20
253.892157
 30
0.0
 10
174.790549
 20
253.519407
 30
0.0
  0
LWPOLYLINE
  5
350
100
AcDbEntity
  8
0
 62
7
100
AcDbPolyline
 90
2
 70
0
 10
176.528784
 20
256.531113
 30
0.0
 10
176.062900
 20
256.592380
 30
0.0
  0
LWPOLYLINE
  5
351
100
AcDbEntity
  8
0
 62
7
100
AcDbPolyline
 90
2
 70
0
 10
176.026143
 20
256.587535
 30
0.0
 10
175.597035
 20
256.530980
 30
0.0
  0
LWPOLYLINE
  5
352
100
AcDbEntity
  8
0
 62
7
100
AcDbPolyline
 90
3
 70
0
 10
69.777102
 20
338.850681
 30
0.0
 10
69.956923
 20
338.416553
 30
0.0
 10
70.242975
 20
338.043763
 30
0.0
  0
LWPOLYLINE
  5
353
100
AcDbEntity
  8
0
 62
7
100
AcDbPolyline
 90
2
 70
0
 10
70.615768
 20
337.757708
 30
0.0
 10
71.049893
 20
337.577887
 30
0.0
  0
LWPOLYLINE
  5
354
100
AcDbEntity
  8
0
 62
7
100
AcDbPolyline
 90
2
 70
0
 10
71.096505
 20
341.056172
 30
0.0
 10
71.049893
 20
341.055325
 30
0.0
  0
LWPOLYLINE
  5
355
100
AcDbEntity
  8
0
 62
7
100
AcDbPolyline
 90
3
 70
0
 10
281.436516
 20
340.875400
 30
0.0
 10
281.002390
 20
341.055221
 30
0.0
 10
280.536515
 20
341.116553
 30
0.0
  0
LWPOLYLINE
  5
356
100
AcDbEntity
  8
0
 62
7
100
AcDbPolyline
 90
2
 70
0
 10
278.977671
 20
340.216555
 30
0.0
 10
278.797851
 20
339.782429
 30
0.0
  0
LWPOLYLINE
  5
357
100
AcDbEntity
  8
0
 62
7
100
AcDbPolyline
 90
2
 70
0
 10
278.797851
 20
338.850681
 30
0.0
 10
278.977671
 20
338.416553
 30
0.0
  0
LWPOLYLINE
  5
358
100
AcDbEntity
  8
0
 62
7
100
AcDbPolyline
 90
2
 70
0
 10
280.070642
 20
337.577887
 30
0.0
 10
280.536515
 20
337.516555
 30
0.0
  0
LWPOLYLINE
  5
359
100
AcDbEntity
  8
0
 62
7
100
AcDbPolyline
 90
2
 70
0
 10
281.809309
 20
338.043763
 30
0.0
 10
282.095361
 20
338.416553
 30
0.0
  0
LWPOLYLINE
  5
35a
100
AcDbEntity
  8
0
 62
7
100
AcDbPolyline
 90
5
 70
0
 10
282.275167
 20
338.850681
 30
0.0
 10
282.336522
 20
339.316554
 30
0.0
 10
282.275167
 20
339.782429
 30
0.0
 10
282.095361
 20
340.216555
 30
0.0
 10
281.809309
 20
340.589345
 30
0.0
  0
LWPOLYLINE
  5
35b
100
AcDbEntity
  8
0
 62
7
100
AcDbPolyline
 90
3
 70
0
 10
278.977671
 20
129.395818
 30
0.0
 10
279.263723
 20
129.023003
 30
0.0
 10
279.636516
 20
128.736971
 30
0.0
  0
LWPOLYLINE
  5
35c
100
AcDbEntity
  8
0
 62
7
100
AcDbPolyline
 90
2
 70
0
 10
281.002390
 20
128.557139
 30
0.0
 10
281.436516
 20
128.736971
 30
0.0
  0
LWPOLYLINE
  5
35d
100
AcDbEntity
  8
0
 62
7
100
AcDbPolyline
 90
2
 70
0
 10
70.257289
 20
131.603530
 30
0.0
 10
69.967086
 20
131.233960
 30
0.0
  0
LWPOLYLINE
  5
35e
100
AcDbEntity
  8
0
 62
7
100
AcDbPolyline
 90
2
 70
0
 10
73.249115
 20
129.831287
 30
0.0
 10
73.315655
 20
130.296446
 30
0.0
  0
LWPOLYLINE
  5
35f
100
AcDbEntity
  8
0
 62
7
100
AcDbPolyline
 90
2
 70
0
 10
73.259535
 20
130.762959
 30
0.0
 10
73.084580
 20
131.199077
 30
0.0
  0
LWPOLYLINE
  5
360
100
AcDbEntity
  8
0
 62
7
100
AcDbPolyline
 90
25
 70
0
 10
57.896506
 20
25.806208
 30
0.0
 10
57.835171
 20
26.272072
 30
0.0
 10
57.655350
 20
26.706187
 30
0.0
 10
57.369298
 20
27.079002
 30
0.0
 10
56.996505
 20
27.365034
 30
0.0
 10
56.562379
 20
27.544866
 30
0.0
 10
56.096504
 20
27.606193
 30
0.0
 10
55.630631
 20
27.544866
 30
0.0
 10
55.196506
 20
27.365034
 30
0.0
 10
54.823713
 20
27.079002
 30
0.0
 10
54.537661
 20
26.706187
 30
0.0
 10
54.357840
 20
26.272072
 30
0.0
 10
54.296505
 20
25.806208
 30
0.0
 10
54.357840
 20
25.340316
 30
0.0
 10
54.537661
 20
24.906201
 30
0.0
 10
54.823713
 20
24.533414
 30
0.0
 10
55.196506
 20
24.247354
 30
0.0
 10
55.630631
 20
24.067522
 30
0.0
 10
56.096504
 20
24.006195
 30
0.0
 10
56.562379
 20
24.067522
 30
0.0
 10
56.996505
 20
24.247354
 30
0.0
 10
57.369298
 20
24.533414
 30
0.0
 10
57.655350
 20
24.906201
 30
0.0
 10
57.835171
 20
25.340316
 30
0.0
 10
57.896506
 20
25.806208
 30
0.0
  0
LWPOLYLINE
  5
361
100
AcDbEntity
  8
0
 62
7
100
AcDbPolyline
 90
25
 70
0
 10
147.896498
 20
25.806208
 30
0.0
 10
147.835163
 20
26.272072
 30
0.0
 10
147.655342
 20
26.706187
 30
0.0
 10
147.369290
 20
27.079002
 30
0.0
 10
146.996497
 20
27.365034
 30
0.0
 10
146.562372
 20
27.544866
 30
0.0
 10
146.096499
 20
27.606193
 30
0.0
 10
145.630623
 20
27.544866
 30
0.0
 10
145.196498
 20
27.365034
 30
0.0
 10
144.823705
 20
27.079002
 30
0.0
 10
144.537653
 20
26.706187
 30
0.0
 10
144.357832
 20
26.272072
 30
0.0
 10
144.296497
 20
25.806208
 30
0.0
 10
144.357832
 20
25.340316
 30
0.0
 10
144.537653
 20
24.906201
 30
0.0
 10
144.823705
 20
24.533414
 30
0.0
 10
145.196498
 20
24.247354
 30
0.0
 10
145.630623
 20
24.067522
 30
0.0
 10
146.096499
 20
24.006195
 30
0.0
 10
146.562372
 20
24.067522
 30
0.0
 10
146.996497
 20
24.247354
 30
0.0
 10
147.369290
 20
24.533414
 30
0.0
 10
147.655342
 20
24.906201
 30
0.0
 10
147.835163
 20
25.340316
 30
0.0
 10
147.896498
 20
25.806208
 30
0.0
  0
LWPOLYLINE
  5
362
100
AcDbEntity
  8
0
 62
7
100
AcDbPolyline
 90
25
 70
0
 10
237.896490
 20
25.806208
 30
0.0
 10
237.835158
 20
26.272072
 30
0.0
 10
237.655337
 20
26.706187
 30
0.0
 10
237.369282
 20
27.079002
 30
0.0
 10
236.996489
 20
27.365034
 30
0.0
 10
236.562364
 20
27.544866
 30
0.0
 10
236.096491
 20
27.606193
 30
0.0
 10
235.630616
 20
27.544866
 30
0.0
 10
235.196490
 20
27.365034
 30
0.0
 10
234.823700
 20
27.079002
 30
0.0
 10
234.537645
 20
26.706187
 30
0.0
 10
234.357824
 20
26.272072
 30
0.0
 10
234.296492
 20
25.806208
 30
0.0
 10
234.357824
 20
25.340316
 30
0.0
 10
234.537645
 20
24.906201
 30
0.0
 10
234.823700
 20
24.533414
 30
0.0
 10
235.196490
 20
24.247354
 30
0.0
 10
235.630616
 20
24.067522
 30
0.0
 10
236.096491
 20
24.006195
 30
0.0
 10
236.562364
 20
24.067522
 30
0.0
 10
236.996489
 20
24.247354
 30
0.0
 10
237.369282
 20
24.533414
 30
0.0
 10
237.655337
 20
24.906201
 30
0.0
 10
237.835158
 20
25.340316
 30
0.0
 10
237.896490
 20
25.806208
 30
0.0
  0
LWPOLYLINE
  5
363
100
AcDbEntity
  8
0
 62
7
100
AcDbPolyline
 90
25
 70
0
 10
324.296476
 20
25.806208
 30
0.0
 10
324.357831
 20
25.340316
 30
0.0
 10
324.537634
 20
24.906201
 30
0.0
 10
324.823695
 20
24.533414
 30
0.0
 10
325.196482
 20
24.247354
 30
0.0
 10
325.630596
 20
24.067522
 30
0.0
 10
326.096489
 20
24.006195
 30
0.0
 10
326.562353
 20
24.067522
 30
0.0
 10
326.996496
 20
24.247354
 30
0.0
 10
327.369283
 20
24.533414
 30
0.0
 10
327.655315
 20
24.906201
 30
0.0
 10
327.835147
 20
25.340316
 30
0.0
 10
327.896474
 20
25.806208
 30
0.0
 10
327.835147
 20
26.272072
 30
0.0
 10
327.655315
 20
26.706187
 30
0.0
 10
327.369283
 20
27.079002
 30
0.0
 10
326.996496
 20
27.365034
 30
0.0
 10
326.562353
 20
27.544866
 30
0.0
 10
326.096489
 20
27.606193
 30
0.0
 10
325.630596
 20
27.544866
 30
0.0
 10
325.196482
 20
27.365034
 30
0.0
 10
324.823695
 20
27.079002
 30
0.0
 10
324.537634
 20
26.706187
 30
0.0
 10
324.357831
 20
26.272072
 30
0.0
 10
324.296476
 20
25.806208
 30
0.0
  0
LWPOLYLINE
  5
364
100
AcDbEntity
  8
0
 62
7
100
AcDbPolyline
 90
2
 70
0
 10
286.026126
 20
340.806171
 30
0.0
 10
286.026126
 20
337.806171
 30
0.0
  0
LWPOLYLINE
  5
365
100
AcDbEntity
  8
0
 62
7
100
AcDbPolyline
 90
2
 70
0
 10
66.026151
 20
337.806171
 30
0.0
 10
86.026148
 20
317.806174
 30
0.0
  0
LWPOLYLINE
  5
366
100
AcDbEntity
  8
0
 62
7
100
AcDbPolyline
 90
2
 70
0
 10
256.026135
 20
321.806172
 30
0.0
 10
254.026137
 20
319.806173
 30
0.0
  0
LWPOLYLINE
  5
367
100
AcDbEntity
  8
0
 62
7
100
AcDbPolyline
 90
3
 70
0
 10
216.026139
 20
281.806176
 30
0.0
 10
214.026140
 20
279.806177
 30
0.0
 10
204.026141
 20
269.806177
 30
0.0
  0
LWPOLYLINE
  5
368
100
AcDbEntity
  8
0
 62
7
100
AcDbPolyline
 90
2
 70
0
 10
244.026137
 20
309.806173
 30
0.0
 10
216.026139
 20
281.806176
 30
0.0
  0
LWPOLYLINE
  5
369
100
AcDbEntity
  8
0
 62
7
100
AcDbPolyline
 90
3
 70
0
 10
204.096493
 20
269.806177
 30
0.0
 10
204.026141
 20
269.806177
 30
0.0
 10
148.026145
 20
269.806177
 30
0.0
  0
LWPOLYLINE
  5
36a
100
AcDbEntity
  8
0
 62
7
100
AcDbPolyline
 90
2
 70
0
 10
108.026146
 20
309.806173
 30
0.0
 10
148.026145
 20
269.806177
 30
0.0
  0
LWPOLYLINE
  5
36b
100
AcDbEntity
  8
0
 62
7
100
AcDbPolyline
 90
2
 70
0
 10
156.026144
 20
229.806181
 30
0.0
 10
136.026144
 20
209.806179
 30
0.0
  0
LWPOLYLINE
  5
36c
100
AcDbEntity
  8
0
 62
7
100
AcDbPolyline
 90
2
 70
0
 10
136.026144
 20
259.806178
 30
0.0
 10
136.096499
 20
259.806178
 30
0.0
  0
LWPOLYLINE
  5
36d
100
AcDbEntity
  8
0
 62
7
100
AcDbPolyline
 90
3
 70
0
 10
96.026148
 20
239.806181
 30
0.0
 10
116.026147
 20
259.806178
 30
0.0
 10
136.026144
 20
259.806178
 30
0.0
  0
LWPOLYLINE
  5
36e
100
AcDbEntity
  8
0
 62
7
100
AcDbPolyline
 90
2
 70
0
 10
116.026147
 20
209.806179
 30
0.0
 10
96.026148
 20
229.806181
 30
0.0
  0
LWPOLYLINE
  5
36f
100
AcDbEntity
  8
0
 62
7
100
AcDbPolyline
 90
2
 70
0
 10
246.026136
 20
239.806181
 30
0.0
 10
246.026136
 20
229.806181
 30
0.0
  0
LWPOLYLINE
  5
370
100
AcDbEntity
  8
0
 62
7
100
AcDbPolyline
 90
2
 70
0
 10
196.026140
 20
229.806181
 30
0.0
 10
196.026140
 20
239.806181
 30
0.0
  0
LWPOLYLINE
  5
371
100
AcDbEntity
  8
0
 62
7
100
AcDbPolyline
 90
2
 70
0
 10
236.096491
 20
249.735825
 30
0.0
 10
246.026136
 20
239.806181
 30
0.0
  0
LWPOLYLINE
  5
372
100
AcDbEntity
  8
0
 62
7
100
AcDbPolyline
 90
2
 70
0
 10
226.026139
 20
259.806178
 30
0.0
 10
236.096491
 20
249.735825
 30
0.0
  0
LWPOLYLINE
  5
373
100
AcDbEntity
  8
0
 62
7
100
AcDbPolyline
 90
2
 70
0
 10
246.026136
 20
229.806181
 30
0.0
 10
236.096491
 20
219.876534
 30
0.0
  0
LWPOLYLINE
  5
374
100
AcDbEntity
  8
0
 62
7
100
AcDbPolyline
 90
2
 70
0
 10
216.026139
 20
209.806179
 30
0.0
 10
196.026140
 20
229.806181
 30
0.0
  0
LWPOLYLINE
  5
375
100
AcDbEntity
  8
0
 62
7
100
AcDbPolyline
 90
2
 70
0
 10
196.026140
 20
239.806181
 30
0.0
 10
216.026139
 20
259.806178
 30
0.0
  0
LWPOLYLINE
  5
376
100
AcDbEntity
  8
0
 62
7
100
AcDbPolyline
 90
2
 70
0
 10
236.096491
 20
219.876534
 30
0.0
 10
226.026139
 20
209.806179
 30
0.0
  0
LWPOLYLINE
  5
377
100
AcDbEntity
  8
0
 62
7
100
AcDbPolyline
 90
2
 70
0
 10
216.026139
 20
259.806178
 30
0.0
 10
226.026139
 20
259.806178
 30
0.0
  0
LWPOLYLINE
  5
378
100
AcDbEntity
  8
0
 62
7
100
AcDbPolyline
 90
2
 70
0
 10
236.096491
 20
219.876534
 30
0.0
 10
236.096491
 20
219.806181
 30
0.0
  0
LWPOLYLINE
  5
379
100
AcDbEntity
  8
0
 62
7
100
AcDbPolyline
 90
2
 70
0
 10
226.026139
 20
209.806179
 30
0.0
 10
216.026139
 20
209.806179
 30
0.0
  0
LWPOLYLINE
  5
37a
100
AcDbEntity
  8
0
 62
7
100
AcDbPolyline
 90
2
 70
0
 10
244.026137
 20
159.806194
 30
0.0
 10
108.096502
 20
159.806194
 30
0.0
  0
LWPOLYLINE
  5
37b
100
AcDbEntity
  8
0
 62
7
100
AcDbPolyline
 90
2
 70
0
 10
204.026141
 20
199.806171
 30
0.0
 10
148.096498
 20
199.806171
 30
0.0
  0
LWPOLYLINE
  5
37c
100
AcDbEntity
  8
0
 62
7
100
AcDbPolyline
 90
2
 70
0
 10
244.026137
 20
309.806173
 30
0.0
 10
244.096489
 20
309.806173
 30
0.0
  0
LWPOLYLINE
  5
37d
100
AcDbEntity
  8
0
 62
7
100
AcDbPolyline
 90
2
 70
0
 10
265.889839
 20
246.704333
 30
0.0
 10
265.721654
 20
247.199791
 30
0.0
  0
LWPOLYLINE
  5
37e
100
AcDbEntity
  8
0
 62
7
100
AcDbPolyline
 90
2
 70
0
 10
269.526134
 20
234.806180
 30
0.0
 10
269.577247
 20
234.417952
 30
0.0
  0
LWPOLYLINE
  5
37f
100
AcDbEntity
  8
0
 62
7
100
AcDbPolyline
 90
2
 70
0
 10
250.637906
 20
233.357293
 30
0.0
 10
251.026137
 20
233.306180
 30
0.0
  0
LWPOLYLINE
  5
380
100
AcDbEntity
  8
0
 62
7
100
AcDbPolyline
 90
2
 70
0
 10
250.276137
 20
233.507142
 30
0.0
 10
250.637906
 20
233.357293
 30
0.0
  0
LWPOLYLINE
  5
381
100
AcDbEntity
  8
0
 62
7
100
AcDbPolyline
 90
2
 70
0
 10
249.965475
 20
233.745521
 30
0.0
 10
250.276137
 20
233.507142
 30
0.0
  0
LWPOLYLINE
  5
382
100
AcDbEntity
  8
0
 62
7
100
AcDbPolyline
 90
2
 70
0
 10
270.276134
 20
236.105217
 30
0.0
 10
269.965475
 20
235.866841
 30
0.0
  0
LWPOLYLINE
  5
383
100
AcDbEntity
  8
0
 62
7
100
AcDbPolyline
 90
2
 70
0
 10
252.475024
 20
234.417952
 30
0.0
 10
252.526137
 20
234.806180
 30
0.0
  0
LWPOLYLINE
  5
384
100
AcDbEntity
  8
0
 62
7
100
AcDbPolyline
 90
2
 70
0
 10
251.414365
 20
233.357293
 30
0.0
 10
251.776137
 20
233.507142
 30
0.0
  0
LWPOLYLINE
  5
385
100
AcDbEntity
  8
0
 62
7
100
AcDbPolyline
 90
2
 70
0
 10
251.026137
 20
233.306180
 30
0.0
 10
251.414365
 20
233.357293
 30
0.0
  0
LWPOLYLINE
  5
386
100
AcDbEntity
  8
0
 62
7
100
AcDbPolyline
 90
2
 70
0
 10
256.060358
 20
246.191159
 30
0.0
 10
256.026135
 20
245.669057
 30
0.0
  0
LWPOLYLINE
  5
387
100
AcDbEntity
  8
0
 62
7
100
AcDbPolyline
 90
2
 70
0
 10
256.852722
 20
248.104101
 30
0.0
 10
256.562033
 20
247.669056
 30
0.0
  0
LWPOLYLINE
  5
388
100
AcDbEntity
  8
0
 62
7
100
AcDbPolyline
 90
2
 70
0
 10
250.637906
 20
236.255069
 30
0.0
 10
250.276137
 20
236.105217
 30
0.0
  0
LWPOLYLINE
  5
389
100
AcDbEntity
  8
0
 62
7
100
AcDbPolyline
 90
2
 70
0
 10
270.637906
 20
233.357293
 30
0.0
 10
271.026134
 20
233.306180
 30
0.0
  0
LWPOLYLINE
  5
38a
100
AcDbEntity
  8
0
 62
7
100
AcDbPolyline
 90
2
 70
0
 10
272.390641
 20
235.398124
 30
0.0
 10
272.325171
 20
235.556179
 30
0.0
  0
LWPOLYLINE
  5
38b
100
AcDbEntity
  8
0
 62
7
100
AcDbPolyline
 90
2
 70
0
 10
272.377713
 20
234.183024
 30
0.0
 10
272.475023
 20
234.417952
 30
0.0
  0
LWPOLYLINE
  5
38c
100
AcDbEntity
  8
0
 62
7
100
AcDbPolyline
 90
2
 70
0
 10
251.776137
 20
233.507142
 30
0.0
 10
252.086796
 20
233.745521
 30
0.0
  0
LWPOLYLINE
  5
38d
100
AcDbEntity
  8
0
 62
7
100
AcDbPolyline
 90
2
 70
0
 10
272.475023
 20
235.194410
 30
0.0
 10
272.390641
 20
235.398124
 30
0.0
  0
LWPOLYLINE
  5
38e
100
AcDbEntity
  8
0
 62
7
100
AcDbPolyline
 90
2
 70
0
 10
270.276134
 20
233.507142
 30
0.0
 10
270.637906
 20
233.357293
 30
0.0
  0
LWPOLYLINE
  5
38f
100
AcDbEntity
  8
0
 62
7
100
AcDbPolyline
 90
2
 70
0
 10
272.086795
 20
233.745521
 30
0.0
 10
272.325171
 20
234.056180
 30
0.0
  0
LWPOLYLINE
  5
390
100
AcDbEntity
  8
0
 62
7
100
AcDbPolyline
 90
2
 70
0
 10
249.727099
 20
235.556179
 30
0.0
 10
249.577248
 20
235.194410
 30
0.0
  0
LWPOLYLINE
  5
391
100
AcDbEntity
  8
0
 62
7
100
AcDbPolyline
 90
2
 70
0
 10
271.776134
 20
233.507142
 30
0.0
 10
272.086795
 20
233.745521
 30
0.0
  0
LWPOLYLINE
  5
392
100
AcDbEntity
  8
0
 62
7
100
AcDbPolyline
 90
2
 70
0
 10
271.414364
 20
233.357293
 30
0.0
 10
271.776134
 20
233.507142
 30
0.0
  0
LWPOLYLINE
  5
393
100
AcDbEntity
  8
0
 62
7
100
AcDbPolyline
 90
2
 70
0
 10
259.504030
 20
249.634835
 30
0.0
 10
258.990860
 20
249.532758
 30
0.0
  0
LWPOLYLINE
  5
394
100
AcDbEntity
  8
0
 62
7
100
AcDbPolyline
 90
2
 70
0
 10
260.026136
 20
249.669054
 30
0.0
 10
259.504030
 20
249.634835
 30
0.0
  0
LWPOLYLINE
  5
395
100
AcDbEntity
  8
0
 62
7
100
AcDbPolyline
 90
2
 70
0
 10
260.026136
 20
249.669054
 30
0.0
 10
262.026135
 20
249.669054
 30
0.0
  0
LWPOLYLINE
  5
396
100
AcDbEntity
  8
0
 62
7
100
AcDbPolyline
 90
2
 70
0
 10
256.026135
 20
222.669058
 30
0.0
 10
256.026135
 20
245.669057
 30
0.0
  0
LWPOLYLINE
  5
397
100
AcDbEntity
  8
0
 62
7
100
AcDbPolyline
 90
2
 70
0
 10
249.526137
 20
234.806180
 30
0.0
 10
249.577248
 20
234.417952
 30
0.0
  0
LWPOLYLINE
  5
398
100
AcDbEntity
  8
0
 62
7
100
AcDbPolyline
 90
2
 70
0
 10
256.562033
 20
220.669059
 30
0.0
 10
256.852722
 20
220.234013
 30
0.0
  0
LWPOLYLINE
  5
399
100
AcDbEntity
  8
0
 62
7
100
AcDbPolyline
 90
2
 70
0
 10
256.162432
 20
246.704333
 30
0.0
 10
256.060358
 20
246.191159
 30
0.0
  0
LWPOLYLINE
  5
39a
100
AcDbEntity
  8
0
 62
7
100
AcDbPolyline
 90
2
 70
0
 10
256.330617
 20
247.199791
 30
0.0
 10
256.162432
 20
246.704333
 30
0.0
  0
LWPOLYLINE
  5
39b
100
AcDbEntity
  8
0
 62
7
100
AcDbPolyline
 90
2
 70
0
 10
256.562033
 20
247.669056
 30
0.0
 10
256.330617
 20
247.199791
 30
0.0
  0
LWPOLYLINE
  5
39c
100
AcDbEntity
  8
0
 62
7
100
AcDbPolyline
 90
2
 70
0
 10
249.577248
 20
235.194410
 30
0.0
 10
249.526137
 20
234.806180
 30
0.0
  0
LWPOLYLINE
  5
39d
100
AcDbEntity
  8
0
 62
7
100
AcDbPolyline
 90
2
 70
0
 10
269.577247
 20
235.194410
 30
0.0
 10
269.526134
 20
234.806180
 30
0.0
  0
LWPOLYLINE
  5
39e
100
AcDbEntity
  8
0
 62
7
100
AcDbPolyline
 90
4
 70
0
 10
264.461182
 20
248.842468
 30
0.0
 10
264.026136
 20
249.133157
 30
0.0
 10
263.556869
 20
249.364573
 30
0.0
 10
263.061410
 20
249.532758
 30
0.0
  0
LWPOLYLINE
  5
39f
100
AcDbEntity
  8
0
 62
7
100
AcDbPolyline
 90
2
 70
0
 10
265.721654
 20
247.199791
 30
0.0
 10
265.490238
 20
247.669056
 30
0.0
  0
LWPOLYLINE
  5
3a0
100
AcDbEntity
  8
0
 62
7
100
AcDbPolyline
 90
2
 70
0
 10
272.086795
 20
235.866841
 30
0.0
 10
271.776134
 20
236.105217
 30
0.0
  0
LWPOLYLINE
  5
3a1
100
AcDbEntity
  8
0
 62
7
100
AcDbPolyline
 90
2
 70
0
 10
257.197708
 20
219.840632
 30
0.0
 10
257.591089
 20
219.495658
 30
0.0
  0
LWPOLYLINE
  5
3a2
100
AcDbEntity
  8
0
 62
7
100
AcDbPolyline
 90
4
 70
0
 10
265.490238
 20
247.669056
 30
0.0
 10
265.199549
 20
248.104101
 30
0.0
 10
264.854563
 20
248.497482
 30
0.0
 10
264.461182
 20
248.842468
 30
0.0
  0
LWPOLYLINE
  5
3a3
100
AcDbEntity
  8
0
 62
7
100
AcDbPolyline
 90
2
 70
0
 10
272.325171
 20
235.556179
 30
0.0
 10
272.086795
 20
235.866841
 30
0.0
  0
LWPOLYLINE
  5
3a4
100
AcDbEntity
  8
0
 62
7
100
AcDbPolyline
 90
2
 70
0
 10
265.199549
 20
220.234013
 30
0.0
 10
265.490238
 20
220.669059
 30
0.0
  0
LWPOLYLINE
  5
3a5
100
AcDbEntity
  8
0
 62
7
100
AcDbPolyline
 90
2
 70
0
 10
258.026134
 20
249.133157
 30
0.0
 10
257.591089
 20
248.842468
 30
0.0
  0
LWPOLYLINE
  5
3a6
100
AcDbEntity
  8
0
 62
7
100
AcDbPolyline
 90
2
 70
0
 10
256.330617
 20
221.138324
 30
0.0
 10
256.562033
 20
220.669059
 30
0.0
  0
LWPOLYLINE
  5
3a7
100
AcDbEntity
  8
0
 62
7
100
AcDbPolyline
 90
4
 70
0
 10
265.490238
 20
220.669059
 30
0.0
 10
265.721654
 20
221.138324
 30
0.0
 10
265.889839
 20
221.633782
 30
0.0
 10
265.991916
 20
222.146952
 30
0.0
  0
LWPOLYLINE
  5
3a8
100
AcDbEntity
  8
0
 62
7
100
AcDbPolyline
 90
2
 70
0
 10
252.086796
 20
235.866841
 30
0.0
 10
251.776137
 20
236.105217
 30
0.0
  0
LWPOLYLINE
  5
3a9
100
AcDbEntity
  8
0
 62
7
100
AcDbPolyline
 90
2
 70
0
 10
250.276137
 20
236.105217
 30
0.0
 10
249.965475
 20
235.866841
 30
0.0
  0
LWPOLYLINE
  5
3aa
100
AcDbEntity
  8
0
 62
7
100
AcDbPolyline
 90
2
 70
0
 10
251.414365
 20
236.255069
 30
0.0
 10
251.026137
 20
236.306179
 30
0.0
  0
LWPOLYLINE
  5
3ab
100
AcDbEntity
  8
0
 62
7
100
AcDbPolyline
 90
2
 70
0
 10
269.965475
 20
233.745521
 30
0.0
 10
270.276134
 20
233.507142
 30
0.0
  0
LWPOLYLINE
  5
3ac
100
AcDbEntity
  8
0
 62
7
100
AcDbPolyline
 90
2
 70
0
 10
252.325175
 20
235.556179
 30
0.0
 10
252.086796
 20
235.866841
 30
0.0
  0
LWPOLYLINE
  5
3ad
100
AcDbEntity
  8
0
 62
7
100
AcDbPolyline
 90
2
 70
0
 10
249.965475
 20
235.866841
 30
0.0
 10
249.727099
 20
235.556179
 30
0.0
  0
LWPOLYLINE
  5
3ae
100
AcDbEntity
  8
0
 62
7
100
AcDbPolyline
 90
2
 70
0
 10
270.637906
 20
236.255069
 30
0.0
 10
270.276134
 20
236.105217
 30
0.0
  0
LWPOLYLINE
  5
3af
100
AcDbEntity
  8
0
 62
7
100
AcDbPolyline
 90
2
 70
0
 10
264.854563
 20
219.840632
 30
0.0
 10
265.199549
 20
220.234013
 30
0.0
  0
LWPOLYLINE
  5
3b0
100
AcDbEntity
  8
0
 62
7
100
AcDbPolyline
 90
2
 70
0
 10
264.026136
 20
219.204969
 30
0.0
 10
264.461182
 20
219.495658
 30
0.0
  0
LWPOLYLINE
  5
3b1
100
AcDbEntity
  8
0
 62
7
100
AcDbPolyline
 90
2
 70
0
 10
263.556869
 20
218.973547
 30
0.0
 10
264.026136
 20
219.204969
 30
0.0
  0
LWPOLYLINE
  5
3b2
100
AcDbEntity
  8
0
 62
7
100
AcDbPolyline
 90
2
 70
0
 10
271.776134
 20
236.105217
 30
0.0
 10
271.414364
 20
236.255069
 30
0.0
  0
LWPOLYLINE
  5
3b3
100
AcDbEntity
  8
0
 62
7
100
AcDbPolyline
 90
2
 70
0
 10
258.026134
 20
219.204969
 30
0.0
 10
258.495402
 20
218.973547
 30
0.0
  0
LWPOLYLINE
  5
3b4
100
AcDbEntity
  8
0
 62
7
100
AcDbPolyline
 90
2
 70
0
 10
257.591089
 20
219.495658
 30
0.0
 10
258.026134
 20
219.204969
 30
0.0
  0
LWPOLYLINE
  5
3b5
100
AcDbEntity
  8
0
 62
7
100
AcDbPolyline
 90
2
 70
0
 10
271.026134
 20
236.306179
 30
0.0
 10
270.637906
 20
236.255069
 30
0.0
  0
LWPOLYLINE
  5
3b6
100
AcDbEntity
  8
0
 62
7
100
AcDbPolyline
 90
2
 70
0
 10
175.597035
 20
256.530980
 30
0.0
 10
175.162935
 20
256.351097
 30
0.0
  0
LWPOLYLINE
  5
3b7
100
AcDbEntity
  8
0
 62
7
100
AcDbPolyline
 90
2
 70
0
 10
177.335767
 20
256.065353
 30
0.0
 10
176.962935
 20
256.351354
 30
0.0
  0
LWPOLYLINE
  5
3b8
100
AcDbEntity
  8
0
 62
7
100
AcDbPolyline
 90
2
 70
0
 10
174.263157
 20
254.792122
 30
0.0
 10
174.324558
 20
254.326257
 30
0.0
  0
LWPOLYLINE
  5
3b9
100
AcDbEntity
  8
0
 62
7
100
AcDbPolyline
 90
2
 70
0
 10
175.162935
 20
256.351097
 30
0.0
 10
174.790185
 20
256.064989
 30
0.0
  0
LWPOLYLINE
  5
3ba
100
AcDbEntity
  8
0
 62
7
100
AcDbPolyline
 90
2
 70
0
 10
176.062900
 20
256.592380
 30
0.0
 10
176.026143
 20
256.587526
 30
0.0
  0
LWPOLYLINE
  5
3bb
100
AcDbEntity
  8
0
 62
7
100
AcDbPolyline
 90
2
 70
0
 10
174.324425
 20
214.278216
 30
0.0
 10
174.263157
 20
213.812323
 30
0.0
  0
LWPOLYLINE
  5
3bc
100
AcDbEntity
  8
0
 62
7
100
AcDbPolyline
 90
2
 70
0
 10
177.622132
 20
212.912796
 30
0.0
 10
177.801891
 20
213.346967
 30
0.0
  0
LWPOLYLINE
  5
3bd
100
AcDbEntity
  8
0
 62
7
100
AcDbPolyline
 90
2
 70
0
 10
177.336131
 20
212.539981
 30
0.0
 10
177.622132
 20
212.912796
 30
0.0
  0
LWPOLYLINE
  5
3be
100
AcDbEntity
  8
0
 62
7
100
AcDbPolyline
 90
2
 70
0
 10
175.597532
 20
212.073863
 30
0.0
 10
176.026143
 20
212.017475
 30
0.0
  0
LWPOLYLINE
  5
3bf
100
AcDbEntity
  8
0
 62
7
100
AcDbPolyline
 90
2
 70
0
 10
177.621875
 20
214.712810
 30
0.0
 10
177.335767
 20
215.085569
 30
0.0
  0
LWPOLYLINE
  5
3c0
100
AcDbEntity
  8
0
 62
7
100
AcDbPolyline
 90
2
 70
0
 10
176.026143
 20
252.997281
 30
0.0
 10
176.063416
 20
252.992371
 30
0.0
  0
LWPOLYLINE
  5
3c1
100
AcDbEntity
  8
0
 62
7
100
AcDbPolyline
 90
2
 70
0
 10
175.162935
 20
215.371291
 30
0.0
 10
174.790185
 20
215.085202
 30
0.0
  0
LWPOLYLINE
  5
3c2
100
AcDbEntity
  8
0
 62
7
100
AcDbPolyline
 90
2
 70
0
 10
174.504440
 20
212.912373
 30
0.0
 10
174.790549
 20
212.539614
 30
0.0
  0
LWPOLYLINE
  5
3c3
100
AcDbEntity
  8
0
 62
7
100
AcDbPolyline
 90
2
 70
0
 10
174.263157
 20
213.812323
 30
0.0
 10
174.324558
 20
213.346459
 30
0.0
  0
LWPOLYLINE
  5
3c4
100
AcDbEntity
  8
0
 62
7
100
AcDbPolyline
 90
2
 70
0
 10
177.336131
 20
253.519771
 30
0.0
 10
177.622132
 20
253.892603
 30
0.0
  0
LWPOLYLINE
  5
3c5
100
AcDbEntity
  8
0
 62
7
100
AcDbPolyline
 90
2
 70
0
 10
176.963380
 20
253.233662
 30
0.0
 10
177.336131
 20
253.519771
 30
0.0
  0
LWPOLYLINE
  5
3c6
100
AcDbEntity
  8
0
 62
7
100
AcDbPolyline
 90
2
 70
0
 10
176.529280
 20
253.053779
 30
0.0
 10
176.963380
 20
253.233662
 30
0.0
  0
LWPOLYLINE
  5
3c7
100
AcDbEntity
  8
0
 62
7
100
AcDbPolyline
 90
2
 70
0
 10
176.063416
 20
252.992379
 30
0.0
 10
176.529280
 20
253.053779
 30
0.0
  0
LWPOLYLINE
  5
3c8
100
AcDbEntity
  8
0
 62
7
100
AcDbPolyline
 90
2
 70
0
 10
175.163381
 20
253.233405
 30
0.0
 10
175.597532
 20
253.053647
 30
0.0
  0
LWPOLYLINE
  5
3c9
100
AcDbEntity
  8
0
 62
7
100
AcDbPolyline
 90
2
 70
0
 10
174.790549
 20
253.519407
 30
0.0
 10
175.163381
 20
253.233405
 30
0.0
  0
LWPOLYLINE
  5
3ca
100
AcDbEntity
  8
0
 62
7
100
AcDbPolyline
 90
2
 70
0
 10
177.621875
 20
255.692602
 30
0.0
 10
177.335767
 20
256.065353
 30
0.0
  0
LWPOLYLINE
  5
3cb
100
AcDbEntity
  8
0
 62
7
100
AcDbPolyline
 90
2
 70
0
 10
177.801758
 20
255.258502
 30
0.0
 10
177.621875
 20
255.692602
 30
0.0
  0
LWPOLYLINE
  5
3cc
100
AcDbEntity
  8
0
 62
7
100
AcDbPolyline
 90
2
 70
0
 10
177.863159
 20
254.792638
 30
0.0
 10
177.801758
 20
255.258502
 30
0.0
  0
LWPOLYLINE
  5
3cd
100
AcDbEntity
  8
0
 62
7
100
AcDbPolyline
 90
2
 70
0
 10
176.962935
 20
256.351354
 30
0.0
 10
176.528784
 20
256.531113
 30
0.0
  0
LWPOLYLINE
  5
3ce
100
AcDbEntity
  8
0
 62
7
100
AcDbPolyline
 90
2
 70
0
 10
177.622132
 20
253.892603
 30
0.0
 10
177.801891
 20
254.326754
 30
0.0
  0
LWPOLYLINE
  5
3cf
100
AcDbEntity
  8
0
 62
7
100
AcDbPolyline
 90
2
 70
0
 10
176.026143
 20
215.607736
 30
0.0
 10
175.597035
 20
215.551179
 30
0.0
  0
LWPOLYLINE
  5
3d0
100
AcDbEntity
  8
0
 62
7
100
AcDbPolyline
 90
2
 70
0
 10
174.324425
 20
255.258006
 30
0.0
 10
174.263157
 20
254.792122
 30
0.0
  0
LWPOLYLINE
  5
3d1
100
AcDbEntity
  8
0
 62
7
100
AcDbPolyline
 90
2
 70
0
 10
174.324558
 20
254.326257
 30
0.0
 10
174.504440
 20
253.892157
 30
0.0
  0
LWPOLYLINE
  5
3d2
100
AcDbEntity
  8
0
 62
7
100
AcDbPolyline
 90
3
 70
0
 10
100.637919
 20
271.255067
 30
0.0
 10
100.276149
 20
271.105215
 30
0.0
 10
99.965487
 20
270.866839
 30
0.0
  0
LWPOLYLINE
  5
3d3
100
AcDbEntity
  8
0
 62
7
100
AcDbPolyline
 90
2
 70
0
 10
95.991928
 20
258.291110
 30
0.0
 10
96.026148
 20
258.813215
 30
0.0
  0
LWPOLYLINE
  5
3d4
100
AcDbEntity
  8
0
 62
7
100
AcDbPolyline
 90
2
 70
0
 10
99.577260
 20
269.417950
 30
0.0
 10
99.727111
 20
269.056177
 30
0.0
  0
LWPOLYLINE
  5
3d5
100
AcDbEntity
  8
0
 62
7
100
AcDbPolyline
 90
2
 70
0
 10
80.276150
 20
271.105215
 30
0.0
 10
79.965491
 20
270.866839
 30
0.0
  0
LWPOLYLINE
  5
3d6
100
AcDbEntity
  8
0
 62
7
100
AcDbPolyline
 90
2
 70
0
 10
95.889851
 20
257.777940
 30
0.0
 10
95.991928
 20
258.291110
 30
0.0
  0
LWPOLYLINE
  5
3d7
100
AcDbEntity
  8
0
 62
7
100
AcDbPolyline
 90
3
 70
0
 10
82.526149
 20
269.806177
 30
0.0
 10
82.475039
 20
270.194405
 30
0.0
 10
82.325187
 20
270.556177
 30
0.0
  0
LWPOLYLINE
  5
3d8
100
AcDbEntity
  8
0
 62
7
100
AcDbPolyline
 90
2
 70
0
 10
101.414377
 20
271.255067
 30
0.0
 10
101.026149
 20
271.306177
 30
0.0
  0
LWPOLYLINE
  5
3d9
100
AcDbEntity
  8
0
 62
7
100
AcDbPolyline
 90
2
 70
0
 10
79.965491
 20
270.866839
 30
0.0
 10
79.727112
 20
270.556177
 30
0.0
  0
LWPOLYLINE
  5
3da
100
AcDbEntity
  8
0
 62
7
100
AcDbPolyline
 90
2
 70
0
 10
80.637922
 20
271.255067
 30
0.0
 10
80.276150
 20
271.105215
 30
0.0
  0
LWPOLYLINE
  5
3db
100
AcDbEntity
  8
0
 62
7
100
AcDbPolyline
 90
2
 70
0
 10
102.086808
 20
270.866839
 30
0.0
 10
101.776149
 20
271.105215
 30
0.0
  0
LWPOLYLINE
  5
3dc
100
AcDbEntity
  8
0
 62
7
100
AcDbPolyline
 90
2
 70
0
 10
80.276150
 20
268.507139
 30
0.0
 10
80.637922
 20
268.357288
 30
0.0
  0
LWPOLYLINE
  5
3dd
100
AcDbEntity
  8
0
 62
7
100
AcDbPolyline
 90
2
 70
0
 10
92.548253
 20
254.847437
 30
0.0
 10
93.061426
 20
254.949511
 30
0.0
  0
LWPOLYLINE
  5
3de
100
AcDbEntity
  8
0
 62
7
100
AcDbPolyline
 90
2
 70
0
 10
99.727111
 20
269.056177
 30
0.0
 10
99.965487
 20
268.745518
 30
0.0
  0
LWPOLYLINE
  5
3df
100
AcDbEntity
  8
0
 62
7
100
AcDbPolyline
 90
2
 70
0
 10
101.414377
 20
268.357288
 30
0.0
 10
101.776149
 20
268.507139
 30
0.0
  0
LWPOLYLINE
  5
3e0
100
AcDbEntity
  8
0
 62
7
100
AcDbPolyline
 90
4
 70
0
 10
94.026149
 20
255.349115
 30
0.0
 10
94.461195
 20
255.639801
 30
0.0
 10
94.854576
 20
255.984787
 30
0.0
 10
95.199561
 20
256.378168
 30
0.0
  0
LWPOLYLINE
  5
3e1
100
AcDbEntity
  8
0
 62
7
100
AcDbPolyline
 90
2
 70
0
 10
101.026149
 20
271.306177
 30
0.0
 10
100.637919
 20
271.255067
 30
0.0
  0
LWPOLYLINE
  5
3e2
100
AcDbEntity
  8
0
 62
7
100
AcDbPolyline
 90
2
 70
0
 10
95.721667
 20
257.282482
 30
0.0
 10
95.889851
 20
257.777940
 30
0.0
  0
LWPOLYLINE
  5
3e3
100
AcDbEntity
  8
0
 62
7
100
AcDbPolyline
 90
3
 70
0
 10
95.199561
 20
256.378168
 30
0.0
 10
95.490250
 20
256.813217
 30
0.0
 10
95.721667
 20
257.282482
 30
0.0
  0
LWPOLYLINE
  5
3e4
100
AcDbEntity
  8
0
 62
7
100
AcDbPolyline
 90
2
 70
0
 10
101.026149
 20
268.306177
 30
0.0
 10
101.414377
 20
268.357288
 30
0.0
  0
LWPOLYLINE
  5
3e5
100
AcDbEntity
  8
0
 62
7
100
AcDbPolyline
 90
9
 70
0
 10
88.026150
 20
285.277314
 30
0.0
 10
87.591104
 20
284.986626
 30
0.0
 10
87.197723
 20
284.641640
 30
0.0
 10
86.852735
 20
284.248259
 30
0.0
 10
86.562049
 20
283.813213
 30
0.0
 10
86.330632
 20
283.343948
 30
0.0
 10
86.162447
 20
282.848490
 30
0.0
 10
86.060370
 20
282.335317
 30
0.0
 10
86.026148
 20
281.813214
 30
0.0
  0
LWPOLYLINE
  5
3e6
100
AcDbEntity
  8
0
 62
7
100
AcDbPolyline
 90
4
 70
0
 10
95.991928
 20
282.335317
 30
0.0
 10
95.889851
 20
282.848490
 30
0.0
 10
95.721667
 20
283.343948
 30
0.0
 10
95.490250
 20
283.813213
 30
0.0
  0
LWPOLYLINE
  5
3e7
100
AcDbEntity
  8
0
 62
7
100
AcDbPolyline
 90
2
 70
0
 10
95.199561
 20
284.248259
 30
0.0
 10
94.854576
 20
284.641640
 30
0.0
  0
LWPOLYLINE
  5
3e8
100
AcDbEntity
  8
0
 62
7
100
AcDbPolyline
 90
4
 70
0
 10
88.495415
 20
255.117699
 30
0.0
 10
88.990873
 20
254.949511
 30
0.0
 10
89.504043
 20
254.847437
 30
0.0
 10
90.026149
 20
254.813215
 30
0.0
  0
LWPOLYLINE
  5
3e9
100
AcDbEntity
  8
0
 62
7
100
AcDbPolyline
 90
2
 70
0
 10
96.026148
 20
281.813214
 30
0.0
 10
95.991928
 20
282.335317
 30
0.0
  0
LWPOLYLINE
  5
3ea
100
AcDbEntity
  8
0
 62
7
100
AcDbPolyline
 90
2
 70
0
 10
89.504043
 20
285.778993
 30
0.0
 10
88.990873
 20
285.676916
 30
0.0
  0
LWPOLYLINE
  5
3eb
100
AcDbEntity
  8
0
 62
7
100
AcDbPolyline
 90
2
 70
0
 10
82.086811
 20
268.745518
 30
0.0
 10
82.325187
 20
269.056177
 30
0.0
  0
LWPOLYLINE
  5
3ec
100
AcDbEntity
  8
0
 62
7
100
AcDbPolyline
 90
2
 70
0
 10
79.577260
 20
270.194405
 30
0.0
 10
79.526150
 20
269.806177
 30
0.0
  0
LWPOLYLINE
  5
3ed
100
AcDbEntity
  8
0
 62
7
100
AcDbPolyline
 90
2
 70
0
 10
79.727112
 20
269.056177
 30
0.0
 10
79.965491
 20
268.745518
 30
0.0
  0
LWPOLYLINE
  5
3ee
100
AcDbEntity
  8
0
 62
7
100
AcDbPolyline
 90
2
 70
0
 10
102.526149
 20
269.806177
 30
0.0
 10
102.475036
 20
270.194405
 30
0.0
  0
LWPOLYLINE
  5
3ef
100
AcDbEntity
  8
0
 62
7
100
AcDbPolyline
 90
2
 70
0
 10
82.325187
 20
269.056177
 30
0.0
 10
82.475039
 20
269.417950
 30
0.0
  0
LWPOLYLINE
  5
3f0
100
AcDbEntity
  8
0
 62
7
100
AcDbPolyline
 90
2
 70
0
 10
86.060370
 20
258.291110
 30
0.0
 10
86.162447
 20
257.777940
 30
0.0
  0
LWPOLYLINE
  5
3f1
100
AcDbEntity
  8
0
 62
7
100
AcDbPolyline
 90
2
 70
0
 10
81.776149
 20
271.105215
 30
0.0
 10
81.414377
 20
271.255067
 30
0.0
  0
LWPOLYLINE
  5
3f2
100
AcDbEntity
  8
0
 62
7
100
AcDbPolyline
 90
2
 70
0
 10
82.086811
 20
270.866839
 30
0.0
 10
81.776149
 20
271.105215
 30
0.0
  0
LWPOLYLINE
  5
3f3
100
AcDbEntity
  8
0
 62
7
100
AcDbPolyline
 90
2
 70
0
 10
79.965491
 20
268.745518
 30
0.0
 10
80.276150
 20
268.507139
 30
0.0
  0
LWPOLYLINE
  5
3f4
100
AcDbEntity
  8
0
 62
7
100
AcDbPolyline
 90
2
 70
0
 10
79.727112
 20
270.556177
 30
0.0
 10
79.577260
 20
270.194405
 30
0.0
  0
LWPOLYLINE
  5
3f5
100
AcDbEntity
  8
0
 62
7
100
AcDbPolyline
 90
2
 70
0
 10
93.061426
 20
254.949511
 30
0.0
 10
93.556881
 20
255.117699
 30
0.0
  0
LWPOLYLINE
  5
3f6
100
AcDbEntity
  8
0
 62
7
100
AcDbPolyline
 90
2
 70
0
 10
90.026149
 20
285.813212
 30
0.0
 10
92.026147
 20
285.813212
 30
0.0
  0
LWPOLYLINE
  5
3f7
100
AcDbEntity
  8
0
 62
7
100
AcDbPolyline
 90
2
 70
0
 10
82.475039
 20
269.417950
 30
0.0
 10
82.526149
 20
269.806177
 30
0.0
  0
LWPOLYLINE
  5
3f8
100
AcDbEntity
  8
0
 62
7
100
AcDbPolyline
 90
2
 70
0
 10
94.026149
 20
285.277314
 30
0.0
 10
93.556881
 20
285.508731
 30
0.0
  0
LWPOLYLINE
  5
3f9
100
AcDbEntity
  8
0
 62
7
100
AcDbPolyline
 90
2
 70
0
 10
92.026147
 20
254.813215
 30
0.0
 10
92.548253
 20
254.847437
 30
0.0
  0
LWPOLYLINE
  5
3fa
100
AcDbEntity
  8
0
 62
7
100
AcDbPolyline
 90
2
 70
0
 10
88.495415
 20
285.508731
 30
0.0
 10
88.026150
 20
285.277314
 30
0.0
  0
LWPOLYLINE
  5
3fb
100
AcDbEntity
  8
0
 62
7
100
AcDbPolyline
 90
2
 70
0
 10
88.495415
 20
185.110662
 30
0.0
 10
88.990873
 20
184.942486
 30
0.0
  0
LWPOLYLINE
  5
3fc
100
AcDbEntity
  8
0
 62
7
100
AcDbPolyline
 90
2
 70
0
 10
88.026150
 20
185.342084
 30
0.0
 10
88.495415
 20
185.110662
 30
0.0
  0
LWPOLYLINE
  5
3fd
100
AcDbEntity
  8
0
 62
7
100
AcDbPolyline
 90
2
 70
0
 10
87.591104
 20
185.632773
 30
0.0
 10
88.026150
 20
185.342084
 30
0.0
  0
LWPOLYLINE
  5
3fe
100
AcDbEntity
  8
0
 62
7
100
AcDbPolyline
 90
2
 70
0
 10
87.197723
 20
185.977761
 30
0.0
 10
87.591104
 20
185.632773
 30
0.0
  0
LWPOLYLINE
  5
3ff
100
AcDbEntity
  8
0
 62
7
100
AcDbPolyline
 90
2
 70
0
 10
92.026147
 20
184.806172
 30
0.0
 10
90.026149
 20
184.806172
 30
0.0
  0
LWPOLYLINE
  5
400
100
AcDbEntity
  8
0
 62
7
100
AcDbPolyline
 90
2
 70
0
 10
79.577260
 20
200.194424
 30
0.0
 10
79.526150
 20
199.806171
 30
0.0
  0
LWPOLYLINE
  5
401
100
AcDbEntity
  8
0
 62
7
100
AcDbPolyline
 90
2
 70
0
 10
79.727112
 20
200.556176
 30
0.0
 10
79.577260
 20
200.194424
 30
0.0
  0
LWPOLYLINE
  5
402
100
AcDbEntity
  8
0
 62
7
100
AcDbPolyline
 90
2
 70
0
 10
95.889851
 20
212.841451
 30
0.0
 10
95.721667
 20
213.336920
 30
0.0
  0
LWPOLYLINE
  5
403
100
AcDbEntity
  8
0
 62
7
100
AcDbPolyline
 90
2
 70
0
 10
95.991928
 20
212.328286
 30
0.0
 10
95.889851
 20
212.841451
 30
0.0
  0
LWPOLYLINE
  5
404
100
AcDbEntity
  8
0
 62
7
100
AcDbPolyline
 90
2
 70
0
 10
96.026148
 20
211.806175
 30
0.0
 10
95.991928
 20
212.328286
 30
0.0
  0
LWPOLYLINE
  5
405
100
AcDbEntity
  8
0
 62
7
100
AcDbPolyline
 90
2
 70
0
 10
102.475036
 20
199.417946
 30
0.0
 10
102.526149
 20
199.806171
 30
0.0
  0
LWPOLYLINE
  5
406
100
AcDbEntity
  8
0
 62
7
100
AcDbPolyline
 90
2
 70
0
 10
79.965491
 20
200.866846
 30
0.0
 10
79.727112
 20
200.556176
 30
0.0
  0
LWPOLYLINE
  5
407
100
AcDbEntity
  8
0
 62
7
100
AcDbPolyline
 90
2
 70
0
 10
80.276150
 20
201.105211
 30
0.0
 10
79.965491
 20
200.866846
 30
0.0
  0
LWPOLYLINE
  5
408
100
AcDbEntity
  8
0
 62
7
100
AcDbPolyline
 90
2
 70
0
 10
92.548253
 20
184.840406
 30
0.0
 10
93.061426
 20
184.942486
 30
0.0
  0
LWPOLYLINE
  5
409
100
AcDbEntity
  8
0
 62
7
100
AcDbPolyline
 90
2
 70
0
 10
101.026149
 20
201.306182
 30
0.0
 10
100.637919
 20
201.255071
 30
0.0
  0
LWPOLYLINE
  5
40a
100
AcDbEntity
  8
0
 62
7
100
AcDbPolyline
 90
4
 70
0
 10
86.330632
 20
187.275447
 30
0.0
 10
86.562049
 20
186.806197
 30
0.0
 10
86.852735
 20
186.371151
 30
0.0
 10
87.197723
 20
185.977761
 30
0.0
  0
LWPOLYLINE
  5
40b
100
AcDbEntity
  8
0
 62
7
100
AcDbPolyline
 90
2
 70
0
 10
102.325187
 20
200.556176
 30
0.0
 10
102.086808
 20
200.866846
 30
0.0
  0
LWPOLYLINE
  5
40c
100
AcDbEntity
  8
0
 62
7
100
AcDbPolyline
 90
2
 70
0
 10
82.325187
 20
200.556176
 30
0.0
 10
82.086811
 20
200.866846
 30
0.0
  0
LWPOLYLINE
  5
40d
100
AcDbEntity
  8
0
 62
7
100
AcDbPolyline
 90
2
 70
0
 10
99.965487
 20
200.866846
 30
0.0
 10
99.727111
 20
200.556176
 30
0.0
  0
LWPOLYLINE
  5
40e
100
AcDbEntity
  8
0
 62
7
100
AcDbPolyline
 90
2
 70
0
 10
79.727112
 20
199.056193
 30
0.0
 10
79.965491
 20
198.745523
 30
0.0
  0
LWPOLYLINE
  5
40f
100
AcDbEntity
  8
0
 62
7
100
AcDbPolyline
 90
2
 70
0
 10
96.026148
 20
211.806175
 30
0.0
 10
96.026148
 20
188.806193
 30
0.0
  0
LWPOLYLINE
  5
410
100
AcDbEntity
  8
0
 62
7
100
AcDbPolyline
 90
2
 70
0
 10
81.414377
 20
198.357298
 30
0.0
 10
81.776149
 20
198.507158
 30
0.0
  0
LWPOLYLINE
  5
411
100
AcDbEntity
  8
0
 62
7
100
AcDbPolyline
 90
2
 70
0
 10
82.475039
 20
200.194424
 30
0.0
 10
82.325187
 20
200.556176
 30
0.0
  0
LWPOLYLINE
  5
412
100
AcDbEntity
  8
0
 62
7
100
AcDbPolyline
 90
2
 70
0
 10
99.727111
 20
199.056193
 30
0.0
 10
99.965487
 20
198.745523
 30
0.0
  0
LWPOLYLINE
  5
413
100
AcDbEntity
  8
0
 62
7
100
AcDbPolyline
 90
2
 70
0
 10
101.776149
 20
201.105211
 30
0.0
 10
101.414377
 20
201.255071
 30
0.0
  0
LWPOLYLINE
  5
414
100
AcDbEntity
  8
0
 62
7
100
AcDbPolyline
 90
2
 70
0
 10
86.562049
 20
213.806171
 30
0.0
 10
86.330632
 20
213.336920
 30
0.0
  0
LWPOLYLINE
  5
415
100
AcDbEntity
  8
0
 62
7
100
AcDbPolyline
 90
2
 70
0
 10
79.577260
 20
199.417946
 30
0.0
 10
79.727112
 20
199.056193
 30
0.0
  0
LWPOLYLINE
  5
416
100
AcDbEntity
  8
0
 62
7
100
AcDbPolyline
 90
2
 70
0
 10
70.242975
 20
338.043763
 30
0.0
 10
70.615768
 20
337.757708
 30
0.0
  0
LWPOLYLINE
  5
417
100
AcDbEntity
  8
0
 62
7
100
AcDbPolyline
 90
2
 70
0
 10
72.788560
 20
338.043763
 30
0.0
 10
73.074615
 20
338.416553
 30
0.0
  0
LWPOLYLINE
  5
418
100
AcDbEntity
  8
0
 62
7
100
AcDbPolyline
 90
2
 70
0
 10
71.049893
 20
341.055221
 30
0.0
 10
70.615768
 20
340.875400
 30
0.0
  0
LWPOLYLINE
  5
419
100
AcDbEntity
  8
0
 62
7
100
AcDbPolyline
 90
2
 70
0
 10
71.515769
 20
341.116553
 30
0.0
 10
71.096505
 20
341.056172
 30
0.0
  0
LWPOLYLINE
  5
41a
100
AcDbEntity
  8
0
 62
7
100
AcDbPolyline
 90
2
 70
0
 10
71.981641
 20
341.055221
 30
0.0
 10
71.515769
 20
341.116553
 30
0.0
  0
LWPOLYLINE
  5
41b
100
AcDbEntity
  8
0
 62
7
100
AcDbPolyline
 90
2
 70
0
 10
72.415767
 20
340.875400
 30
0.0
 10
71.981641
 20
341.055221
 30
0.0
  0
LWPOLYLINE
  5
41c
100
AcDbEntity
  8
0
 62
7
100
AcDbPolyline
 90
2
 70
0
 10
72.788560
 20
340.589345
 30
0.0
 10
72.415767
 20
340.875400
 30
0.0
  0
LWPOLYLINE
  5
41d
100
AcDbEntity
  8
0
 62
7
100
AcDbPolyline
 90
2
 70
0
 10
73.074615
 20
340.216555
 30
0.0
 10
72.788560
 20
340.589345
 30
0.0
  0
LWPOLYLINE
  5
41e
100
AcDbEntity
  8
0
 62
7
100
AcDbPolyline
 90
2
 70
0
 10
73.254435
 20
339.782429
 30
0.0
 10
73.074615
 20
340.216555
 30
0.0
  0
LWPOLYLINE
  5
41f
100
AcDbEntity
  8
0
 62
7
100
AcDbPolyline
 90
2
 70
0
 10
73.315768
 20
339.316554
 30
0.0
 10
73.254435
 20
339.782429
 30
0.0
  0
LWPOLYLINE
  5
420
100
AcDbEntity
  8
0
 62
7
100
AcDbPolyline
 90
2
 70
0
 10
73.254435
 20
338.850681
 30
0.0
 10
73.315768
 20
339.316554
 30
0.0
  0
LWPOLYLINE
  5
421
100
AcDbEntity
  8
0
 62
7
100
AcDbPolyline
 90
2
 70
0
 10
73.074615
 20
338.416553
 30
0.0
 10
73.254435
 20
338.850681
 30
0.0
  0
LWPOLYLINE
  5
422
100
AcDbEntity
  8
0
 62
7
100
AcDbPolyline
 90
2
 70
0
 10
69.874257
 20
340.016984
 30
0.0
 10
69.777102
 20
339.782429
 30
0.0
  0
LWPOLYLINE
  5
423
100
AcDbEntity
  8
0
 62
7
100
AcDbPolyline
 90
3
 70
0
 10
71.515769
 20
337.516555
 30
0.0
 10
71.981641
 20
337.577887
 30
0.0
 10
72.415767
 20
337.757708
 30
0.0
  0
LWPOLYLINE
  5
424
100
AcDbEntity
  8
0
 62
7
100
AcDbPolyline
 90
2
 70
0
 10
71.049893
 20
337.577887
 30
0.0
 10
71.515769
 20
337.516555
 30
0.0
  0
LWPOLYLINE
  5
425
100
AcDbEntity
  8
0
 62
7
100
AcDbPolyline
 90
2
 70
0
 10
72.415767
 20
337.757708
 30
0.0
 10
72.788560
 20
338.043763
 30
0.0
  0
LWPOLYLINE
  5
426
100
AcDbEntity
  8
0
 62
7
100
AcDbPolyline
 90
2
 70
0
 10
70.615768
 20
340.875400
 30
0.0
 10
70.242975
 20
340.589345
 30
0.0
  0
LWPOLYLINE
  5
427
100
AcDbEntity
  8
0
 62
7
100
AcDbPolyline
 90
2
 70
0
 10
69.956923
 20
340.216555
 30
0.0
 10
69.874257
 20
340.016984
 30
0.0
  0
LWPOLYLINE
  5
428
100
AcDbEntity
  8
0
 62
7
100
AcDbPolyline
 90
2
 70
0
 10
70.242975
 20
340.589345
 30
0.0
 10
69.956923
 20
340.216555
 30
0.0
  0
LWPOLYLINE
  5
429
100
AcDbEntity
  8
0
 62
7
100
AcDbPolyline
 90
2
 70
0
 10
69.715769
 20
339.316554
 30
0.0
 10
69.777102
 20
338.850681
 30
0.0
  0
LWPOLYLINE
  5
42a
100
AcDbEntity
  8
0
 62
7
100
AcDbPolyline
 90
2
 70
0
 10
69.777102
 20
339.782429
 30
0.0
 10
69.715769
 20
339.316554
 30
0.0
  0
LWPOLYLINE
  5
42b
100
AcDbEntity
  8
0
 62
7
100
AcDbPolyline
 90
2
 70
0
 10
279.636516
 20
337.757708
 30
0.0
 10
280.070642
 20
337.577887
 30
0.0
  0
LWPOLYLINE
  5
42c
100
AcDbEntity
  8
0
 62
7
100
AcDbPolyline
 90
2
 70
0
 10
282.095361
 20
338.416553
 30
0.0
 10
282.275167
 20
338.850681
 30
0.0
  0
LWPOLYLINE
  5
42d
100
AcDbEntity
  8
0
 62
7
100
AcDbPolyline
 90
2
 70
0
 10
280.536515
 20
337.516555
 30
0.0
 10
281.002390
 20
337.577887
 30
0.0
  0
LWPOLYLINE
  5
42e
100
AcDbEntity
  8
0
 62
7
100
AcDbPolyline
 90
2
 70
0
 10
281.809309
 20
340.589345
 30
0.0
 10
281.436516
 20
340.875400
 30
0.0
  0
LWPOLYLINE
  5
42f
100
AcDbEntity
  8
0
 62
7
100
AcDbPolyline
 90
2
 70
0
 10
278.736515
 20
339.316554
 30
0.0
 10
278.797851
 20
338.850681
 30
0.0
  0
LWPOLYLINE
  5
430
100
AcDbEntity
  8
0
 62
7
100
AcDbPolyline
 90
2
 70
0
 10
278.977671
 20
338.416553
 30
0.0
 10
279.263723
 20
338.043763
 30
0.0
  0
LWPOLYLINE
  5
431
100
AcDbEntity
  8
0
 62
7
100
AcDbPolyline
 90
2
 70
0
 10
278.797851
 20
339.782429
 30
0.0
 10
278.736515
 20
339.316554
 30
0.0
  0
LWPOLYLINE
  5
432
100
AcDbEntity
  8
0
 62
7
100
AcDbPolyline
 90
2
 70
0
 10
280.536515
 20
341.116553
 30
0.0
 10
280.070642
 20
341.055221
 30
0.0
  0
LWPOLYLINE
  5
433
100
AcDbEntity
  8
0
 62
7
100
AcDbPolyline
 90
2
 70
0
 10
281.436516
 20
337.757708
 30
0.0
 10
281.809309
 20
338.043763
 30
0.0
  0
LWPOLYLINE
  5
434
100
AcDbEntity
  8
0
 62
7
100
AcDbPolyline
 90
2
 70
0
 10
279.263723
 20
340.589345
 30
0.0
 10
278.977671
 20
340.216555
 30
0.0
  0
LWPOLYLINE
  5
435
100
AcDbEntity
  8
0
 62
7
100
AcDbPolyline
 90
2
 70
0
 10
280.070642
 20
341.055221
 30
0.0
 10
279.636516
 20
340.875400
 30
0.0
  0
LWPOLYLINE
  5
436
100
AcDbEntity
  8
0
 62
7
100
AcDbPolyline
 90
2
 70
0
 10
279.263723
 20
338.043763
 30
0.0
 10
279.636516
 20
337.757708
 30
0.0
  0
LWPOLYLINE
  5
437
100
AcDbEntity
  8
0
 62
7
100
AcDbPolyline
 90
2
 70
0
 10
279.636516
 20
340.875400
 30
0.0
 10
279.263723
 20
340.589345
 30
0.0
  0
LWPOLYLINE
  5
438
100
AcDbEntity
  8
0
 62
7
100
AcDbPolyline
 90
2
 70
0
 10
281.002390
 20
337.577887
 30
0.0
 10
281.436516
 20
337.757708
 30
0.0
  0
LWPOLYLINE
  5
439
100
AcDbEntity
  8
0
 62
7
100
AcDbPolyline
 90
2
 70
0
 10
281.436516
 20
128.736971
 30
0.0
 10
281.809309
 20
129.023003
 30
0.0
  0
LWPOLYLINE
  5
43a
100
AcDbEntity
  8
0
 62
7
100
AcDbPolyline
 90
2
 70
0
 10
280.536515
 20
128.495812
 30
0.0
 10
281.002390
 20
128.557139
 30
0.0
  0
LWPOLYLINE
  5
43b
100
AcDbEntity
  8
0
 62
7
100
AcDbPolyline
 90
2
 70
0
 10
280.070642
 20
128.557139
 30
0.0
 10
280.536515
 20
128.495812
 30
0.0
  0
LWPOLYLINE
  5
43c
100
AcDbEntity
  8
0
 62
7
100
AcDbPolyline
 90
2
 70
0
 10
279.636516
 20
128.736971
 30
0.0
 10
280.070642
 20
128.557139
 30
0.0
  0
LWPOLYLINE
  5
43d
100
AcDbEntity
  8
0
 62
7
100
AcDbPolyline
 90
2
 70
0
 10
278.797851
 20
129.829933
 30
0.0
 10
278.977671
 20
129.395818
 30
0.0
  0
LWPOLYLINE
  5
43e
100
AcDbEntity
  8
0
 62
7
100
AcDbPolyline
 90
2
 70
0
 10
278.736515
 20
130.295797
 30
0.0
 10
278.797851
 20
129.829933
 30
0.0
  0
LWPOLYLINE
  5
43f
100
AcDbEntity
  8
0
 62
7
100
AcDbPolyline
 90
2
 70
0
 10
278.797851
 20
130.761689
 30
0.0
 10
278.736515
 20
130.295797
 30
0.0
  0
LWPOLYLINE
  5
440
100
AcDbEntity
  8
0
 62
7
100
AcDbPolyline
 90
2
 70
0
 10
278.977671
 20
131.195803
 30
0.0
 10
278.797851
 20
130.761689
 30
0.0
  0
LWPOLYLINE
  5
441
100
AcDbEntity
  8
0
 62
7
100
AcDbPolyline
 90
2
 70
0
 10
279.263723
 20
131.568591
 30
0.0
 10
278.977671
 20
131.195803
 30
0.0
  0
LWPOLYLINE
  5
442
100
AcDbEntity
  8
0
 62
7
100
AcDbPolyline
 90
3
 70
0
 10
280.070642
 20
132.034483
 30
0.0
 10
279.636516
 20
131.854651
 30
0.0
 10
279.263723
 20
131.568591
 30
0.0
  0
LWPOLYLINE
  5
443
100
AcDbEntity
  8
0
 62
7
100
AcDbPolyline
 90
2
 70
0
 10
281.436516
 20
131.854651
 30
0.0
 10
281.002390
 20
132.034483
 30
0.0
  0
LWPOLYLINE
  5
444
100
AcDbEntity
  8
0
 62
7
100
AcDbPolyline
 90
2
 70
0
 10
281.809309
 20
131.568591
 30
0.0
 10
281.436516
 20
131.854651
 30
0.0
  0
LWPOLYLINE
  5
445
100
AcDbEntity
  8
0
 62
7
100
AcDbPolyline
 90
2
 70
0
 10
282.095361
 20
131.195803
 30
0.0
 10
281.809309
 20
131.568591
 30
0.0
  0
LWPOLYLINE
  5
446
100
AcDbEntity
  8
0
 62
7
100
AcDbPolyline
 90
2
 70
0
 10
282.275167
 20
130.761689
 30
0.0
 10
282.095361
 20
131.195803
 30
0.0
  0
LWPOLYLINE
  5
447
100
AcDbEntity
  8
0
 62
7
100
AcDbPolyline
 90
2
 70
0
 10
282.336522
 20
130.295797
 30
0.0
 10
282.275167
 20
130.761689
 30
0.0
  0
LWPOLYLINE
  5
448
100
AcDbEntity
  8
0
 62
7
100
AcDbPolyline
 90
2
 70
0
 10
280.536515
 20
132.095810
 30
0.0
 10
280.070642
 20
132.034483
 30
0.0
  0
LWPOLYLINE
  5
449
100
AcDbEntity
  8
0
 62
7
100
AcDbPolyline
 90
2
 70
0
 10
281.002390
 20
132.034483
 30
0.0
 10
280.536515
 20
132.095810
 30
0.0
  0
LWPOLYLINE
  5
44a
100
AcDbEntity
  8
0
 62
7
100
AcDbPolyline
 90
2
 70
0
 10
282.275167
 20
129.829933
 30
0.0
 10
282.336522
 20
130.295797
 30
0.0
  0
LWPOLYLINE
  5
44b
100
AcDbEntity
  8
0
 62
7
100
AcDbPolyline
 90
2
 70
0
 10
282.095361
 20
129.395818
 30
0.0
 10
282.275167
 20
129.829933
 30
0.0
  0
LWPOLYLINE
  5
44c
100
AcDbEntity
  8
0
 62
7
100
AcDbPolyline
 90
2
 70
0
 10
281.809309
 20
129.023003
 30
0.0
 10
282.095361
 20
129.395818
 30
0.0
  0
LWPOLYLINE
  5
44d
100
AcDbEntity
  8
0
 62
7
100
AcDbPolyline
 90
2
 70
0
 10
69.715880
 20
130.336691
 30
0.0
 10
69.772002
 20
129.870177
 30
0.0
  0
LWPOLYLINE
  5
44e
100
AcDbEntity
  8
0
 62
7
100
AcDbPolyline
 90
2
 70
0
 10
70.228821
 20
129.058083
 30
0.0
 10
70.598391
 20
128.767874
 30
0.0
  0
LWPOLYLINE
  5
44f
100
AcDbEntity
  8
0
 62
7
100
AcDbPolyline
 90
2
 70
0
 10
73.084580
 20
131.199077
 30
0.0
 10
72.802713
 20
131.575054
 30
0.0
  0
LWPOLYLINE
  5
450
100
AcDbEntity
  8
0
 62
7
100
AcDbPolyline
 90
2
 70
0
 10
73.315655
 20
130.296446
 30
0.0
 10
73.259535
 20
130.762959
 30
0.0
  0
LWPOLYLINE
  5
451
100
AcDbEntity
  8
0
 62
7
100
AcDbPolyline
 90
2
 70
0
 10
73.064452
 20
129.399205
 30
0.0
 10
73.249115
 20
129.831287
 30
0.0
  0
LWPOLYLINE
  5
452
100
AcDbEntity
  8
0
 62
7
100
AcDbPolyline
 90
2
 70
0
 10
69.782419
 20
130.801849
 30
0.0
 10
69.715880
 20
130.336691
 30
0.0
  0
LWPOLYLINE
  5
453
100
AcDbEntity
  8
0
 62
7
100
AcDbPolyline
 90
2
 70
0
 10
71.962171
 20
128.572802
 30
0.0
 10
72.398280
 20
128.747751
 30
0.0
  0
LWPOLYLINE
  5
454
100
AcDbEntity
  8
0
 62
7
100
AcDbPolyline
 90
2
 70
0
 10
69.772002
 20
129.870177
 30
0.0
 10
69.946955
 20
129.434059
 30
0.0
  0
LWPOLYLINE
  5
455
100
AcDbEntity
  8
0
 62
7
100
AcDbPolyline
 90
2
 70
0
 10
70.633257
 20
131.885385
 30
0.0
 10
70.257289
 20
131.603530
 30
0.0
  0
LWPOLYLINE
  5
456
100
AcDbEntity
  8
0
 62
7
100
AcDbPolyline
 90
2
 70
0
 10
72.774248
 20
129.029635
 30
0.0
 10
73.064452
 20
129.399205
 30
0.0
  0
LWPOLYLINE
  5
457
100
AcDbEntity
  8
0
 62
7
100
AcDbPolyline
 90
2
 70
0
 10
69.946955
 20
129.434059
 30
0.0
 10
70.228821
 20
129.058083
 30
0.0
  0
LWPOLYLINE
  5
458
100
AcDbEntity
  8
0
 62
7
100
AcDbPolyline
 90
2
 70
0
 10
71.069367
 20
132.060335
 30
0.0
 10
70.633257
 20
131.885385
 30
0.0
  0
LWPOLYLINE
  5
459
100
AcDbEntity
  8
0
 62
7
100
AcDbPolyline
 90
2
 70
0
 10
71.535897
 20
132.116469
 30
0.0
 10
71.069367
 20
132.060335
 30
0.0
  0
LWPOLYLINE
  5
45a
100
AcDbEntity
  8
0
 62
7
100
AcDbPolyline
 90
2
 70
0
 10
70.598391
 20
128.767874
 30
0.0
 10
71.030479
 20
128.583216
 30
0.0
  0
LWPOLYLINE
  5
45b
100
AcDbEntity
  8
0
 62
7
100
AcDbPolyline
 90
2
 70
0
 10
72.001055
 20
132.049921
 30
0.0
 10
71.535897
 20
132.116469
 30
0.0
  0
LWPOLYLINE
  5
45c
100
AcDbEntity
  8
0
 62
7
100
AcDbPolyline
 90
2
 70
0
 10
72.433143
 20
131.865263
 30
0.0
 10
72.001055
 20
132.049921
 30
0.0
  0
LWPOLYLINE
  5
45d
100
AcDbEntity
  8
0
 62
7
100
AcDbPolyline
 90
2
 70
0
 10
72.802713
 20
131.575054
 30
0.0
 10
72.433143
 20
131.865263
 30
0.0
  0
LWPOLYLINE
  5
45e
100
AcDbEntity
  8
0
 62
7
100
AcDbPolyline
 90
2
 70
0
 10
71.495641
 20
128.516696
 30
0.0
 10
71.962171
 20
128.572802
 30
0.0
  0
LWPOLYLINE
  5
45f
100
AcDbEntity
  8
0
 62
7
100
AcDbPolyline
 90
2
 70
0
 10
71.030479
 20
128.583216
 30
0.0
 10
71.495641
 20
128.516696
 30
0.0
  0
LWPOLYLINE
  5
460
100
AcDbEntity
  8
0
 62
7
100
AcDbPolyline
 90
2
 70
0
 10
72.398280
 20
128.747751
 30
0.0
 10
72.774248
 20
129.029635
 30
0.0
  0
LWPOLYLINE
  5
461
100
AcDbEntity
  8
0
 62
7
100
AcDbPolyline
 90
2
 70
0
 10
69.967086
 20
131.233960
 30
0.0
 10
69.782419
 20
130.801849
 30
0.0
  0
LWPOLYLINE
  5
462
100
AcDbEntity
  8
0
 62
7
100
AcDbPolyline
 90
13
 70
0
 10
125.015958
 20
368.863962
 30
0.0
 10
129.583448
 20
367.747465
 30
0.0
 10
130.852195
 20
366.986216
 30
0.0
 10
131.207445
 20
365.971218
 30
0.0
 10
131.156696
 20
364.803972
 30
0.0
 10
130.344697
 20
363.738225
 30
0.0
 10
129.126700
 20
363.027725
 30
0.0
 10
127.502703
 20
362.875474
 30
0.0
 10
125.574208
 20
363.230724
 30
0.0
 10
124.102461
 20
364.144224
 30
0.0
 10
123.188961
 20
365.717469
 30
0.0
 10
122.985962
 20
366.580217
 30
0.0
 10
119.078220
 20
366.224970
 30
0.0
  0
LWPOLYLINE
  5
463
100
AcDbEntity
  8
0
 62
7
100
AcDbPolyline
 90
13
 70
0
 10
91.896503
 20
379.206170
 30
0.0
 10
90.996502
 20
379.506170
 30
0.0
 10
89.496502
 20
379.706169
 30
0.0
 10
88.096502
 20
379.806169
 30
0.0
 10
79.696502
 20
379.806169
 30
0.0
 10
79.696502
 20
359.806169
 30
0.0
 10
83.696502
 20
359.806169
 30
0.0
 10
83.696502
 20
376.406170
 30
0.0
 10
87.996502
 20
376.406170
 30
0.0
 10
88.996503
 20
376.206168
 30
0.0
 10
89.796501
 20
375.806168
 30
0.0
 10
90.396503
 20
375.206170
 30
0.0
 10
90.696502
 20
374.606168
 30
0.0
  0
LWPOLYLINE
  5
464
100
AcDbEntity
  8
0
 62
7
100
AcDbPolyline
 90
2
 70
0
 10
92.832044
 20
359.810036
 30
0.0
 10
87.590466
 20
367.406168
 30
0.0
  0
LWPOLYLINE
  5
465
100
AcDbEntity
  8
0
 62
7
100
AcDbPolyline
 90
13
 70
0
 10
111.799833
 20
367.855113
 30
0.0
 10
111.677461
 20
366.141912
 30
0.0
 10
111.310347
 20
364.404238
 30
0.0
 10
110.404797
 20
363.523163
 30
0.0
 10
109.205559
 20
363.009203
 30
0.0
 10
107.761574
 20
362.911305
 30
0.0
 10
106.268644
 20
363.156048
 30
0.0
 10
105.044929
 20
363.890278
 30
0.0
 10
104.237276
 20
365.113993
 30
0.0
 10
103.919110
 20
367.022987
 30
0.0
 10
103.943579
 20
374.977132
 30
0.0
 10
103.943585
 20
379.798569
 30
0.0
 10
99.896501
 20
379.806160
 30
0.0
  0
LWPOLYLINE
  5
466
100
AcDbEntity
  8
0
 62
7
100
AcDbPolyline
 90
2
 70
0
 10
136.637683
 20
359.779731
 30
0.0
 10
144.503916
 20
379.724440
 30
0.0
  0
LWPOLYLINE
  5
467
100
AcDbEntity
  8
0
 62
7
100
AcDbPolyline
 90
14
 70
0
 10
129.938698
 20
371.705957
 30
0.0
 10
126.386206
 20
372.619456
 30
0.0
 10
124.051712
 20
373.634452
 30
0.0
 10
123.747211
 20
374.547951
 30
0.0
 10
123.752602
 20
375.309201
 30
0.0
 10
124.222521
 20
376.014059
 30
0.0
 10
125.074228
 20
376.513336
 30
0.0
 10
126.102147
 20
376.777656
 30
0.0
 10
127.482498
 20
376.836395
 30
0.0
 10
128.774740
 20
376.630811
 30
0.0
 10
129.920136
 20
375.984691
 30
0.0
 10
130.448781
 20
375.132984
 30
0.0
 10
130.742473
 20
373.840742
 30
0.0
 10
134.810689
 20
374.091203
 30
0.0
  0
LWPOLYLINE
  5
468
100
AcDbEntity
  8
0
 62
7
100
AcDbPolyline
 90
13
 70
0
 10
133.288191
 20
378.049694
 30
0.0
 10
131.714946
 20
379.166191
 30
0.0
 10
129.684949
 20
379.927440
 30
0.0
 10
127.553452
 20
380.079690
 30
0.0
 10
125.878706
 20
380.079690
 30
0.0
 10
123.239713
 20
379.470691
 30
0.0
 10
121.361968
 20
378.303443
 30
0.0
 10
120.143970
 20
376.476446
 30
0.0
 10
119.737971
 20
375.156950
 30
0.0
 10
119.940970
 20
373.177703
 30
0.0
 10
120.752969
 20
371.401459
 30
0.0
 10
122.173963
 20
370.132709
 30
0.0
 10
125.015958
 20
368.863962
 30
0.0
  0
LWPOLYLINE
  5
469
100
AcDbEntity
  8
0
 62
7
100
AcDbPolyline
 90
13
 70
0
 10
103.233830
 20
360.400507
 30
0.0
 10
104.971506
 20
359.764175
 30
0.0
 10
107.590254
 20
359.421537
 30
0.0
 10
110.209003
 20
359.617332
 30
0.0
 10
112.313793
 20
360.278135
 30
0.0
 10
113.635403
 20
361.134736
 30
0.0
 10
114.785696
 20
362.260555
 30
0.0
 10
115.519925
 20
364.306341
 30
0.0
 10
115.862566
 20
367.071935
 30
0.0
 10
115.862566
 20
370.987822
 30
0.0
 10
115.838097
 20
379.798569
 30
0.0
 10
111.775359
 20
379.798569
 30
0.0
 10
111.799827
 20
367.855113
 30
0.0
  0
LWPOLYLINE
  5
46a
100
AcDbEntity
  8
0
 62
7
100
AcDbPolyline
 90
12
 70
0
 10
70.396504
 20
376.206168
 30
0.0
 10
71.196505
 20
375.806168
 30
0.0
 10
71.796504
 20
375.206170
 30
0.0
 10
72.096503
 20
374.606168
 30
0.0
 10
72.296505
 20
373.806170
 30
0.0
 10
72.196503
 20
372.906169
 30
0.0
 10
71.796504
 20
372.106170
 30
0.0
 10
71.296505
 20
371.506169
 30
0.0
 10
70.396504
 20
371.006170
 30
0.0
 10
69.496505
 20
370.806170
 30
0.0
 10
68.196505
 20
370.806170
 30
0.0
 10
66.596506
 20
370.806170
 30
0.0
  0
LWPOLYLINE
  5
46b
100
AcDbEntity
  8
0
 62
7
100
AcDbPolyline
 90
6
 70
0
 10
74.596504
 20
378.306169
 30
0.0
 10
73.296503
 20
379.206170
 30
0.0
 10
72.396505
 20
379.506170
 30
0.0
 10
70.896503
 20
379.706169
 30
0.0
 10
69.496505
 20
379.806169
 30
0.0
 10
61.096505
 20
379.806169
 30
0.0
  0
LWPOLYLINE
  5
46c
100
AcDbEntity
  8
0
 62
7
100
AcDbPolyline
 90
8
 70
0
 10
90.696502
 20
374.606168
 30
0.0
 10
90.896502
 20
373.806170
 30
0.0
 10
90.796502
 20
372.906169
 30
0.0
 10
90.396503
 20
372.106170
 30
0.0
 10
89.896501
 20
371.506169
 30
0.0
 10
88.996503
 20
371.006170
 30
0.0
 10
88.096502
 20
370.806170
 30
0.0
 10
86.796502
 20
370.806170
 30
0.0
  0
LWPOLYLINE
  5
46d
100
AcDbEntity
  8
0
 62
7
100
AcDbPolyline
 90
4
 70
0
 10
144.503916
 20
379.724440
 30
0.0
 10
148.766908
 20
379.724440
 30
0.0
 10
156.683891
 20
359.830483
 30
0.0
 10
152.370152
 20
359.881232
 30
0.0
  0
LWPOLYLINE
  5
46e
100
AcDbEntity
  8
0
 62
7
100
AcDbPolyline
 90
8
 70
0
 10
136.637683
 20
359.779731
 30
0.0
 10
141.002176
 20
359.779731
 30
0.0
 10
146.533912
 20
375.055449
 30
0.0
 10
149.325158
 20
367.747465
 30
0.0
 10
144.960667
 20
367.696716
 30
0.0
 10
143.793419
 20
364.397973
 30
0.0
 10
150.644654
 20
364.397973
 30
0.0
 10
152.370152
 20
359.881232
 30
0.0
  0
LWPOLYLINE
  5
46f
100
AcDbEntity
  8
0
 62
7
100
AcDbPolyline
 90
3
 70
0
 10
134.810689
 20
374.091203
 30
0.0
 10
134.404690
 20
376.070447
 30
0.0
 10
133.288191
 20
378.049694
 30
0.0
  0
LWPOLYLINE
  5
470
100
AcDbEntity
  8
0
 62
7
100
AcDbPolyline
 90
13
 70
0
 10
119.078220
 20
366.224970
 30
0.0
 10
119.687219
 20
363.941225
 30
0.0
 10
121.158968
 20
361.555978
 30
0.0
 10
123.645713
 20
360.033483
 30
0.0
 10
126.284705
 20
359.475233
 30
0.0
 10
128.822202
 20
359.576731
 30
0.0
 10
132.120945
 20
360.388730
 30
0.0
 10
134.252439
 20
362.266476
 30
0.0
 10
135.267438
 20
364.194973
 30
0.0
 10
135.267438
 20
366.732467
 30
0.0
 10
134.556937
 20
368.762463
 30
0.0
 10
132.932943
 20
370.538711
 30
0.0
 10
129.938698
 20
371.705957
 30
0.0
  0
LWPOLYLINE
  5
471
100
AcDbEntity
  8
0
 62
7
100
AcDbPolyline
 90
13
 70
0
 10
66.596506
 20
370.806170
 30
0.0
 10
66.596506
 20
367.406168
 30
0.0
 10
69.496505
 20
367.406168
 30
0.0
 10
71.196505
 20
367.506171
 30
0.0
 10
73.196504
 20
368.106170
 30
0.0
 10
74.696503
 20
369.106171
 30
0.0
 10
75.596504
 20
370.206168
 30
0.0
 10
76.196503
 20
371.506169
 30
0.0
 10
76.396503
 20
372.806169
 30
0.0
 10
76.396503
 20
374.506168
 30
0.0
 10
76.096503
 20
376.006168
 30
0.0
 10
75.396505
 20
377.306168
 30
0.0
 10
74.596504
 20
378.306169
 30
0.0
  0
LWPOLYLINE
  5
472
100
AcDbEntity
  8
0
 62
7
100
AcDbPolyline
 90
5
 70
0
 10
92.832044
 20
359.810036
 30
0.0
 10
97.706507
 20
359.810036
 30
0.0
 10
93.525481
 20
366.458884
 30
0.0
 10
92.566905
 20
367.417460
 30
0.0
 10
91.796503
 20
368.106170
 30
0.0
  0
LWPOLYLINE
  5
473
100
AcDbEntity
  8
0
 62
7
100
AcDbPolyline
 90
2
 70
0
 10
85.196502
 20
367.406168
 30
0.0
 10
87.590466
 20
367.406168
 30
0.0
  0
LWPOLYLINE
  5
474
100
AcDbEntity
  8
0
 62
7
100
AcDbPolyline
 90
7
 70
0
 10
99.896501
 20
379.806169
 30
0.0
 10
99.856377
 20
368.819664
 30
0.0
 10
100.076646
 20
365.197469
 30
0.0
 10
100.468235
 20
363.533219
 30
0.0
 10
101.055619
 20
362.333977
 30
0.0
 10
101.985643
 20
361.232633
 30
0.0
 10
103.233830
 20
360.400507
 30
0.0
  0
LWPOLYLINE
  5
475
100
AcDbEntity
  8
0
 62
7
100
AcDbPolyline
 90
3
 70
0
 10
86.796502
 20
370.806170
 30
0.0
 10
85.196502
 20
370.806170
 30
0.0
 10
85.196502
 20
367.406168
 30
0.0
  0
LWPOLYLINE
  5
476
100
AcDbEntity
  8
0
 62
7
100
AcDbPolyline
 90
10
 70
0
 10
91.796503
 20
368.106170
 30
0.0
 10
93.296503
 20
369.106171
 30
0.0
 10
94.196501
 20
370.206168
 30
0.0
 10
94.796503
 20
371.506169
 30
0.0
 10
94.996502
 20
372.806169
 30
0.0
 10
94.996502
 20
374.506168
 30
0.0
 10
94.696503
 20
376.006168
 30
0.0
 10
93.996502
 20
377.306168
 30
0.0
 10
93.196503
 20
378.306169
 30
0.0
 10
91.896503
 20
379.206170
 30
0.0
  0
LWPOLYLINE
  5
477
100
AcDbEntity
  8
0
 62
7
100
AcDbPolyline
 90
6
 70
0
 10
61.096505
 20
379.806169
 30
0.0
 10
61.096505
 20
359.806169
 30
0.0
 10
65.096506
 20
359.806169
 30
0.0
 10
65.096506
 20
376.406170
 30
0.0
 10
69.396506
 20
376.406170
 30
0.0
 10
70.396504
 20
376.206168
 30
0.0
  0
LWPOLYLINE
  5
478
100
AcDbEntity
  8
0
 62
7
100
AcDbPolyline
 90
15
 70
0
 10
101.096501
 20
53.806209
 30
0.0
 10
101.096501
 20
39.740648
 30
0.0
 10
101.258537
 20
38.509877
 30
0.0
 10
101.758902
 20
37.301881
 30
0.0
 10
102.554865
 20
36.264573
 30
0.0
 10
103.592187
 20
35.468594
 30
0.0
 10
104.800174
 20
34.968242
 30
0.0
 10
106.096503
 20
34.797554
 30
0.0
 10
107.392828
 20
34.968242
 30
0.0
 10
108.600816
 20
35.468594
 30
0.0
 10
109.638138
 20
36.264573
 30
0.0
 10
110.434100
 20
37.301881
 30
0.0
 10
110.934466
 20
38.509877
 30
0.0
 10
111.096501
 20
39.740648
 30
0.0
 10
111.096501
 20
53.806209
 30
0.0
  0
LWPOLYLINE
  5
479
100
AcDbEntity
  8
0
 62
7
100
AcDbPolyline
 90
2
 70
0
 10
101.096501
 20
53.806209
 30
0.0
 10
101.096501
 20
54.806207
 30
0.0
  0
LWPOLYLINE
  5
47a
100
AcDbEntity
  8
0
 62
7
100
AcDbPolyline
 90
2
 70
0
 10
111.096501
 20
54.806207
 30
0.0
 10
116.096500
 20
59.806197
 30
0.0
  0
LWPOLYLINE
  5
47b
100
AcDbEntity
  8
0
 62
7
100
AcDbPolyline
 90
2
 70
0
 10
111.096501
 20
53.806209
 30
0.0
 10
111.096501
 20
54.806207
 30
0.0
  0
LWPOLYLINE
  5
47c
100
AcDbEntity
  8
0
 62
7
100
AcDbPolyline
 90
15
 70
0
 10
271.096489
 20
53.806209
 30
0.0
 10
271.096489
 20
39.740648
 30
0.0
 10
271.258524
 20
38.509877
 30
0.0
 10
271.758887
 20
37.301881
 30
0.0
 10
272.554852
 20
36.264573
 30
0.0
 10
273.592174
 20
35.468594
 30
0.0
 10
274.800159
 20
34.968242
 30
0.0
 10
276.096487
 20
34.797554
 30
0.0
 10
277.392816
 20
34.968242
 30
0.0
 10
278.600803
 20
35.468594
 30
0.0
 10
279.638122
 20
36.264573
 30
0.0
 10
280.434088
 20
37.301881
 30
0.0
 10
280.934451
 20
38.509877
 30
0.0
 10
281.096486
 20
39.740648
 30
0.0
 10
281.096486
 20
53.806209
 30
0.0
  0
LWPOLYLINE
  5
47d
100
AcDbEntity
  8
0
 62
7
100
AcDbPolyline
 90
2
 70
0
 10
271.096489
 20
54.806207
 30
0.0
 10
266.096488
 20
59.806197
 30
0.0
  0
LWPOLYLINE
  5
47e
100
AcDbEntity
  8
0
 62
7
100
AcDbPolyline
 90
2
 70
0
 10
271.096489
 20
53.806209
 30
0.0
 10
271.096489
 20
54.806207
 30
0.0
  0
LWPOLYLINE
  5
47f
100
AcDbEntity
  8
0
 62
7
100
AcDbPolyline
 90
2
 70
0
 10
281.096486
 20
53.806209
 30
0.0
 10
281.096486
 20
54.806207
 30
0.0
  0
LWPOLYLINE
  5
480
100
AcDbEntity
  8
0
 62
7
100
AcDbPolyline
 90
2
 70
0
 10
296.096492
 20
59.806197
 30
0.0
 10
286.096484
 20
59.806197
 30
0.0
  0
LWPOLYLINE
  5
481
100
AcDbEntity
  8
0
 62
7
100
AcDbPolyline
 90
2
 70
0
 10
281.096486
 20
54.806207
 30
0.0
 10
286.096484
 20
59.806197
 30
0.0
  0
LWPOLYLINE
  5
482
100
AcDbEntity
  8
0
 62
7
100
AcDbPolyline
 90
3
 70
0
 10
86.096503
 20
59.806197
 30
0.0
 10
96.096503
 20
59.806197
 30
0.0
 10
101.096501
 20
54.806207
 30
0.0
  0
ENDSEC
  0
SECTION
  2
OBJECTS
  0
DICTIONARY
  5
C
330
0
100
AcDbDictionary
  3
ACAD_GROUP
350
D
  3
ACAD_MLINESTYLE
350
17
  0
DICTIONARY
  5
D
330
C
100
AcDbDictionary
  0
DICTIONARY
  5
1A
330
C
100
AcDbDictionary
  0
DICTIONARY
  5
17
330
C
100
AcDbDictionary
  3
STANDARD
350
18
  0
DICTIONARY
  5
19
330
C
100
AcDbDictionary
  0
ENDSEC
  0
EOF
